<svg width="69" height="80" viewBox="0 0 69 80" fill="none" xmlns="http://www.w3.org/2000/svg">
<path d="M3.49939 69.9561C3.49939 53.3875 16.9308 39.9561 33.4994 39.9561V39.9561C50.0679 39.9561 63.4994 53.3875 63.4994 69.9561V79.9561H3.49939V69.9561Z" fill="#1E8C62"/>
<rect x="15.4994" y="3.95605" width="36" height="36" rx="18" fill="#25A373"/>
<g opacity="0.23" filter="url(#filter0_f_2224_732)">
<path d="M33.4994 38.659C33.4994 39.3754 32.918 39.9609 32.2035 39.9093C30.2833 39.7707 28.3949 39.3248 26.6111 38.5859C24.4272 37.6813 22.4429 36.3554 20.7715 34.684C19.1 33.0125 17.7741 31.0282 16.8696 28.8444C15.965 26.6605 15.4994 24.3198 15.4994 21.9561C15.4994 19.5923 15.965 17.2516 16.8696 15.0678C17.7741 12.8839 19.1 10.8996 20.7715 9.22813C22.4429 7.55668 24.4272 6.23081 26.6111 5.32622C28.3949 4.58735 30.2833 4.14136 32.2035 4.00276C32.918 3.95119 33.4994 4.53674 33.4994 5.25306V5.25306C33.4994 5.96938 32.9177 6.54439 32.2039 6.60463C30.6247 6.7379 29.0728 7.1143 27.6038 7.72278C25.7346 8.497 24.0363 9.6318 22.6057 11.0624C21.1751 12.493 20.0403 14.1913 19.2661 16.0604C18.4919 17.9296 18.0934 19.9329 18.0934 21.9561C18.0934 23.9792 18.4919 25.9825 19.2661 27.8517C20.0403 29.7208 21.1751 31.4192 22.6057 32.8497C24.0363 34.2803 25.7346 35.4151 27.6038 36.1893C29.0728 36.7978 30.6247 37.1742 32.2039 37.3075C32.9177 37.3677 33.4994 37.9427 33.4994 38.659V38.659Z" fill="#CDFFEC"/>
</g>
<g opacity="0.82" filter="url(#filter1_f_2224_732)">
<path d="M4.49939 70.9788C4.99939 61.3122 11.5994 41.7788 33.9994 40.9788C56.3994 40.1788 63.3327 60.6455 63.9994 70.9788" stroke="#CDFFEC"/>
</g>
<defs>
<filter id="filter0_f_2224_732" x="11.4994" y="0" width="26" height="43.9121" filterUnits="userSpaceOnUse" color-interpolation-filters="sRGB">
<feFlood flood-opacity="0" result="BackgroundImageFix"/>
<feBlend mode="normal" in="SourceGraphic" in2="BackgroundImageFix" result="shape"/>
<feGaussianBlur stdDeviation="2" result="effect1_foregroundBlur_2224_732"/>
</filter>
<filter id="filter1_f_2224_732" x="0" y="36.4561" width="68.4984" height="38.5547" filterUnits="userSpaceOnUse" color-interpolation-filters="sRGB">
<feFlood flood-opacity="0" result="BackgroundImageFix"/>
<feBlend mode="normal" in="SourceGraphic" in2="BackgroundImageFix" result="shape"/>
<feGaussianBlur stdDeviation="2" result="effect1_foregroundBlur_2224_732"/>
</filter>
</defs>
</svg>
