<svg width="58" height="23" viewBox="0 0 58 23" fill="none" xmlns="http://www.w3.org/2000/svg">
<path d="M8.40718 21.3443C2.02522 19.3228 1.66374 12.0836 2.23701 10.1475C2.34913 9.76888 2.72918 9.79637 3.04532 10.033L5.41722 11.8086C5.91393 12.1804 6.56535 12.2749 7.1472 12.0594L16.5652 8.57213C17.1728 8.34715 17.8812 8.44902 18.2246 8.99844C19.2109 10.5762 19.316 13.157 19.0082 14.4118C17.2535 21.5633 10.9194 22.1401 8.40718 21.3443Z" fill="white" stroke="black" stroke-width="1.12752" stroke-linecap="round"/>
<path d="M0.365549 7.31097L6.76265 11.332L22.4586 0L26.3195 5.29063L6.99345 13.5002L0 9.68704L0.365549 7.31097Z" fill="black"/>
<circle cx="8.59056" cy="14.8044" r="3.10716" fill="black"/>
<path d="M39.7265 21.3443C33.3446 19.3228 32.9831 12.0836 33.5563 10.1475C33.6685 9.76888 34.0485 9.79637 34.3647 10.033L36.7366 11.8086C37.2333 12.1804 37.8847 12.2749 38.4665 12.0594L47.8846 8.57213C48.4922 8.34715 49.2005 8.44902 49.544 8.99844C50.5302 10.5762 50.6354 13.157 50.3275 14.4118C48.5729 21.5633 42.2388 22.1401 39.7265 21.3443Z" fill="white" stroke="black" stroke-width="1.12752" stroke-linecap="round"/>
<path d="M31.6849 7.31097L38.082 11.332L53.7779 0L57.6388 5.29063L38.3128 13.5002L31.3193 9.68704L31.6849 7.31097Z" fill="black"/>
<circle cx="39.9099" cy="14.8044" r="3.10716" fill="black"/>
</svg>
