<svg width="20" height="21" viewBox="0 0 20 21" fill="none" xmlns="http://www.w3.org/2000/svg">
<path d="M1.51298 8.5449C8.79016 4.62099 12.0325 7.54102 12.5789 10.3412C12.6664 10.7901 12.2243 11.5978 11.8693 11.8862C11.3011 12.348 10.5553 12.9888 10.0716 13.4114C10.0474 13.4326 10.0248 13.4557 10.0046 13.4806C8.75519 15.0177 9.9588 16.5002 10.7236 17.053C10.4882 17.4632 10.5733 17.9634 10.7048 18.2766C10.7169 18.3055 10.733 18.3339 10.7503 18.36C12.6301 21.1859 14.6349 19.6485 14.7848 18.3472L14.7162 18.999C14.6851 19.2948 14.8668 19.583 15.1629 19.6125C16.5822 19.7541 17.3106 18.4226 17.5075 17.6631L17.5617 17.922C17.6615 18.3987 18.2407 18.5724 18.509 18.166C20.1768 15.6397 18.0889 12.6873 16.5571 11.4312C16.4641 11.3549 16.3918 11.2566 16.3514 11.1433L14.1624 5.00194C10.8457 -2.35517 3.41983 1.24297 0.821161 2.96626C0.651461 3.0788 0.554331 3.27049 0.554331 3.47412V7.99006C0.554331 8.47466 1.08643 8.77489 1.51298 8.5449Z" fill="white"/>
<path d="M17.2261 16.3188L17.5075 17.6631M17.5075 17.6631L17.5617 17.922C17.6615 18.3987 18.2407 18.5724 18.509 18.166C20.1768 15.6397 18.0889 12.6873 16.5571 11.4312C16.4641 11.3549 16.3918 11.2566 16.3514 11.1433L14.1624 5.00194C10.8457 -2.35517 3.41983 1.24297 0.821162 2.96626C0.65146 3.0788 0.554332 3.27049 0.554332 3.47412C0.554332 5.35123 0.554332 6.30109 0.554332 7.99006C0.554332 8.47466 1.08643 8.77489 1.51298 8.5449C8.79016 4.62099 12.0325 7.54102 12.5789 10.3412C12.6664 10.7901 12.2243 11.5978 11.8693 11.8862C11.3011 12.348 10.5553 12.9888 10.0716 13.4114C10.0474 13.4326 10.0248 13.4557 10.0046 13.4806C8.75519 15.0177 9.9588 16.5002 10.7236 17.053M17.5075 17.6631C17.3106 18.4226 16.5822 19.7541 15.1629 19.6125C14.8668 19.583 14.6851 19.2948 14.7162 18.999L14.7877 18.3196M14.9128 17.1316L14.7877 18.3196M11.9963 16.3517L11.6615 16.4439C11.164 16.5587 10.8764 16.7869 10.7236 17.053C10.4882 17.4632 10.5733 17.9634 10.7048 18.2766C10.7169 18.3055 10.733 18.3339 10.7503 18.36C12.6434 21.2059 14.6633 19.6265 14.7877 18.3196M11.9963 16.3517L11.6615 14.9433M11.9963 16.3517L12.2868 17.5693" stroke="black" stroke-width="1.10873" stroke-linecap="round"/>
</svg>
