<svg width="33" height="40" viewBox="0 0 33 40" fill="none" xmlns="http://www.w3.org/2000/svg">
<g opacity="0.75" filter="url(#filter0_f_2199_606)">
<path d="M14.1918 8.2168V12.7734C14.1918 14.6524 15.7152 16.1755 17.5941 16.1758H24.7172V33.9902H5.9418V8.2168H14.1918ZM21.0561 18.3438C19.8704 18.3439 18.7696 18.9617 18.1518 19.9736L17.8295 20.502C17.525 21.0006 16.889 21.1846 16.3656 20.9248L15.8344 20.6611C14.0784 19.7898 11.9511 20.5782 11.1879 22.3838L10.9643 22.9131C10.7172 23.4971 10.0367 23.7624 9.45938 23.5L8.2709 22.959C7.6991 22.699 7.02425 22.9517 6.76407 23.5234C6.50403 24.0952 6.75692 24.77 7.32852 25.0303L8.517 25.5713C10.2601 26.3641 12.3143 25.5626 13.06 23.7988L13.2836 23.2695C13.5365 22.6716 14.2411 22.4108 14.8227 22.6992L15.3539 22.9629C16.9338 23.7471 18.8516 23.1936 19.7709 21.6885L20.0941 21.1592C20.2987 20.824 20.6634 20.6193 21.0561 20.6191H22.265C22.8933 20.6191 23.4027 20.1097 23.4027 19.4814C23.4027 18.8531 22.8934 18.3438 22.265 18.3438H21.0561ZM24.6606 5.94141C25.9487 5.94159 26.9926 6.98627 26.9926 8.27441V15.0381L15.3295 5.94141H24.6606ZM21.8334 13.9004H17.5941C16.9719 13.9001 16.4672 13.3958 16.4672 12.7734V9.71387L21.8334 13.9004Z" fill="#A7A7A7"/>
</g>
<g filter="url(#filter1_i_2199_606)">
<path d="M14.1918 8.2168V12.7734C14.1918 14.6524 15.7152 16.1755 17.5941 16.1758H24.7172V33.9902H5.9418V8.2168H14.1918ZM21.0561 18.3438C19.8704 18.3439 18.7696 18.9617 18.1518 19.9736L17.8295 20.502C17.525 21.0006 16.889 21.1846 16.3656 20.9248L15.8344 20.6611C14.0784 19.7898 11.9511 20.5782 11.1879 22.3838L10.9643 22.9131C10.7172 23.4971 10.0367 23.7624 9.45938 23.5L8.2709 22.959C7.6991 22.699 7.02425 22.9517 6.76407 23.5234C6.50403 24.0952 6.75692 24.77 7.32852 25.0303L8.517 25.5713C10.2601 26.3641 12.3143 25.5626 13.06 23.7988L13.2836 23.2695C13.5365 22.6716 14.2411 22.4108 14.8227 22.6992L15.3539 22.9629C16.9338 23.7471 18.8516 23.1936 19.7709 21.6885L20.0941 21.1592C20.2987 20.824 20.6634 20.6193 21.0561 20.6191H22.265C22.8933 20.6191 23.4027 20.1097 23.4027 19.4814C23.4027 18.8531 22.8934 18.3438 22.265 18.3438H21.0561ZM24.6606 5.94141C25.9487 5.94159 26.9926 6.98627 26.9926 8.27441V15.0381L15.3295 5.94141H24.6606ZM21.8334 13.9004H17.5941C16.9719 13.9001 16.4672 13.3958 16.4672 12.7734V9.71387L21.8334 13.9004Z" fill="#A7A7A7"/>
</g>
<defs>
<filter id="filter0_f_2199_606" x="1.4782e-05" y="-0.000381947" width="32.9344" height="39.9324" filterUnits="userSpaceOnUse" color-interpolation-filters="sRGB">
<feFlood flood-opacity="0" result="BackgroundImageFix"/>
<feBlend mode="normal" in="SourceGraphic" in2="BackgroundImageFix" result="shape"/>
<feGaussianBlur stdDeviation="2.97089" result="effect1_foregroundBlur_2199_606"/>
</filter>
<filter id="filter1_i_2199_606" x="5.9418" y="5.94141" width="21.0508" height="33.9906" filterUnits="userSpaceOnUse" color-interpolation-filters="sRGB">
<feFlood flood-opacity="0" result="BackgroundImageFix"/>
<feBlend mode="normal" in="SourceGraphic" in2="BackgroundImageFix" result="shape"/>
<feColorMatrix in="SourceAlpha" type="matrix" values="0 0 0 0 0 0 0 0 0 0 0 0 0 0 0 0 0 0 127 0" result="hardAlpha"/>
<feOffset dy="5.94179"/>
<feGaussianBlur stdDeviation="2.97089"/>
<feComposite in2="hardAlpha" operator="arithmetic" k2="-1" k3="1"/>
<feColorMatrix type="matrix" values="0 0 0 0 1 0 0 0 0 1 0 0 0 0 1 0 0 0 0.25 0"/>
<feBlend mode="normal" in2="shape" result="effect1_innerShadow_2199_606"/>
</filter>
</defs>
</svg>
