<svg width="60" height="60" viewBox="0 0 60 60" fill="none" xmlns="http://www.w3.org/2000/svg">
<g opacity="0.4" filter="url(#filter0_f_2222_680)">
<path d="M50 4C53.3137 4 56 6.68629 56 10V50C56 53.3137 53.3137 56 50 56H10C6.68629 56 4 53.3137 4 50V10C4 6.68629 6.68629 4 10 4H50ZM24.043 42.7803C23.443 42.7803 22.8786 42.8595 22.3506 43.0195C21.8307 43.1795 21.3706 43.4324 20.9707 43.7764C20.5789 44.1123 20.2708 44.5444 20.0469 45.0723C19.831 45.6002 19.7227 46.2366 19.7227 46.9805V47.2197C19.7227 48.2037 19.9111 49.0162 20.2871 49.6562C20.671 50.296 21.1909 50.772 21.8467 51.084C22.5107 51.388 23.2635 51.54 24.1035 51.54C24.6313 51.54 25.1391 51.4635 25.627 51.3115C26.1229 51.1515 26.567 50.908 26.959 50.5801C27.359 50.2521 27.6715 49.8323 27.8955 49.3203C28.1275 48.8003 28.2432 48.18 28.2432 47.46V46.7275H24.3428V48.4316H25.2188C25.1628 48.5356 25.0909 48.6317 25.0029 48.7197C24.923 48.7997 24.8193 48.8641 24.6914 48.9121C24.5714 48.9521 24.4147 48.9717 24.2227 48.9717C24.0148 48.9716 23.8308 48.9399 23.6709 48.876C23.519 48.804 23.3874 48.6957 23.2754 48.5518C23.1714 48.4078 23.0912 48.2277 23.0352 48.0117C22.9872 47.7878 22.9629 47.5236 22.9629 47.2197V46.9805C22.9629 46.5805 22.9993 46.2595 23.0713 46.0195C23.1513 45.7798 23.2671 45.6078 23.4189 45.5039C23.5709 45.3999 23.7594 45.3477 23.9834 45.3477C24.1272 45.3477 24.2516 45.372 24.3555 45.4199C24.4672 45.4599 24.5627 45.5282 24.6426 45.624C24.7226 45.712 24.7832 45.824 24.8232 45.96H28.0635C27.9915 45.392 27.831 44.9078 27.583 44.5078C27.3351 44.1081 27.0232 43.7803 26.6475 43.5244C26.2795 43.2684 25.8709 43.08 25.4229 42.96C24.9749 42.84 24.5149 42.7803 24.043 42.7803ZM47.7939 48.6602C47.3939 48.6602 47.0534 48.7964 46.7734 49.0684C46.4937 49.3402 46.3536 49.6839 46.3535 50.0996C46.3535 50.3636 46.4179 50.608 46.5459 50.832C46.6738 51.0479 46.8457 51.2197 47.0615 51.3477C47.2855 51.4757 47.5299 51.54 47.7939 51.54C48.0658 51.54 48.3095 51.4756 48.5254 51.3477C48.7414 51.2197 48.914 51.048 49.042 50.832C49.1699 50.6081 49.2334 50.3636 49.2334 50.0996C49.2333 49.6838 49.0933 49.3403 48.8135 49.0684C48.5335 48.7964 48.1938 48.6602 47.7939 48.6602ZM8.63965 51.3604H11.8076V48.6602H14.5801V46.4756H11.8076V45.2637H14.9395V42.96H8.63965V51.3604ZM15.6611 51.3604H18.8291V42.96H15.6611V51.3604ZM29.0771 51.3604H32.2451V48.3721H34.0693V51.3604H37.2373V42.96H34.0693V45.8281H32.2451V42.96H29.0771V51.3604ZM37.9551 45.5039H40.1504V51.3604H43.3184V45.5039H45.5146V42.96H37.9551V45.5039ZM46.4736 48.3604H49.1133V42.96H46.4736V48.3604ZM38.4648 12.4385L30 20.8984L21.5361 12.4385L12.4844 6.25098L18.7012 15.2803L27.1611 23.7363L18.4395 32.4551L17.0488 30.4082C16.9907 30.3229 16.8697 30.311 16.7979 30.3828L15.9482 31.2314C15.8916 31.2881 15.886 31.3789 15.9346 31.4443L18.2773 34.5996L13.4365 39.5293C13.1007 39.4522 12.7362 39.5422 12.4775 39.8008C12.0748 40.2037 12.0798 40.8631 12.4893 41.2734C12.8988 41.6839 13.5579 41.6899 13.9609 41.2871C14.2331 41.0151 14.3187 40.6257 14.2197 40.2754L19.1211 35.4668L22.3047 37.8291C22.37 37.8775 22.46 37.8719 22.5166 37.8154L23.3662 36.9658C23.438 36.8938 23.4254 36.7729 23.3398 36.7148L21.2637 35.3076L30 26.5742L38.7373 35.3076L36.6611 36.7148C36.5754 36.773 36.5627 36.8938 36.6348 36.9658L37.4834 37.8154C37.54 37.872 37.631 37.8776 37.6963 37.8291L40.8799 35.4668L45.7803 40.2754C45.6814 40.6257 45.767 41.0151 46.0391 41.2871C46.4421 41.6899 47.1012 41.6837 47.5107 41.2734C47.9203 40.863 47.9254 40.2037 47.5225 39.8008C47.2638 39.5423 46.9002 39.4522 46.5645 39.5293L41.7227 34.5996L44.0664 31.4443C44.115 31.3789 44.1084 31.2881 44.0518 31.2314L43.2021 30.3828C43.1304 30.3111 43.0104 30.3231 42.9521 30.4082L41.5605 32.4551L32.8389 23.7363L41.2988 15.2803L47.5156 6.25098L38.4648 12.4385Z" fill="url(#paint0_linear_2222_680)"/>
</g>
<g filter="url(#filter1_i_2222_680)">
<path d="M48 4C51.3137 4 54 6.68629 54 10V48C54 51.3137 51.3137 54 48 54H10C6.68629 54 4 51.3137 4 48V10C4 6.68629 6.68629 4 10 4H48ZM24.8828 41.4199C24.283 41.4199 23.7193 41.5002 23.1914 41.6602C22.6715 41.8201 22.2115 42.0721 21.8115 42.416C21.4195 42.752 21.1107 43.1839 20.8867 43.7119C20.6707 44.2399 20.5635 44.8761 20.5635 45.6201V45.8604C20.5635 46.8441 20.7511 47.656 21.127 48.2959C21.511 48.9359 22.0315 49.4116 22.6875 49.7236C23.3515 50.0276 24.1034 50.1797 24.9434 50.1797C25.4712 50.1797 25.979 50.1041 26.4668 49.9521C26.9628 49.7922 27.4068 49.5477 27.7988 49.2197C28.1988 48.8917 28.5114 48.472 28.7354 47.96C28.9673 47.44 29.083 46.8196 29.083 46.0996V45.3682H25.1836V47.0723H26.0596C26.0036 47.1763 25.9308 47.2724 25.8428 47.3604C25.7629 47.4401 25.659 47.5038 25.5312 47.5518C25.4113 47.5917 25.2553 47.6123 25.0635 47.6123C24.8555 47.6123 24.6707 47.5796 24.5107 47.5156C24.359 47.4437 24.2271 47.3361 24.1152 47.1924C24.0113 47.0484 23.931 46.8682 23.875 46.6523C23.827 46.4284 23.8028 46.1642 23.8027 45.8604V45.6201C23.8027 45.2202 23.8392 44.9001 23.9111 44.6602C23.9911 44.4202 24.1068 44.2476 24.2588 44.1436C24.4108 44.0396 24.5992 43.9883 24.8232 43.9883C24.9672 43.9883 25.0913 44.0116 25.1953 44.0596C25.3073 44.0996 25.4034 44.1677 25.4834 44.2637C25.5633 44.3516 25.6231 44.4638 25.6631 44.5996H28.9033C28.8313 44.0319 28.6707 43.5483 28.4229 43.1484C28.1749 42.7485 27.8632 42.42 27.4873 42.1641C27.1193 41.9081 26.7107 41.7196 26.2627 41.5996C25.8149 41.4797 25.3546 41.4199 24.8828 41.4199ZM48.6338 47.2998C48.2338 47.2998 47.8933 47.436 47.6133 47.708C47.3334 47.98 47.1934 48.3244 47.1934 48.7402C47.1934 49.004 47.2579 49.2478 47.3857 49.4717C47.5137 49.6876 47.6854 49.8603 47.9014 49.9883C48.1254 50.1163 48.3698 50.1797 48.6338 50.1797C48.9058 50.1797 49.1502 50.1163 49.3662 49.9883C49.5821 49.8603 49.7539 49.6876 49.8818 49.4717C50.0097 49.2478 50.0742 49.004 50.0742 48.7402C50.0742 48.3242 49.9333 47.98 49.6533 47.708C49.3734 47.4362 49.0337 47.2998 48.6338 47.2998ZM9.48047 50H12.6484V47.2998H15.4199V45.1162H12.6484V43.9043H15.7803V41.5996H9.48047V50ZM16.501 50H19.6689V41.5996H16.501V50ZM29.918 50H33.0859V47.0117H34.9092V50H38.0771V41.5996H34.9092V44.4678H33.0859V41.5996H29.918V50ZM38.7949 44.1436H40.9902V50H44.1582V44.1436H46.3545V41.5996H38.7949V44.1436ZM47.3135 47H49.9541V41.5996H47.3135V47ZM37.1396 12.1143L29 20.249L20.8613 12.1143L12.1582 6.16504L18.1357 14.8457L26.2705 22.9775L17.8838 31.3613L16.5469 29.3926C16.491 29.3106 16.3747 29.2983 16.3057 29.3672L15.4893 30.1846C15.4348 30.239 15.4289 30.3257 15.4756 30.3887L17.7285 33.4229L13.0732 38.1631C12.7503 38.0889 12.4001 38.1752 12.1514 38.4238C11.7642 38.8113 11.7694 39.4453 12.1631 39.8398C12.5569 40.2344 13.1906 40.2399 13.5781 39.8525C13.8396 39.591 13.9222 39.2167 13.8271 38.8799L18.5391 34.2559L21.6006 36.5283C21.6634 36.5749 21.7503 36.569 21.8047 36.5146L22.6211 35.6982C22.6903 35.629 22.6781 35.5129 22.5957 35.457L20.5996 34.1035L29 25.7051L37.4014 34.1035L35.4043 35.457C35.3223 35.513 35.3099 35.6291 35.3789 35.6982L36.1963 36.5146C36.2506 36.5688 36.3367 36.5746 36.3994 36.5283L39.4609 34.2559L44.1738 38.8799C44.0787 39.2167 44.1612 39.591 44.4229 39.8525C44.8103 40.2398 45.4431 40.2341 45.8369 39.8398C46.2307 39.4452 46.236 38.8112 45.8486 38.4238C45.5999 38.1752 45.2497 38.0889 44.9268 38.1631L40.2725 33.4229L42.5254 30.3887C42.5721 30.3258 42.566 30.239 42.5117 30.1846L41.6943 29.3672C41.6253 29.2986 41.51 29.3109 41.4541 29.3926L40.1162 31.3613L31.7285 22.9775L39.8643 14.8457L45.8418 6.16504L37.1396 12.1143Z" fill="url(#paint1_linear_2222_680)"/>
</g>
<defs>
<filter id="filter0_f_2222_680" x="0" y="0" width="60" height="60" filterUnits="userSpaceOnUse" color-interpolation-filters="sRGB">
<feFlood flood-opacity="0" result="BackgroundImageFix"/>
<feBlend mode="normal" in="SourceGraphic" in2="BackgroundImageFix" result="shape"/>
<feGaussianBlur stdDeviation="2" result="effect1_foregroundBlur_2222_680"/>
</filter>
<filter id="filter1_i_2222_680" x="4" y="4" width="50" height="54" filterUnits="userSpaceOnUse" color-interpolation-filters="sRGB">
<feFlood flood-opacity="0" result="BackgroundImageFix"/>
<feBlend mode="normal" in="SourceGraphic" in2="BackgroundImageFix" result="shape"/>
<feColorMatrix in="SourceAlpha" type="matrix" values="0 0 0 0 0 0 0 0 0 0 0 0 0 0 0 0 0 0 127 0" result="hardAlpha"/>
<feOffset dy="4"/>
<feGaussianBlur stdDeviation="2"/>
<feComposite in2="hardAlpha" operator="arithmetic" k2="-1" k3="1"/>
<feColorMatrix type="matrix" values="0 0 0 0 0 0 0 0 0 0 0 0 0 0 0 0 0 0 0.25 0"/>
<feBlend mode="normal" in2="shape" result="effect1_innerShadow_2222_680"/>
</filter>
<linearGradient id="paint0_linear_2222_680" x1="30" y1="4" x2="30" y2="56" gradientUnits="userSpaceOnUse">
<stop stop-color="#A7A7A7"/>
<stop offset="1" stop-color="#A7A7A7"/>
</linearGradient>
<linearGradient id="paint1_linear_2222_680" x1="29" y1="4" x2="29" y2="54" gradientUnits="userSpaceOnUse">
<stop stop-color="#A7A7A7"/>
<stop offset="1" stop-color="#A7A7A7"/>
</linearGradient>
</defs>
</svg>
