<svg width="218" height="223" viewBox="0 0 218 223" fill="none" xmlns="http://www.w3.org/2000/svg">
<path d="M136.491 167.269V154.783M136.491 145.033V138.021" stroke="white" stroke-width="3.07876"/>
<path d="M157.201 167.769L157.519 120.391C157.525 119.451 158.289 118.692 159.229 118.692H160.721C161.688 118.692 162.463 119.494 162.43 120.461L160.831 167.818C160.802 168.678 160.139 169.382 159.283 169.463L159.073 169.483C158.064 169.579 157.194 168.782 157.201 167.769Z" stroke="white" stroke-width="3.07876"/>
<path d="M114.492 2.14783C68.9858 24.2606 66.1064 25.1499 60.9522 28.1189C60.4829 28.3892 60.1724 28.8709 60.1148 29.4094L52.937 96.5426L45.8275 163.038C45.7361 163.892 46.2873 164.681 47.1229 164.882C72.3867 170.959 104.836 178.937 126.236 183.71C127.346 183.958 128.38 183.069 128.308 181.934L116.983 3.56072C116.906 2.34673 115.586 1.61617 114.492 2.14783Z" stroke="white" stroke-width="3.07876"/>
<path d="M143.2 179.037C136.255 180.839 131.301 181.37 129.195 181.387C128.528 181.392 128.125 180.867 128.147 180.2L130.677 101.589C132.578 61.948 122.176 29.9168 118.282 18.725C118.219 18.5438 118.191 18.3648 118.191 18.1729V13.6337C118.191 12.5789 119.136 11.7756 120.177 11.9456L143.744 15.7964C144.142 15.8615 144.502 16.0568 144.752 16.3736C152.65 26.3953 155.055 54.4442 153.597 68.7491L144.461 177.535C144.4 178.252 143.896 178.857 143.2 179.037Z" stroke="white" stroke-width="3.07876"/>
<path d="M145.214 16.5805C149.986 14.9559 162.263 4.42534 168.76 1.65477C169.791 1.21482 170.725 2.10053 170.576 3.21222C168.003 22.4828 164.713 47.7783 161.576 73.0243M161.576 73.0243C155.474 122.122 148.816 177.355 150.213 181.735C150.272 181.92 150.387 182.069 150.519 182.211C152.05 183.869 159.176 184.322 166.695 178.032C167.069 177.719 167.28 177.273 167.282 176.785C167.423 145.879 164.651 78.8608 161.576 73.0243Z" stroke="white" stroke-width="3.07876"/>
<path d="M6.73114 125.645L5.96138 129.322M5.96138 129.322L5.81313 130.031C5.54018 131.335 3.95559 131.81 3.22161 130.698C-1.34077 123.787 4.37089 115.711 8.56122 112.274C8.81571 112.066 9.01349 111.797 9.12399 111.487L15.1122 94.6865C24.1855 74.5603 44.4998 84.4034 51.6087 89.1176C52.073 89.4255 52.3387 89.9499 52.3387 90.5069C52.3387 95.642 52.3387 98.2404 52.3387 102.861C52.3387 104.186 50.8831 105.008 49.7162 104.379C29.8086 93.6443 20.9388 101.632 19.4442 109.293C19.2046 110.521 20.4143 112.73 21.3853 113.519C22.9396 114.782 24.98 116.535 26.3031 117.692C26.3692 117.749 26.431 117.813 26.4865 117.881C29.9043 122.086 26.6117 126.141 24.5194 127.653M5.96138 129.322C6.50001 131.4 8.49263 135.043 12.3754 134.655C13.1853 134.575 13.6825 133.786 13.5973 132.977L13.4016 131.118M13.0596 127.869L13.4016 131.118M13.4016 131.118C13.7421 134.694 19.2677 139.014 24.4464 131.229C24.4939 131.158 24.5378 131.08 24.5709 131.001C24.9305 130.144 25.1636 128.776 24.5194 127.653M21.038 125.735L21.9537 125.987C23.3146 126.301 24.1015 126.926 24.5194 127.653M21.038 125.735L21.9537 121.882M21.038 125.735L20.2433 129.066" stroke="white" stroke-width="3.07876" stroke-linecap="round"/>
<path d="M211.147 124.919L211.916 128.597M211.916 128.597L212.065 129.305C212.338 130.609 213.922 131.084 214.656 129.973C219.219 123.062 213.507 114.985 209.317 111.549C209.062 111.34 208.864 111.071 208.754 110.761L202.766 93.9609C193.692 73.8347 173.378 83.6778 166.269 88.3921C165.805 88.6999 165.539 89.2243 165.539 89.7813C165.539 94.9164 165.539 97.5149 165.539 102.135C165.539 103.461 166.995 104.282 168.162 103.653C188.069 92.9188 196.939 100.907 198.434 108.567C198.673 109.795 197.464 112.004 196.493 112.794C194.938 114.057 192.898 115.81 191.575 116.966C191.509 117.024 191.447 117.087 191.391 117.155C187.974 121.36 191.266 125.416 193.358 126.928M211.916 128.597C211.378 130.675 209.385 134.317 205.502 133.93C204.693 133.849 204.195 133.061 204.281 132.251L204.476 130.393M204.818 127.143L204.476 130.393M204.476 130.393C204.136 133.968 198.61 138.289 193.431 130.503C193.384 130.432 193.34 130.354 193.307 130.275C192.947 129.418 192.714 128.05 193.358 126.928M196.84 125.009L195.924 125.262C194.563 125.576 193.776 126.2 193.358 126.928M196.84 125.009L195.924 121.157M196.84 125.009L197.635 128.34" stroke="white" stroke-width="3.07876" stroke-linecap="round"/>
<path d="M76.6224 205.58L88.7086 177.17C89.0389 176.393 89.8862 175.974 90.704 176.182L97.4252 177.89C98.4469 178.15 98.9927 179.263 98.5724 180.23L82.7044 216.726C82.4394 217.336 81.8452 217.737 81.1808 217.754L58.1137 218.361C57.1193 218.387 56.2996 217.555 56.4802 216.576C58.1405 207.582 68.5372 206.141 74.8178 206.642C75.5849 206.703 76.3211 206.288 76.6224 205.58Z" stroke="white" stroke-width="3.07876"/>
<path d="M150.004 196.003C151.236 190.803 145.557 182.32 141.281 179.583L155.649 184.543C165.753 188.519 160.564 201.21 156.861 207.082C156.713 207.316 156.894 207.625 157.171 207.622C170.872 207.49 174.494 214.482 174.692 219.13C174.729 219.991 173.988 220.633 173.127 220.633H144.167C143 220.633 142.175 219.489 142.545 218.382L150.004 196.003Z" stroke="white" stroke-width="3.07876"/>
<path d="M71.3919 28.624C72.615 28.9009 74.1439 29.3645 75.0414 29.6582C76.3121 30.0979 77.0812 30.5647 77.5453 31.1631C78.0033 31.7538 78.2181 32.5436 78.2181 33.7549C78.2181 34.9067 77.8643 35.5707 77.4232 35.8721C77.0356 36.1368 76.4581 36.2027 75.7113 35.9111V31.6289C75.7113 31.3511 75.6882 31.017 75.5628 30.7188C75.4282 30.3985 75.1769 30.1264 74.7718 30.0088H74.7728C74.77 30.0079 74.7668 30.0077 74.764 30.0068C74.7613 30.0061 74.7589 30.0046 74.7562 30.0039H74.7552C74.5846 29.953 74.4013 29.9446 74.222 30.0029C74.0373 30.0631 73.8952 30.1806 73.7943 30.3154C73.6027 30.5717 73.5375 30.9123 73.5374 31.2295V42.0664L71.3919 41.3818V28.624ZM77.141 37.626C78.4315 37.4816 80.0074 37.6461 81.222 38.1016L81.2328 38.1055L81.2445 38.1094C81.9369 38.3297 82.214 38.5708 82.304 38.7148C82.3428 38.7769 82.3454 38.8173 82.3431 38.8418C82.3403 38.8706 82.3268 38.9163 82.2806 38.9746C82.1565 39.1296 81.9098 39.2936 81.6449 39.4307C81.5208 39.4948 81.4065 39.5461 81.3236 39.5811C81.2827 39.5983 81.2499 39.6115 81.2279 39.6201C81.217 39.6243 81.2086 39.6279 81.2035 39.6299C81.2009 39.6308 81.1985 39.6315 81.1976 39.6318L75.0658 41.8242V41.0479L79.7337 39.3848C79.9015 39.3259 80.0572 39.2541 80.1849 39.1641C80.3041 39.0799 80.4507 38.9445 80.513 38.7432C80.5879 38.5011 80.5092 38.2731 80.3646 38.1162C80.24 37.9811 80.0741 37.9022 79.9251 37.8525L79.9222 37.8516L79.8021 37.8164C79.5151 37.7441 79.1781 37.7272 78.8587 37.7441C78.4875 37.7638 78.0925 37.8319 77.7572 37.9492H77.7562L75.0658 38.8945V38.0449C75.0784 38.0407 75.092 38.036 75.1068 38.0312C75.2097 37.998 75.3633 37.9516 75.557 37.9014C75.945 37.8007 76.4932 37.6848 77.1312 37.626V37.627L77.141 37.626ZM69.8353 37.7783L66.9593 38.8145C66.7924 38.8732 66.6382 38.9456 66.5111 39.0352C66.3917 39.1193 66.2444 39.2553 66.182 39.457C66.1072 39.699 66.1859 39.9271 66.3304 40.084C66.4551 40.2192 66.6218 40.298 66.7708 40.3477C67.0765 40.4495 67.4646 40.4771 67.8304 40.459C68.2019 40.4406 68.6013 40.3726 68.9378 40.2471L68.9369 40.2461L69.8353 39.9248V40.458C68.3949 40.6751 66.8751 40.5862 65.3744 40.0742L65.3597 40.0693L65.3441 40.0654L65.1048 39.9932C64.5896 39.816 64.3688 39.5919 64.3011 39.4521C64.2671 39.3819 64.2685 39.3291 64.2816 39.2852C64.2961 39.2366 64.3364 39.162 64.4408 39.0811L64.4417 39.082C64.7108 38.8812 65.0936 38.6968 65.431 38.5586C65.5954 38.4913 65.7417 38.4378 65.846 38.4014C65.8979 38.3833 65.9393 38.3695 65.9671 38.3604C65.981 38.3558 65.9916 38.3528 65.9984 38.3506C66.0018 38.3495 66.0047 38.3481 66.0062 38.3477H66.0072L66.0247 38.3418L69.8353 36.998V37.7783Z" fill="white" stroke="white" stroke-width="0.949349"/>
<path d="M91.9259 78.6543C102.085 78.6543 110.321 86.8902 110.321 97.0498C110.321 107.209 102.086 115.445 91.9259 115.445C81.7663 115.445 73.5304 107.209 73.5304 97.0498C73.5305 86.8903 81.7664 78.6544 91.9259 78.6543ZM92.1857 86.3145C87.7702 86.3145 84.1906 91.0873 84.1906 96.9746C84.1906 102.862 87.7702 107.635 92.1857 107.635C96.6011 107.635 100.181 102.862 100.181 96.9746C100.181 91.0873 96.6011 86.3146 92.1857 86.3145Z" fill="white"/>
</svg>
