<svg width="117" height="117" viewBox="0 0 117 117" fill="none" xmlns="http://www.w3.org/2000/svg">
<path d="M116.655 8.31636C116.655 3.72326 112.927 -0.000194622 108.328 -0.000195296L33.3781 -0.000197991C28.7789 -0.000200687 25.0504 3.72325 25.0504 8.31636C25.0504 12.9095 28.7789 16.6329 33.3781 16.6329L100 16.6329L100 83.1654C100 87.7585 103.728 91.4819 108.328 91.4819C112.927 91.4819 116.655 87.7585 116.655 83.1654L116.655 8.31636ZM8.32776 108.182L14.2164 114.063L114.216 14.1971L108.328 8.31636L102.439 2.43567L2.43916 102.301L8.32776 108.182Z" fill="white"/>
<path d="M8.32776 108.182L108.328 8.31636" stroke="white" stroke-width="16.6443" stroke-linecap="round" stroke-linejoin="round"/>
</svg>
