<svg width="37" height="40" viewBox="0 0 37 40" fill="none" xmlns="http://www.w3.org/2000/svg">
<g opacity="0.75" filter="url(#filter0_f_2199_604)">
<path d="M8.79919 11.8525C8.79919 12.9339 9.6211 13.8237 10.6742 13.9307L10.8881 13.9414H10.9965L11.2103 13.9307C12.1931 13.8307 12.9749 13.0493 13.0746 12.0664L13.0853 11.8525V10.5576H15.9418V11.8525C15.9418 12.9338 16.7638 13.8236 17.8168 13.9307L18.0306 13.9414H18.139L18.3529 13.9307C19.3357 13.8307 20.1174 13.0493 20.2172 12.0664L20.2279 11.8525V10.5576H23.0844V11.8525C23.0844 12.9337 23.9064 13.8235 24.9594 13.9307L25.1732 13.9414H25.2816L25.4955 13.9307C26.4783 13.8307 27.26 13.0493 27.3597 12.0664L27.3705 11.8525V10.5576H30.3256V33.3252H6.55798V10.5576H8.79919V11.8525ZM25.0599 26.2656C24.6538 26.2656 24.3246 26.5949 24.3246 27.001V27.7168H23.5804C23.1797 27.7168 22.8541 28.0417 22.8539 28.4424C22.8539 28.8433 23.1796 29.1689 23.5804 29.1689H24.3246V29.8848C24.3246 30.2909 24.6538 30.6201 25.0599 30.6201C25.4659 30.6199 25.7953 30.2907 25.7953 29.8848V29.1689H26.5404C26.9411 29.1688 27.266 28.8431 27.266 28.4424C27.2658 28.0418 26.941 27.717 26.5404 27.7168H25.7953V27.001C25.7953 26.595 25.4659 26.2658 25.0599 26.2656ZM9.38416 21.6758C9.06134 21.6758 8.79942 21.937 8.79919 22.2598V22.6904C8.79919 23.0134 9.0612 23.2754 9.38416 23.2754H13.9291C14.2519 23.2752 14.5131 23.0133 14.5131 22.6904V22.2598C14.5128 21.9371 14.2517 21.676 13.9291 21.6758H9.38416ZM9.38416 18.4756C9.0612 18.4756 8.79919 18.7376 8.79919 19.0605V19.4902C8.79919 19.8132 9.0612 20.0752 9.38416 20.0752H19.6429C19.9659 20.0752 20.2279 19.8132 20.2279 19.4902V19.0605C20.2279 18.7376 19.9659 18.4756 19.6429 18.4756H9.38416ZM9.38416 15.2754C9.0612 15.2754 8.79919 15.5374 8.79919 15.8604V16.291C8.79937 16.6138 9.06131 16.875 9.38416 16.875H25.3568C25.6797 16.875 25.9416 16.6138 25.9418 16.291V15.8604C25.9418 15.5374 25.6798 15.2754 25.3568 15.2754H9.38416ZM10.9965 7.17383C11.4691 7.17383 11.8519 7.55759 11.8519 8.03027V11.8525C11.8519 12.3252 11.4691 12.709 10.9965 12.709H10.8881C10.4154 12.7089 10.0316 12.3252 10.0316 11.8525V8.03027C10.0316 7.55763 10.4154 7.17389 10.8881 7.17383H10.9965ZM18.139 7.17383C18.6117 7.17383 18.9945 7.55759 18.9945 8.03027V11.8525C18.9945 12.3252 18.6117 12.709 18.139 12.709H18.0306C17.5581 12.7088 17.1742 12.3251 17.1742 11.8525V8.03027C17.1742 7.55769 17.5581 7.17398 18.0306 7.17383H18.139ZM25.2816 7.17383C25.7543 7.17383 26.1371 7.55759 26.1371 8.03027V11.8525C26.1371 12.3252 25.7543 12.709 25.2816 12.709H25.1732C24.7007 12.7087 24.3168 12.3251 24.3168 11.8525V8.03027C24.3168 7.55774 24.7007 7.17407 25.1732 7.17383H25.2816ZM10.6742 5.95215C9.6211 6.05912 8.79919 6.94895 8.79919 8.03027V9.3252H5.94177V5.94141H10.8881L10.6742 5.95215ZM17.8168 5.95215C16.7638 6.05919 15.9418 6.94901 15.9418 8.03027V9.3252H13.0853V8.03027C13.0853 6.94905 12.2633 6.05925 11.2103 5.95215L10.9965 5.94141H18.0306L17.8168 5.95215ZM24.9594 5.95215C23.9064 6.05927 23.0844 6.94907 23.0844 8.03027V9.3252H20.2279V8.03027C20.2279 6.94905 19.4059 6.05925 18.3529 5.95215L18.139 5.94141H25.1732L24.9594 5.95215ZM30.9418 9.3252H27.3705V8.03027C27.3705 6.94905 26.5484 6.05925 25.4955 5.95215L25.2816 5.94141H30.9418V9.3252Z" fill="#A7A7A7"/>
</g>
<g filter="url(#filter1_i_2199_604)">
<path d="M8.79919 11.8525C8.79919 12.9339 9.6211 13.8237 10.6742 13.9307L10.8881 13.9414H10.9965L11.2103 13.9307C12.1931 13.8307 12.9749 13.0493 13.0746 12.0664L13.0853 11.8525V10.5576H15.9418V11.8525C15.9418 12.9338 16.7638 13.8236 17.8168 13.9307L18.0306 13.9414H18.139L18.3529 13.9307C19.3357 13.8307 20.1174 13.0493 20.2172 12.0664L20.2279 11.8525V10.5576H23.0844V11.8525C23.0844 12.9337 23.9064 13.8235 24.9594 13.9307L25.1732 13.9414H25.2816L25.4955 13.9307C26.4783 13.8307 27.26 13.0493 27.3597 12.0664L27.3705 11.8525V10.5576H30.3256V33.3252H6.55798V10.5576H8.79919V11.8525ZM25.0599 26.2656C24.6538 26.2656 24.3246 26.5949 24.3246 27.001V27.7168H23.5804C23.1797 27.7168 22.8541 28.0417 22.8539 28.4424C22.8539 28.8433 23.1796 29.1689 23.5804 29.1689H24.3246V29.8848C24.3246 30.2909 24.6538 30.6201 25.0599 30.6201C25.4659 30.6199 25.7953 30.2907 25.7953 29.8848V29.1689H26.5404C26.9411 29.1688 27.266 28.8431 27.266 28.4424C27.2658 28.0418 26.941 27.717 26.5404 27.7168H25.7953V27.001C25.7953 26.595 25.4659 26.2658 25.0599 26.2656ZM9.38416 21.6758C9.06134 21.6758 8.79942 21.937 8.79919 22.2598V22.6904C8.79919 23.0134 9.0612 23.2754 9.38416 23.2754H13.9291C14.2519 23.2752 14.5131 23.0133 14.5131 22.6904V22.2598C14.5128 21.9371 14.2517 21.676 13.9291 21.6758H9.38416ZM9.38416 18.4756C9.0612 18.4756 8.79919 18.7376 8.79919 19.0605V19.4902C8.79919 19.8132 9.0612 20.0752 9.38416 20.0752H19.6429C19.9659 20.0752 20.2279 19.8132 20.2279 19.4902V19.0605C20.2279 18.7376 19.9659 18.4756 19.6429 18.4756H9.38416ZM9.38416 15.2754C9.0612 15.2754 8.79919 15.5374 8.79919 15.8604V16.291C8.79937 16.6138 9.06131 16.875 9.38416 16.875H25.3568C25.6797 16.875 25.9416 16.6138 25.9418 16.291V15.8604C25.9418 15.5374 25.6798 15.2754 25.3568 15.2754H9.38416ZM10.9965 7.17383C11.4691 7.17383 11.8519 7.55759 11.8519 8.03027V11.8525C11.8519 12.3252 11.4691 12.709 10.9965 12.709H10.8881C10.4154 12.7089 10.0316 12.3252 10.0316 11.8525V8.03027C10.0316 7.55763 10.4154 7.17389 10.8881 7.17383H10.9965ZM18.139 7.17383C18.6117 7.17383 18.9945 7.55759 18.9945 8.03027V11.8525C18.9945 12.3252 18.6117 12.709 18.139 12.709H18.0306C17.5581 12.7088 17.1742 12.3251 17.1742 11.8525V8.03027C17.1742 7.55769 17.5581 7.17398 18.0306 7.17383H18.139ZM25.2816 7.17383C25.7543 7.17383 26.1371 7.55759 26.1371 8.03027V11.8525C26.1371 12.3252 25.7543 12.709 25.2816 12.709H25.1732C24.7007 12.7087 24.3168 12.3251 24.3168 11.8525V8.03027C24.3168 7.55774 24.7007 7.17407 25.1732 7.17383H25.2816ZM10.6742 5.95215C9.6211 6.05912 8.79919 6.94895 8.79919 8.03027V9.3252H5.94177V5.94141H10.8881L10.6742 5.95215ZM17.8168 5.95215C16.7638 6.05919 15.9418 6.94901 15.9418 8.03027V9.3252H13.0853V8.03027C13.0853 6.94905 12.2633 6.05925 11.2103 5.95215L10.9965 5.94141H18.0306L17.8168 5.95215ZM24.9594 5.95215C23.9064 6.05927 23.0844 6.94907 23.0844 8.03027V9.3252H20.2279V8.03027C20.2279 6.94905 19.4059 6.05925 18.3529 5.95215L18.139 5.94141H25.1732L24.9594 5.95215ZM30.9418 9.3252H27.3705V8.03027C27.3705 6.94905 26.5484 6.05925 25.4955 5.95215L25.2816 5.94141H30.9418V9.3252Z" fill="#A7A7A7"/>
</g>
<defs>
<filter id="filter0_f_2199_604" x="-1.57356e-05" y="-0.000381947" width="36.8836" height="39.2674" filterUnits="userSpaceOnUse" color-interpolation-filters="sRGB">
<feFlood flood-opacity="0" result="BackgroundImageFix"/>
<feBlend mode="normal" in="SourceGraphic" in2="BackgroundImageFix" result="shape"/>
<feGaussianBlur stdDeviation="2.97089" result="effect1_foregroundBlur_2199_604"/>
</filter>
<filter id="filter1_i_2199_604" x="5.94177" y="5.94141" width="25" height="33.3256" filterUnits="userSpaceOnUse" color-interpolation-filters="sRGB">
<feFlood flood-opacity="0" result="BackgroundImageFix"/>
<feBlend mode="normal" in="SourceGraphic" in2="BackgroundImageFix" result="shape"/>
<feColorMatrix in="SourceAlpha" type="matrix" values="0 0 0 0 0 0 0 0 0 0 0 0 0 0 0 0 0 0 127 0" result="hardAlpha"/>
<feOffset dy="5.94179"/>
<feGaussianBlur stdDeviation="2.97089"/>
<feComposite in2="hardAlpha" operator="arithmetic" k2="-1" k3="1"/>
<feColorMatrix type="matrix" values="0 0 0 0 1 0 0 0 0 1 0 0 0 0 1 0 0 0 0.25 0"/>
<feBlend mode="normal" in2="shape" result="effect1_innerShadow_2199_604"/>
</filter>
</defs>
</svg>
