<svg width="11" height="15" viewBox="0 0 11 15" fill="none" xmlns="http://www.w3.org/2000/svg">
<path d="M6.2206 9.88077C5.84045 8.3312 5.10622 4.85265 4.90218 2.11323C4.83735 1.24281 5.54884 0.544922 6.42167 0.544922C7.4723 0.544922 8.23961 1.53765 7.97483 2.55438L7.91939 2.76724C7.82166 3.14251 7.57454 3.48502 7.50746 3.86696C7.25886 5.28265 8.54596 8.77908 9.59263 11.38C10.0153 12.4302 9.40693 13.6053 8.29332 13.8089C6.1733 14.1966 3.01468 14.6591 1.47957 14.3153C-0.254751 13.8485 0.657086 11.7479 2.32282 10.8144C3.59327 10.1023 6.33449 10.1142 6.2206 9.88077Z" fill="white" stroke="black" stroke-width="1.08994" stroke-linecap="round"/>
<path d="M5.29688 4.11154L6.94184 3.92383" stroke="black" stroke-width="1.08994" stroke-linecap="round"/>
<path d="M5.29688 4.93227L7.12462 4.20117" stroke="black" stroke-width="1.08994" stroke-linecap="round"/>
<path d="M5.48047 3.54883H7.30821" stroke="black" stroke-width="1.08994" stroke-linecap="round"/>
</svg>
