<svg width="147" height="147" viewBox="0 0 147 147" fill="none" xmlns="http://www.w3.org/2000/svg">
<path d="M64.5152 87.7705C65.0255 88.7395 66.1635 89.1424 67.0569 88.6704C67.6303 88.3675 67.9631 87.7778 67.9934 87.138L78.8811 81.5225L83.1963 87.5485C83.2858 87.6734 83.445 87.7167 83.5706 87.6504L85.4541 86.6553C85.6134 86.5712 85.6504 86.3504 85.5308 86.1966L82.6686 82.516L127.057 59.0653L142.174 46.7586L123.525 52.3586L79.113 75.822L77.6907 71.3111C77.632 71.1249 77.4288 71.0301 77.2691 71.1145L75.3861 72.1093C75.2607 72.1755 75.2065 72.3312 75.2584 72.4755L77.7925 79.5144L67.0845 85.3072C66.5268 84.9231 65.8122 84.8424 65.209 85.1611C64.3155 85.6332 64.0049 86.8014 64.5152 87.7705Z" fill="white" stroke="black" stroke-width="1.15556"/>
<path d="M13.716 57.325C16.6089 51.3646 22.9928 41.5001 29.716 41.0822C30.1321 41.0563 30.5375 41.1777 30.9015 41.381C34.4315 43.352 41.4575 47.0139 45.6356 48.2774C45.8109 48.3304 45.9893 48.3638 46.1723 48.3568C47.5843 48.3028 50.7613 47.2962 54.6766 43.6629C55.4823 42.9153 56.6642 42.6937 57.5347 43.3648C59.1646 44.6213 61.0418 46.6069 62.262 48.3545C66.7805 54.1001 64.2607 70.6187 72.974 73.2133C74.3243 73.6154 75.5 74.7003 75.5 76.1093V78.7068C75.5 79.2399 75.2307 79.746 74.7889 80.0445C72.502 81.5901 70.815 82.5443 69.5931 83.1568C68.7211 83.5939 65.0728 82.8874 64.5451 82.0669C64.4785 81.9634 64.4357 81.8464 64.4197 81.7244L60.6256 52.7738L63.0803 85.0311C63.0803 85.8387 61.6563 86.688 59.2618 87.4386C53.4522 89.2598 40.7492 90.2926 29.989 88.9438C28.974 88.8166 28.0455 88.6564 27.1259 88.4718C25.7137 88.1884 24.8587 86.7595 25.2161 85.3642C27.0344 78.2651 29.587 67.0908 27.0779 63.9616C19.9301 64.1364 15.7457 61.5094 13.943 59.5336C13.394 58.932 13.3604 58.0577 13.716 57.325Z" fill="#1E8C62"/>
<path d="M60.6256 52.7738L64.4197 81.7244C64.4357 81.8464 64.4785 81.9634 64.5451 82.0669C65.0728 82.8874 68.7211 83.5939 69.5931 83.1568C70.815 82.5443 72.502 81.5901 74.7889 80.0445C75.2307 79.746 75.5 79.2399 75.5 78.7068V76.1093C75.5 74.7003 74.3243 73.6154 72.974 73.2133C64.2607 70.6187 66.7805 54.1001 62.262 48.3545C61.0418 46.6069 59.1646 44.6213 57.5347 43.3648C56.6642 42.6937 55.4823 42.9153 54.6766 43.6629C50.7613 47.2962 47.5843 48.3028 46.1723 48.3568C45.9893 48.3638 45.8109 48.3304 45.6356 48.2774C41.4575 47.0139 34.4315 43.352 30.9015 41.381C30.5375 41.1777 30.1321 41.0563 29.716 41.0822C22.9928 41.5001 16.6089 51.3646 13.716 57.325C13.3604 58.0577 13.394 58.932 13.943 59.5336C15.7457 61.5094 19.9301 64.1364 27.0779 63.9616M60.6256 52.7738L63.0803 85.0311C63.0803 85.8387 61.6563 86.688 59.2618 87.4386M60.6256 52.7738V52.2536M29.989 88.9438C28.974 88.8166 28.0455 88.6564 27.1259 88.4718C25.7137 88.1884 24.8587 86.7595 25.2161 85.3642C27.0344 78.2651 29.587 67.0908 27.0779 63.9616M29.989 88.9438L30.9997 84.0333C31.1097 83.4988 31.3901 83.017 31.7815 82.6367C33.0343 81.4194 34.8146 79.4408 35.8662 77.5199C36.4318 76.4867 37.4536 75.6669 38.6315 75.6669H52.7666C54.0005 75.6669 55.0464 76.5537 55.3858 77.74C55.799 79.1846 56.4098 80.7762 57.2042 81.8682C58.033 83.0077 59.2618 84.3525 59.2618 85.7615V87.4386M29.989 88.9438C40.7492 90.2926 53.4522 89.2598 59.2618 87.4386M27.0779 63.9616L30.3508 58.4991" stroke="black" stroke-width="1.11613" stroke-linecap="round"/>
<path d="M48.8801 53.4902C48.8801 54.2049 48.3008 54.7842 47.5862 54.7842C46.8715 54.7842 46.2922 54.2049 46.2922 53.4902C46.2922 52.7756 46.8715 52.1963 47.5862 52.1963C48.3008 52.1963 48.8801 52.7756 48.8801 53.4902Z" fill="#1E8C62"/>
<path d="M47.5862 52.1963C46.8715 52.1963 46.2922 52.7756 46.2922 53.4902C46.2922 54.2049 46.8715 54.7842 47.5862 54.7842C48.3008 54.7842 48.8801 54.2049 48.8801 53.4902C48.8801 52.7756 48.3008 52.1963 47.5862 52.1963ZM47.5862 52.1963V44.9503" stroke="black" stroke-width="1.11795"/>
<path d="M22.1855 29.5267C22.4595 31.6043 26.6464 35.9553 29.6683 38.4618C30.1658 38.8744 30.4667 39.4804 30.4667 40.1266C30.4667 40.9245 30.922 41.6524 31.6395 42.0015L40.0417 46.0891C45.3843 48.261 46.992 48.3135 50.6737 46.6314C50.8575 46.5474 51.0335 46.4384 51.1906 46.3115C58.0386 40.7778 59.8461 34.8532 60.2126 33.296C60.2516 33.1301 60.2674 32.9605 60.2673 32.7901C60.2663 30.0731 60.2365 23.3108 59.3058 17.2122C59.2584 16.9015 59.1517 16.6033 58.9946 16.331L55.821 10.8301C55.517 10.3032 55.4083 9.68615 55.514 9.08715L55.9285 6.73855C56.0548 6.02285 55.8824 5.2754 55.3925 4.73857C50.1897 -0.96281 42.4281 0.57847 40.0417 1.3191C23.2723 5.04561 21.1503 21.6769 22.1855 29.5267Z" fill="white" stroke="black" stroke-width="1.11613"/>
<path d="M43.1873 55.3021C43.1873 56.0167 42.608 56.596 41.8934 56.596C41.1788 56.596 40.5995 56.0167 40.5995 55.3021C40.5995 54.5875 41.1788 54.0082 41.8934 54.0082C42.608 54.0082 43.1873 54.5875 43.1873 55.3021Z" fill="#1E8C62"/>
<path d="M41.8934 54.0082C41.1788 54.0082 40.5995 54.5875 40.5995 55.3021C40.5995 56.0167 41.1788 56.596 41.8934 56.596C42.608 56.596 43.1873 56.0167 43.1873 55.3021C43.1873 54.5875 42.608 54.0082 41.8934 54.0082ZM41.8934 54.0082V45.2095" stroke="black" stroke-width="1.11795" stroke-linecap="round"/>
<path d="M46.8793 39.9393L47.2001 43.0281L47.3872 44.83L47.1156 45.0906C46.0879 46.0762 44.4571 46.0464 43.4661 45.024L33.6128 34.8584C32.8364 34.082 31.9364 33.1297 31.3996 31.9206C30.4153 29.7034 29.2135 27.2167 30.931 24.1639L30.7171 22.1047C30.5073 19.3312 30.931 7.50067 46.4391 5.64164L53.1316 4.94654C55.6174 4.82088 57.1775 5.59516 58.847 7.29294C59.331 7.78512 59.0338 8.59831 58.353 8.71178C57.4698 8.85897 57.2539 10.2439 57.991 10.7522C59.4927 11.7878 60.8194 13.1197 59.8387 14.0867C59.5456 14.3757 59.104 14.4303 58.694 14.3925L56.1272 14.1555L57.2792 32.3547C57.9386 38.2226 48.8811 39.7753 46.8793 39.9393Z" fill="white"/>
<path d="M46.8793 39.9393L47.2001 43.0282L47.3872 44.83M46.8793 39.9393C46.0124 39.9427 43.8399 39.7347 42.0856 38.8762M46.8793 39.9393C48.8811 39.7753 57.9386 38.2226 57.2792 32.3547L56.1272 14.1555M56.1272 14.1555L58.694 14.3924C59.104 14.4303 59.5456 14.3757 59.8387 14.0867C60.8194 13.1197 59.4927 11.7878 57.991 10.7522C57.2539 10.2439 57.4698 8.85897 58.353 8.71178C59.0338 8.59831 59.331 7.78512 58.847 7.29294C57.1775 5.59516 55.6174 4.82088 53.1316 4.94654L46.4391 5.64164C30.931 7.50067 30.5073 19.3312 30.7171 22.1047L30.931 24.1639M56.1272 14.1555C54.8497 14.0572 55.0797 16.2612 53.8353 16.5666C53.5251 16.6428 53.0193 16.6283 52.2487 16.486L46.3452 14.7576C46.1029 14.7038 44.3301 14.7479 46.8446 17.197C47.3839 17.7224 47.7993 18.5472 47.2195 19.0276C46.0293 20.0138 42.8003 19.8666 38.3318 16.266C38.22 16.176 38.116 16.0718 38.0147 15.9701C36.8281 14.7786 34.8706 14.6298 36.7636 19.1672C36.893 19.4772 36.971 19.8065 36.9769 20.1423C37.0098 22.0171 36.944 24.8025 36.5417 25.8388C36.3832 26.247 35.945 26.0505 35.6368 25.7395C34.424 24.5158 32.3773 23.1014 30.931 24.1639M30.931 24.1639C29.2135 27.2167 30.4153 29.7034 31.3996 31.9206M47.3872 44.83L47.1156 45.0906C46.0879 46.0762 44.4571 46.0464 43.4661 45.024L33.6128 34.8584C32.8364 34.082 31.9364 33.1297 31.3996 31.9206M47.3872 44.83L50.6402 42.1044M31.7131 26.6845C32.1243 26.4683 33.2008 26.4779 34.2169 28.2457M31.3996 31.9206C32.1738 32.4473 34.0042 33.2111 35.1328 32.0532M44.4817 33.5639C45.2216 34.0074 47.154 34.7434 48.9645 34.139M48.0314 23.707C48.9284 24.828 50.6815 27.1783 50.5183 27.6116C50.3144 28.1531 50.3412 28.4105 48.1047 29.4233" stroke="black" stroke-width="1.11613" stroke-linecap="round"/>
<ellipse cx="43.3331" cy="24.4395" rx="1.73334" ry="2.69631" fill="black"/>
<ellipse cx="52.9628" cy="24.4395" rx="1.73334" ry="2.69631" fill="black"/>
<path d="M15.2161 60.2034C19.3098 63.8031 24.3357 64.9782 27.1976 65.345V65.7551C27.2697 70.6628 27.3432 75.7692 25.8323 80.3069C24.3547 84.7448 21.3507 88.6582 15.2171 91.2356C9.08088 88.6381 6.07595 84.7238 4.59796 80.2913C3.08678 75.7589 3.16057 70.6628 3.23273 65.7551V65.345C6.12332 64.9789 11.1223 63.8044 15.2161 60.2034Z" fill="white"/>
<path d="M15.2161 60.2034C19.3098 63.8031 24.3357 64.9782 27.1976 65.345V65.7551C27.2697 70.6628 27.3432 75.7692 25.8323 80.3069C24.3547 84.7448 21.3507 88.6582 15.2171 91.2356C9.08088 88.6381 6.07595 84.7238 4.59796 80.2913C3.08678 75.7589 3.16057 70.6628 3.23273 65.7551V65.345C6.12332 64.9789 11.1223 63.8044 15.2161 60.2034Z" fill="white"/>
<path d="M15.2161 60.2034C19.3098 63.8031 24.3357 64.9782 27.1976 65.345V65.7551C27.2697 70.6628 27.3432 75.7692 25.8323 80.3069C24.3547 84.7448 21.3507 88.6582 15.2171 91.2356C9.08088 88.6381 6.07595 84.7238 4.59796 80.2913C3.08678 75.7589 3.16057 70.6628 3.23273 65.7551V65.345C6.12332 64.9789 11.1223 63.8044 15.2161 60.2034Z" stroke="black" stroke-width="1.15556"/>
<path d="M14.4492 56.1941C14.861 55.7105 15.5603 55.7117 15.9717 56.196L15.9727 56.197C18.33 58.9683 21.5108 60.3575 24.0742 61.0564C26.6411 61.7562 28.6436 61.7791 28.7109 61.7791C29.2533 61.7791 29.8231 62.3043 29.8232 63.1931V65.9031L29.8242 65.9109C29.8938 70.8083 29.9714 76.4941 28.2012 81.6931C26.4449 86.8509 22.8606 91.5484 15.5234 94.4509L15.5068 94.4578L15.4902 94.4656C15.4706 94.4748 15.451 94.4828 15.4316 94.49H15.2627C15.172 94.49 15.1243 94.4887 15.084 94.4822C15.0506 94.4768 15.0484 94.4712 15.0557 94.4763L14.998 94.4353L14.9316 94.4099C7.59468 91.547 4.00977 86.8605 2.24902 81.7029C0.474064 76.5034 0.545054 70.8075 0.597656 65.9089V63.1931C0.597764 62.3044 1.16764 61.7792 1.70996 61.7791C1.77702 61.7791 3.7888 61.7562 6.36035 61.0564C8.92818 60.3576 12.1097 58.9674 14.4492 56.1941ZM27.6621 64.5867L27.1455 64.531C24.5918 64.2578 19.5569 63.2054 15.6602 59.5076L15.2627 59.1296L14.8652 59.5076C10.9682 63.2056 5.96722 64.2578 3.37793 64.531L2.86035 64.5857V65.9822C2.79305 70.6405 2.71076 75.7183 4.20215 80.2712C5.70965 84.873 8.81547 88.92 15.0391 91.5369L15.2617 91.6306L15.4854 91.5369C21.7084 88.94 24.8132 84.8934 26.3203 80.2869C27.6257 76.2964 27.7252 71.8992 27.6846 67.74L27.6621 65.9744V64.5867Z" fill="white" stroke="black" stroke-width="1.15556"/>
<path d="M19.6386 138.386C19.848 138.386 20.0221 137.722 20.1542 136.897C20.3698 135.552 21.474 134.49 22.8366 134.49H26.8846C28.3139 134.49 29.4725 135.649 29.4725 137.078V140.572C30.3679 141.834 30.713 143.098 30.7664 143.779C30.7664 144.779 29.9681 145.595 28.969 145.617L19.107 145.837C18.1208 145.859 17.3096 145.065 17.3096 144.079V142.996C17.3096 142.528 17.4363 142.069 17.6763 141.668L19.6386 138.386Z" fill="white"/>
<path d="M19.6386 138.386C19.848 138.386 20.0221 137.722 20.1542 136.897C20.3698 135.552 21.474 134.49 22.8366 134.49H26.8846C28.3139 134.49 29.4725 135.649 29.4725 137.078V140.572M19.6386 138.386L17.6763 141.668C17.4363 142.069 17.3096 142.528 17.3096 142.996V144.079M19.6386 138.386H26.4028C26.8868 138.386 27.368 138.514 27.7544 138.805C29.9652 140.473 30.6871 142.768 30.7664 143.779M30.7664 143.779L17.3096 144.079M30.7664 143.779C30.7664 144.779 29.9681 145.595 28.969 145.617L19.107 145.837C18.1208 145.859 17.3096 145.065 17.3096 144.079M22.4853 136.887C23.4342 136.488 25.4231 136.336 27.1434 136.588" stroke="black" stroke-width="1.11613" stroke-linecap="round"/>
<path d="M74.8833 144.065H61.5617C60.1325 144.065 58.9739 142.907 58.9739 141.477V140.385V138.372C58.9739 136.943 60.1325 135.784 61.5617 135.784H67.2534C67.6233 135.784 67.989 135.864 68.3258 136.017L68.8252 136.244L70.5934 137.049L72.2353 137.797L73.4444 138.348C73.7305 138.478 74.0394 138.548 74.3504 138.594C75.9139 138.828 76.6596 139.68 76.9442 140.692C77.0933 141.221 77.1158 141.795 77.063 142.346C76.9609 143.409 75.9516 144.065 74.8833 144.065Z" fill="white"/>
<path d="M58.9739 140.385V138.372C58.9739 136.943 60.1325 135.784 61.5617 135.784H67.2534C67.6233 135.784 67.989 135.864 68.3258 136.017L68.8252 136.244M58.9739 140.385V141.477C58.9739 142.907 60.1325 144.065 61.5617 144.065H74.8833C75.9516 144.065 76.9609 143.409 77.063 142.346C77.1158 141.795 77.0933 141.221 76.9442 140.692M58.9739 140.385L76.9442 140.692M76.9442 140.692C76.6596 139.68 75.9139 138.828 74.3504 138.594C74.0394 138.548 73.7305 138.478 73.4444 138.348L72.2353 137.797M68.8252 136.244L66.8044 138.545M68.8252 136.244L70.5934 137.049M70.5934 137.049L69.0778 138.851M70.5934 137.049L72.2353 137.797M72.2353 137.797L71.3512 138.851" stroke="black" stroke-width="1.11613" stroke-linecap="round"/>
<path d="M19.6379 134.749L26.1076 89.7203C26.0249 88.7281 26.386 86.785 28.4215 86.6253C28.6025 86.6111 28.7849 86.6342 28.9627 86.6713C29.3669 86.7558 29.7962 86.8415 30.2482 86.9275C31.5407 87.1734 33.0179 87.4217 34.621 87.65C36.0918 87.8595 37.6685 88.0522 39.3057 88.211C41.0662 88.3818 42.8965 88.5133 44.7402 88.5842C46.6623 88.6582 48.5988 88.6662 50.4857 88.5842C51.9718 88.5196 53.4272 88.3992 54.8203 88.211C56.4835 87.9864 58.0582 87.6653 59.4909 87.2276C59.7531 87.1475 60.0105 87.0635 60.2629 86.9755C61.4831 86.5499 63.1717 87.2264 62.287 88.1684C62.1484 88.3158 61.9697 88.4561 61.7433 88.5842C64.1561 89.9241 67.3869 123.498 68.2993 133.509C68.4369 135.02 67.2452 136.302 65.7285 136.302H60.6338C59.4939 136.302 58.49 135.563 58.1538 134.474C56.1595 128.013 49.3118 106.183 45.2028 97.4839C44.7038 98.052 44.3814 98.6238 44.2226 99.0366L31.6892 133.71C31.2959 134.798 30.2282 135.492 29.0742 135.411L19.6379 134.749Z" fill="white"/>
<path d="M19.6379 134.749L26.1076 89.7203M19.6379 134.749L29.0742 135.411C30.2282 135.492 31.2959 134.798 31.6892 133.71L44.2226 99.0366C44.3814 98.6238 44.7038 98.052 45.2028 97.4839M19.6379 134.749C20.9561 134.842 22.1263 133.913 22.3313 132.607C24.1539 121.006 26.891 102.683 27.7516 94.3784M26.1076 89.7203C26.0249 88.7281 26.386 86.785 28.4215 86.6253C28.6025 86.6111 28.7849 86.6342 28.9627 86.6713C29.3669 86.7558 29.7962 86.8415 30.2482 86.9275M26.1076 89.7203C26.7196 89.8134 27.3234 89.9015 27.9191 89.9846M59.4909 89.2027C58.5806 89.5964 57.0234 90.0433 54.8203 90.414M59.4909 89.2027V87.2276M59.4909 89.2027C60.5224 89.0881 61.2472 88.8651 61.7433 88.5842M29.7306 90.2256L30.2482 86.9275M29.7306 90.2256C29.1354 90.1503 28.5315 90.0701 27.9191 89.9846M29.7306 90.2256C30.5222 90.3258 31.2986 90.4171 32.0597 90.5M30.2482 86.9275C31.5407 87.1734 33.0179 87.4217 34.621 87.65M34.621 87.65V90.7535M34.621 87.65C36.0918 87.8595 37.6685 88.0522 39.3057 88.211M34.621 90.7535C36.4522 90.916 38.1863 91.0289 39.8232 91.0996M34.621 90.7535C33.7873 90.6796 32.9336 90.5953 32.0597 90.5M39.3057 88.211L39.8232 91.0996M39.3057 88.211C41.0662 88.3818 42.8965 88.5133 44.7402 88.5842M39.8232 91.0996C46.3871 91.3835 51.3876 90.9914 54.8203 90.414M44.7402 88.5842V91.1919M44.7402 88.5842C46.6623 88.6582 48.5988 88.6662 50.4857 88.5842M50.4857 88.5842V90.9442M50.4857 88.5842C51.9718 88.5196 53.4272 88.3992 54.8203 88.211M54.8203 88.211V90.414M54.8203 88.211C56.4835 87.9864 58.0582 87.6653 59.4909 87.2276M59.4909 87.2276C59.7531 87.1475 60.0105 87.0635 60.2629 86.9755C61.4831 86.5499 63.1717 87.2264 62.287 88.1684C62.1484 88.3158 61.9697 88.4561 61.7433 88.5842M27.9191 89.9846C28.1075 90.1269 28.0226 91.763 27.7516 94.3784M27.7516 94.3784C29.0151 94.2765 31.6456 93.3581 32.0597 90.5M49.3983 95.4136C47.436 95.5444 46.0593 96.5087 45.2028 97.4839M45.2028 97.4839C49.3118 106.183 56.1595 128.013 58.1538 134.474C58.49 135.563 59.4939 136.302 60.6338 136.302H65.7285C67.2452 136.302 68.4369 135.02 68.2993 133.509C67.3869 123.498 64.1561 89.9241 61.7433 88.5842" stroke="black" stroke-width="1.11613" stroke-linecap="round"/>
<path d="M75.1895 78.2261L76.1727 79.3798L78.0706 83.2027C79.4522 84.2919 81.4174 86.8107 78.2248 88.1714C78.599 90.8446 76.805 90.6281 75.8613 90.1856C75.4188 91.1294 74.1983 92.6229 72.8554 91.0472C71.9278 93.4698 70.747 92.164 70.2726 91.2083L69.4438 88.7508C69.4026 88.6286 69.3523 88.5097 69.2933 88.395L67.3162 84.5475C64.8378 83.5831 65.1399 82.5998 65.7663 82.0785C65.9484 81.9269 66.145 81.7918 66.3168 81.6287C66.4694 81.4839 66.6371 81.3301 66.818 81.1701C67.4911 80.575 68.3471 79.8948 69.2851 79.2773C70.1019 78.7395 70.9809 78.2493 71.8553 77.9045C72.3855 77.6955 72.9139 77.5398 73.4259 77.4594C74.1039 77.3529 74.7443 77.7037 75.1895 78.2261Z" fill="white"/>
<path d="M76.1727 79.3798L75.1895 78.2261C74.7443 77.7037 74.1039 77.3529 73.4259 77.4594C72.9139 77.5398 72.3855 77.6955 71.8553 77.9045M76.1727 79.3798L73.5608 79.9057M76.1727 79.3798L78.0706 83.2027M73.5608 79.9057L71.8553 77.9045M73.5608 79.9057L71.0585 81.3582M71.8553 77.9045C70.9809 78.2493 70.1019 78.7395 69.2851 79.2773M69.2851 79.2773L71.0585 81.3582M69.2851 79.2773C68.3471 79.8948 67.4911 80.575 66.818 81.1701M71.0585 81.3582L68.1914 82.7816M66.818 81.1701C66.6371 81.3301 66.4694 81.4839 66.3168 81.6287C66.145 81.7918 65.9484 81.9269 65.7663 82.0785C65.1399 82.5998 64.8378 83.5831 67.3162 84.5475M66.818 81.1701L68.1914 82.7816M68.1914 82.7816L67.3162 84.5475M67.3162 84.5475L69.2933 88.395C69.3523 88.5097 69.4026 88.6286 69.4438 88.7508L70.2726 91.2083C70.747 92.164 71.9278 93.4698 72.8554 91.0472M72.8554 91.0472L71.0782 88.1433C70.5737 87.3189 70.5206 86.1607 71.3904 85.7393C71.9166 85.4844 72.565 85.4415 73.2629 85.9398M72.8554 91.0472C74.1983 92.6229 75.4188 91.1294 75.8613 90.1856M73.2629 85.9398L75.8613 90.1856M73.2629 85.9398C73.6479 84.7956 75.2765 85.2438 76.0427 85.6109M75.8613 90.1856C76.805 90.6281 78.599 90.8446 78.2248 88.1714M78.2248 88.1714L76.0427 85.6109M78.2248 88.1714C81.4174 86.8107 79.4522 84.2919 78.0706 83.2027M76.0427 85.6109L78.0706 83.2027M74.0867 82.5177L72.8467 84.2544" stroke="black" stroke-width="1.11613" stroke-linecap="round"/>
</svg>
