<svg width="61" height="41" viewBox="0 0 61 41" fill="none" xmlns="http://www.w3.org/2000/svg">
<g opacity="0.45" filter="url(#filter0_f_2199_610)">
<rect x="5.94177" y="5.94177" width="48.5176" height="28.7622" rx="1.4451" fill="#25A373"/>
<path d="M24.9495 21.6926C24.9495 22.9116 24.5646 24.1032 23.8434 25.1168C23.1222 26.1303 22.0971 26.9203 20.8977 27.3868C19.6984 27.8533 18.3787 27.9753 17.1055 27.7375C15.8323 27.4997 14.6627 26.9127 13.7448 26.0508C12.8269 25.1888 12.2018 24.0906 11.9485 22.895C11.6952 21.6995 11.8252 20.4602 12.322 19.334C12.8188 18.2078 13.6601 17.2452 14.7394 16.568C15.8188 15.8908 17.0878 15.5293 18.386 15.5293V21.6926H24.9495Z" fill="#25A373"/>
<rect x="29.3251" y="21.8295" width="3.50058" height="6.02634" fill="#25A373"/>
<rect x="37.2012" y="12.7904" width="3.50058" height="15.0659" fill="#25A373"/>
<rect x="45.0453" y="18.7947" width="3.50058" height="9.03951" fill="#25A373"/>
</g>
<g filter="url(#filter1_i_2199_610)">
<path d="M54.1224 6.46033C54.3325 6.71124 54.4594 7.03429 54.4594 7.38708V33.2592C54.4592 34.0571 53.812 34.7035 53.014 34.7035H7.38708C6.98791 34.7035 6.62616 34.5423 6.36462 34.2806L6.35779 34.2728C6.58646 34.5018 6.89175 34.6542 7.23181 34.6888L7.38025 34.6957H53.0072C53.7554 34.6957 54.3707 34.1275 54.4447 33.3988L54.4525 33.2513V7.37927C54.4525 7.0302 54.3285 6.71014 54.1224 6.46033ZM53.0072 33.2513H7.38025V7.37927H53.0072V33.2513ZM18.3793 14.7992C16.948 14.7992 15.5457 15.1978 14.349 15.9486C13.1521 16.6996 12.2119 17.7716 11.6547 19.0345C11.0973 20.2983 10.9499 21.6926 11.2347 23.0375C11.5196 24.3817 12.2217 25.6101 13.2435 26.5697C14.265 27.5288 15.5615 28.1784 16.9662 28.4408C18.3706 28.703 19.8272 28.5686 21.1527 28.0531C22.4784 27.5374 23.6193 26.6609 24.4252 25.5287C25.2314 24.3956 25.6653 23.0572 25.6654 21.6849C25.6653 21.2861 25.3416 20.9624 24.9427 20.9623H19.1019V15.5219C19.1019 15.3304 19.0253 15.1466 18.89 15.0111C18.7546 14.8757 18.5708 14.7993 18.3793 14.7992ZM30.764 21.099C29.5669 21.099 28.5961 22.0698 28.5961 23.267V26.4027C28.5961 27.5998 29.5669 28.5707 30.764 28.5707H31.3744C32.5712 28.5703 33.5414 27.5996 33.5414 26.4027V23.267C33.5414 22.07 32.5712 21.0994 31.3744 21.099H30.764ZM38.64 12.0599C37.4429 12.0599 36.472 13.0307 36.472 14.2279V26.4037C36.4722 27.6007 37.443 28.5707 38.64 28.5707H39.2504C40.4472 28.5704 41.4172 27.6005 41.4174 26.4037V14.2279C41.4174 13.0309 40.4473 12.0602 39.2504 12.0599H38.64ZM46.4838 18.0638C45.2867 18.0638 44.316 19.0348 44.3158 20.2318V26.3812C44.316 27.5782 45.2867 28.5482 46.4838 28.5482H47.0941C48.2911 28.5481 49.2609 27.5782 49.2611 26.3812V20.2318C49.2609 19.0349 48.2911 18.0639 47.0941 18.0638H46.4838ZM39.2504 13.5052C39.6492 13.5055 39.973 13.829 39.973 14.2279V26.4037C39.9728 26.8024 39.6491 27.1261 39.2504 27.1263H38.64C38.2411 27.1263 37.9176 26.8026 37.9174 26.4037V14.2279C37.9174 13.8289 38.241 13.5052 38.64 13.5052H39.2504ZM31.3744 22.5443C31.7731 22.5447 32.097 22.8681 32.097 23.267V26.4027C32.097 26.8015 31.7731 27.125 31.3744 27.1254H30.764C30.365 27.1254 30.0414 26.8017 30.0414 26.4027V23.267C30.0414 22.8679 30.365 22.5443 30.764 22.5443H31.3744ZM17.6566 21.6849C17.6567 21.8763 17.7332 22.0603 17.8685 22.1957C18.004 22.331 18.1878 22.4076 18.3793 22.4076H24.1674C24.0506 23.2184 23.7397 24.0004 23.2484 24.6908C22.6119 25.5852 21.7018 26.2892 20.6293 26.7064C19.5565 27.1236 18.3733 27.233 17.2318 27.0199C16.0904 26.8067 15.047 26.2813 14.2328 25.517C13.4191 24.7529 12.8706 23.7841 12.6488 22.7377C12.4273 21.6917 12.541 20.607 12.9769 19.6185C13.4133 18.6293 14.155 17.7756 15.1166 17.1722C15.8782 16.6943 16.7489 16.392 17.6566 16.2865V21.6849ZM47.0941 19.5092C47.493 19.5093 47.8166 19.833 47.8168 20.2318V26.3812C47.8166 26.7801 47.493 27.1038 47.0941 27.1039H46.4838C46.0848 27.1039 45.7613 26.7801 45.7611 26.3812V20.2318C45.7613 19.8329 46.0848 19.5092 46.4838 19.5092H47.0941ZM54.0365 6.36462C54.0637 6.39185 54.0887 6.42125 54.1136 6.45056C54.0866 6.41842 54.0584 6.38746 54.0287 6.35779L54.0365 6.36462Z" fill="#25A373"/>
</g>
<defs>
<filter id="filter0_f_2199_610" x="-1.57356e-05" y="-1.57356e-05" width="60.4012" height="40.6458" filterUnits="userSpaceOnUse" color-interpolation-filters="sRGB">
<feFlood flood-opacity="0" result="BackgroundImageFix"/>
<feBlend mode="normal" in="SourceGraphic" in2="BackgroundImageFix" result="shape"/>
<feGaussianBlur stdDeviation="2.97089" result="effect1_foregroundBlur_2199_610"/>
</filter>
<filter id="filter1_i_2199_610" x="6.35779" y="6.35779" width="48.1016" height="34.2875" filterUnits="userSpaceOnUse" color-interpolation-filters="sRGB">
<feFlood flood-opacity="0" result="BackgroundImageFix"/>
<feBlend mode="normal" in="SourceGraphic" in2="BackgroundImageFix" result="shape"/>
<feColorMatrix in="SourceAlpha" type="matrix" values="0 0 0 0 0 0 0 0 0 0 0 0 0 0 0 0 0 0 127 0" result="hardAlpha"/>
<feOffset dy="5.94179"/>
<feGaussianBlur stdDeviation="2.97089"/>
<feComposite in2="hardAlpha" operator="arithmetic" k2="-1" k3="1"/>
<feColorMatrix type="matrix" values="0 0 0 0 1 0 0 0 0 1 0 0 0 0 1 0 0 0 0.25 0"/>
<feBlend mode="normal" in2="shape" result="effect1_innerShadow_2199_610"/>
</filter>
</defs>
</svg>
