<svg width="462" height="843" viewBox="0 0 462 843" fill="none" xmlns="http://www.w3.org/2000/svg">
<g opacity="0.45" filter="url(#filter0_f_2122_608)">
<ellipse cx="243.5" cy="421.4" rx="455.5" ry="345.492" fill="url(#paint0_radial_2122_608)"/>
</g>
<path d="M182.45 626.753H127.548C126.312 626.753 125.114 626.141 124.76 624.957C124.484 624.036 124.323 622.976 124.253 621.829C123.981 617.393 124.982 609.988 126.013 605.33C126.358 603.775 127.75 602.725 129.342 602.691L154.231 602.153C154.831 602.14 155.424 602.271 155.974 602.513C157.791 603.315 161.758 604.949 166.108 606.717C167.525 607.293 168.983 607.883 170.421 608.464C173.679 609.78 176.834 611.046 179.174 611.981C183.553 614.48 185.187 618.434 185.586 621.829C185.67 622.549 185.7 623.244 185.688 623.895C185.656 625.59 184.146 626.753 182.45 626.753Z" fill="white"/>
<path d="M124.253 621.829C123.981 617.393 124.982 609.988 126.013 605.33C126.358 603.775 127.75 602.725 129.342 602.691L154.231 602.153C154.831 602.14 155.424 602.271 155.974 602.513C157.791 603.315 161.758 604.949 166.108 606.717M124.253 621.829C124.323 622.976 124.484 624.036 124.76 624.957C125.114 626.141 126.312 626.753 127.548 626.753H182.45C184.146 626.753 185.656 625.59 185.688 623.895C185.7 623.244 185.67 622.549 185.586 621.829M124.253 621.829H185.586M185.586 621.829C185.187 618.434 183.553 614.48 179.174 611.981C176.834 611.046 173.679 609.78 170.421 608.464M161.795 605.21L158.098 611.365M166.108 606.717L163.643 611.365M166.108 606.717C167.525 607.293 168.983 607.883 170.421 608.464M170.421 608.464L169.188 611.365" stroke="black" stroke-width="2.15648" stroke-linecap="round"/>
<path d="M25.2486 628.599C22.5585 627.703 26.8012 612.821 29.9088 603.498C30.4241 601.952 31.9078 600.949 33.5361 601.018L56.2123 601.982C58.1912 602.066 59.7521 603.695 59.7521 605.676V610.75C66.6328 614.416 70.1339 619.787 71.2488 622.499C71.4 622.867 71.4587 623.263 71.4587 623.66V626.753V629.213C71.4587 630.013 71.199 630.792 70.7187 631.431C70.0209 632.361 68.9264 632.908 67.7642 632.908H30.2305C29.0372 632.908 27.9173 632.332 27.2233 631.361L25.2486 628.599Z" fill="white"/>
<path d="M25.2486 628.599C22.5585 627.703 26.8012 612.821 29.9088 603.498C30.4241 601.952 31.9078 600.949 33.5361 601.018L56.2123 601.982C58.1912 602.066 59.7521 603.695 59.7521 605.676V610.75M25.2486 628.599L27.2233 631.361C27.9173 632.332 29.0372 632.908 30.2305 632.908H67.7642C68.9264 632.908 70.0209 632.361 70.7187 631.431C71.199 630.792 71.4587 630.013 71.4587 629.213V626.753M25.2486 628.599C25.5478 627.963 25.8584 627.348 26.1797 626.753M59.7521 610.75C66.6328 614.416 70.1339 619.787 71.2488 622.499C71.4 622.867 71.4587 623.263 71.4587 623.66V626.753M59.7521 610.75C52.0988 609.166 35.0636 610.295 26.1797 626.753M39.7972 608.903C42.0563 607.467 48.2999 605.21 55.2006 607.672M71.4587 626.753H26.1797" stroke="black" stroke-width="2.15648" stroke-linecap="round"/>
<path d="M40.0368 450.913C40.3537 449.49 41.7725 448.599 43.1921 448.933L50.0173 450.537L65.3845 454.836L65.4811 454.863L65.5817 454.872L79.7526 456.103L79.7995 456.107H123.64L123.689 456.103L137.244 454.872L137.349 454.862L137.451 454.832L143.186 453.147C144.863 452.655 146.542 453.912 146.543 455.659V461.203C146.906 481.703 147.767 511.334 149.211 538.154C149.932 551.564 150.8 564.279 151.826 574.804C152.848 585.298 154.034 593.7 155.413 598.428C155.705 599.431 155.695 600.394 155.438 601.075C155.204 601.694 154.774 602.098 154.011 602.189C149.521 602.725 141.077 603.149 126.346 602.945C125.198 602.929 124.192 602.159 123.876 601.053L96.2858 504.588L95.3317 501.251L94.2272 504.541L61.8181 601.068C61.4534 602.154 60.4352 602.872 59.3015 602.845C53.9301 602.717 46.9899 602.466 40.8669 602.067C37.8045 601.868 34.9563 601.632 32.6159 601.357C30.245 601.079 28.4864 600.769 27.5436 600.448C27.5273 600.443 27.5182 600.438 27.5153 600.437C27.5128 600.435 27.5124 600.434 27.5124 600.434C27.5119 600.433 27.5096 600.431 27.5065 600.427C27.5029 600.421 27.4968 600.411 27.4899 600.395C27.4586 600.319 27.4292 600.159 27.4616 599.917L45.7946 463.174L45.8845 462.506L45.3239 462.133L40.0397 458.614C39.1392 458.015 38.7004 456.922 38.9352 455.866L40.0368 450.913Z" fill="white" stroke="black" stroke-width="2.15648" stroke-linecap="square"/>
<path d="M34.2517 600.286L53.03 477.802M55.2003 463.646L53.03 477.802M53.03 477.802C57.6556 476.161 66.9069 471.278 66.9069 464.877" stroke="black" stroke-width="2.15648" stroke-linecap="square"/>
<path d="M45.5552 454.413C37.9878 451.951 37.34 446.617 36.9293 443.95C36.3131 437.534 35.9433 424.411 39.3937 423.247L26.3238 418.499C25.5997 418.236 24.9428 417.806 24.423 417.238C15.4568 407.431 17.044 403.891 17.2129 402.096C17.3433 400.709 19.6774 386.093 21.5258 378.707C31.5401 343.239 55.9866 324.988 69.5359 319.009C71.3986 318.187 73.5085 318.832 75.1335 320.059C85.1059 327.585 109.835 332.003 123.569 333.554C124.906 333.705 126.231 333.281 127.253 332.406L130.685 329.467L138.131 323.091C138.437 322.829 138.789 322.737 139.093 323.003C142.816 326.262 165.196 354.302 176.659 368.859L207.248 351.465C209.52 350.173 212.405 350.879 213.824 353.074L229.141 376.766C229.936 377.996 230.168 379.535 229.299 380.714C223.016 389.245 194.502 404.922 179.619 412.378C179.372 412.502 179.122 412.602 178.856 412.677C167.666 415.843 157.069 409.026 153.415 405.174L153.995 446.412C153.995 449.866 150.522 453.887 148.143 456.07C147.55 456.615 146.805 456.958 146.014 457.116L126.18 461.079C125.83 461.149 125.473 461.18 125.116 461.173L80.0587 460.273L64.7116 459.966C64.2654 459.957 63.8225 459.888 63.3951 459.76L59.4182 458.568L54.7972 457.183L45.5552 454.413Z" fill="#1E8C62"/>
<path d="M36.9293 443.95L35.856 444.053L35.8589 444.084L35.8636 444.114L36.9293 443.95ZM45.5552 454.413L45.2216 455.439L45.2336 455.443L45.2456 455.446L45.5552 454.413ZM126.18 461.079L126.391 462.136V462.136L126.18 461.079ZM146.014 457.116L146.226 458.173H146.226L146.014 457.116ZM148.143 456.07L147.414 455.276V455.276L148.143 456.07ZM153.995 446.412H155.074V446.404L155.073 446.397L153.995 446.412ZM153.628 343.609C153.62 343.013 153.13 342.537 152.535 342.546C151.94 342.554 151.464 343.044 151.472 343.639L152.55 343.624L153.628 343.609ZM178.856 412.677L178.563 411.64L178.563 411.64L178.856 412.677ZM179.619 412.378L180.102 413.342V413.342L179.619 412.378ZM229.299 380.714L230.167 381.353V381.353L229.299 380.714ZM229.141 376.766L230.047 376.18V376.18L229.141 376.766ZM213.824 353.074L212.919 353.659V353.659L213.824 353.074ZM207.248 351.465L207.781 352.402V352.402L207.248 351.465ZM170.714 370.999C170.196 371.294 170.015 371.952 170.31 372.47C170.604 372.987 171.262 373.168 171.78 372.874L171.247 371.937L170.714 370.999ZM139.093 323.003L139.803 322.191V322.191L139.093 323.003ZM123.569 333.554L123.69 332.482V332.482L123.569 333.554ZM75.1335 320.059L74.484 320.919V320.919L75.1335 320.059ZM69.5359 319.009L69.1006 318.023V318.023L69.5359 319.009ZM21.5258 378.707L20.4882 378.414L20.4838 378.43L20.4798 378.445L21.5258 378.707ZM17.2129 402.096L16.1394 401.995H16.1394L17.2129 402.096ZM24.423 417.238L23.6272 417.965H23.6272L24.423 417.238ZM93.2498 388.316L93.3049 387.239V387.239L93.2498 388.316ZM67.1198 386.977L67.0647 388.054V388.054L67.1198 386.977ZM49.9232 385.016C49.3285 384.986 48.8217 385.443 48.7912 386.038C48.7607 386.633 49.2181 387.139 49.8129 387.17L49.868 386.093L49.9232 385.016ZM78.5608 366.259C78.8246 365.726 78.6057 365.079 78.0719 364.815C77.538 364.551 76.8913 364.77 76.6275 365.304L77.5942 365.782L78.5608 366.259ZM117.487 333.838C117.522 333.244 117.067 332.734 116.473 332.699C115.878 332.665 115.369 333.119 115.334 333.714L116.411 333.776L117.487 333.838ZM113.486 365.72L113.424 366.796L115.577 366.92L115.639 365.844L114.562 365.782L113.486 365.72ZM138.131 323.091L137.43 322.272V322.272L138.131 323.091ZM127.253 332.406L127.954 333.225V333.225L127.253 332.406ZM129.607 362.704V363.782H131.763V362.704H130.685H129.607ZM64.7116 459.966L64.7332 458.888H64.7332L64.7116 459.966ZM80.0587 460.273L80.0372 461.351V461.351L80.0587 460.273ZM125.116 461.173L125.137 460.095H125.137L125.116 461.173ZM81.1371 442.586L81.9867 443.25V443.25L81.1371 442.586ZM144.314 456.657C144.193 457.24 144.568 457.81 145.151 457.931C145.734 458.052 146.304 457.677 146.425 457.094L145.369 456.875L144.314 456.657ZM147.539 444.704L148.603 444.879V444.879L147.539 444.704ZM145.037 434.424L144.127 435.002V435.002L145.037 434.424ZM140.26 419.564C140.39 418.983 140.023 418.407 139.442 418.277C138.861 418.148 138.285 418.515 138.155 419.096L139.208 419.33L140.26 419.564ZM26.3238 418.499L26.6919 417.486H26.6919L26.3238 418.499ZM39.3937 423.247L39.7618 422.233V422.233L39.3937 423.247ZM44.7398 425.189L45.1079 424.175H45.1079L44.7398 425.189ZM54.7972 457.183L55.1068 456.15V456.15L54.7972 457.183ZM59.4182 458.568L59.7278 457.535V457.535L59.4182 458.568ZM63.3951 459.76L63.7046 458.727H63.7046L63.3951 459.76ZM36.9293 443.95L35.8636 444.114C36.0655 445.425 36.3502 447.627 37.6286 449.804C38.9303 452.022 41.2047 454.132 45.2216 455.439L45.5552 454.413L45.8888 453.388C42.3383 452.233 40.5051 450.445 39.4883 448.713C38.4484 446.941 38.2037 445.142 37.9949 443.786L36.9293 443.95ZM126.18 461.079L126.391 462.136L146.226 458.173L146.014 457.116L145.803 456.058L125.969 460.021L126.18 461.079ZM148.143 456.07L148.872 456.865C150.104 455.734 151.627 454.122 152.852 452.325C154.058 450.556 155.074 448.466 155.074 446.412H153.995H152.917C152.917 447.812 152.196 449.459 151.07 451.11C149.964 452.734 148.561 454.223 147.414 455.276L148.143 456.07ZM153.995 446.412L155.073 446.397L154.494 405.158L153.415 405.174L152.337 405.189L152.917 446.427L153.995 446.412ZM153.415 405.174L154.494 405.158L153.628 343.609L152.55 343.624L151.472 343.639L152.337 405.189L153.415 405.174ZM153.415 405.174L152.633 405.915C154.57 407.958 158.265 410.713 162.911 412.559C167.568 414.41 173.265 415.38 179.15 413.715L178.856 412.677L178.563 411.64C173.258 413.141 168.06 412.285 163.708 410.555C159.344 408.821 155.914 406.241 154.198 404.432L153.415 405.174ZM179.619 412.378L180.102 413.342C187.562 409.605 198.437 403.808 208.242 397.871C213.144 394.904 217.793 391.893 221.618 389.08C225.417 386.287 228.493 383.627 230.167 381.353L229.299 380.714L228.431 380.074C226.964 382.066 224.119 384.565 220.34 387.343C216.587 390.103 211.998 393.077 207.126 396.027C197.382 401.926 186.559 407.695 179.136 411.414L179.619 412.378ZM229.141 376.766L230.047 376.18L214.73 352.488L213.824 353.074L212.919 353.659L228.236 377.351L229.141 376.766ZM207.248 351.465L206.715 350.528L176.126 367.922L176.659 368.859L177.192 369.797L207.781 352.402L207.248 351.465ZM176.659 368.859L176.126 367.922L170.714 370.999L171.247 371.937L171.78 372.874L177.192 369.797L176.659 368.859ZM176.659 368.859L177.506 368.192C171.773 360.911 163.309 350.257 155.811 341.015C152.063 336.394 148.553 332.122 145.745 328.799C142.966 325.511 140.809 323.072 139.803 322.191L139.093 323.003L138.382 323.814C139.238 324.562 141.275 326.851 144.098 330.191C146.892 333.498 150.391 337.757 154.136 342.373C161.625 351.605 170.082 362.25 175.812 369.526L176.659 368.859ZM123.569 333.554L123.69 332.482C116.857 331.711 107.288 330.225 98.1971 328C89.0581 325.762 80.5769 322.816 75.7831 319.198L75.1335 320.059L74.484 320.919C79.6625 324.828 88.5321 327.854 97.6843 330.094C106.885 332.347 116.547 333.846 123.448 334.625L123.569 333.554ZM69.5359 319.009L69.1006 318.023C55.3079 324.109 30.6038 342.587 20.4882 378.414L21.5258 378.707L22.5635 379C32.4763 343.891 56.6654 325.867 69.9712 319.996L69.5359 319.009ZM21.5258 378.707L20.4798 378.445C18.6195 385.879 16.2754 400.549 16.1394 401.995L17.2129 402.096L18.2864 402.197C18.4112 400.87 20.7353 386.307 22.5718 378.969L21.5258 378.707ZM17.2129 402.096L16.1394 401.995C16.0687 402.746 15.5786 404.378 16.3598 406.973C17.1286 409.527 19.0918 413.004 23.6272 417.965L24.423 417.238L25.2188 416.51C20.788 411.664 19.0616 408.467 18.4248 406.352C17.8002 404.276 18.1882 403.24 18.2864 402.197L17.2129 402.096ZM46.4227 425.485V426.563H91.7653V425.485V424.407H46.4227V425.485ZM91.7653 425.485V426.563H92.9976V425.485V424.407H91.7653V425.485ZM97.9267 420.556H99.0049V393.238H97.9267H96.8484V420.556H97.9267ZM93.2498 388.316L93.3049 387.239L67.175 385.9L67.1198 386.977L67.0647 388.054L93.1946 389.392L93.2498 388.316ZM67.1198 386.977L67.175 385.9L49.9232 385.016L49.868 386.093L49.8129 387.17L67.0647 388.054L67.1198 386.977ZM67.1198 386.977L68.0865 387.455L78.5608 366.259L77.5942 365.782L76.6275 365.304L66.1532 386.499L67.1198 386.977ZM116.411 333.776L115.334 333.714L113.486 365.72L114.562 365.782L115.639 365.844L117.487 333.838L116.411 333.776ZM138.131 323.091L137.43 322.272L129.983 328.648L130.685 329.467L131.386 330.286L138.832 323.911L138.131 323.091ZM130.685 329.467L129.983 328.648L126.552 331.587L127.253 332.406L127.954 333.225L131.386 330.286L130.685 329.467ZM130.685 329.467H129.607V362.704H130.685H131.763V329.467H130.685ZM64.7116 459.966L64.6901 461.044L80.0372 461.351L80.0587 460.273L80.0802 459.195L64.7332 458.888L64.7116 459.966ZM80.0587 460.273L80.0372 461.351L125.094 462.251L125.116 461.173L125.137 460.095L80.0802 459.195L80.0587 460.273ZM80.0587 460.273H81.137V445.689H80.0587H78.9805V460.273H80.0587ZM81.1371 442.586L81.9867 443.25C83.4403 441.39 86.1157 437.891 88.4321 434.448C89.589 432.728 90.6701 431.001 91.4662 429.488C91.8641 428.732 92.2005 428.011 92.4398 427.358C92.6727 426.722 92.8436 426.073 92.8436 425.485H91.7653H90.6871C90.6871 425.697 90.6163 426.067 90.415 426.616C90.2202 427.148 89.93 427.777 89.5578 428.484C88.8136 429.899 87.7808 431.552 86.6427 433.244C84.3691 436.624 81.7305 440.076 80.2875 441.922L81.1371 442.586ZM145.369 456.875L146.425 457.094C147.104 453.818 147.964 448.77 148.603 444.879L147.539 444.704L146.475 444.53C145.836 448.423 144.982 453.43 144.314 456.657L145.369 456.875ZM145.037 434.424L145.947 433.845C144.49 431.555 142.87 428.711 141.714 426.026C141.137 424.684 140.686 423.406 140.426 422.274C140.162 421.124 140.116 420.214 140.26 419.564L139.208 419.33L138.155 419.096C137.91 420.198 138.029 421.471 138.324 422.756C138.623 424.058 139.125 425.465 139.734 426.879C140.95 429.706 142.635 432.656 144.127 435.002L145.037 434.424ZM26.3238 418.499L25.9556 419.512L39.0255 424.26L39.3937 423.247L39.7618 422.233L26.6919 417.486L26.3238 418.499ZM39.3937 423.247L39.0255 424.26L44.3716 426.202L44.7398 425.189L45.1079 424.175L39.7618 422.233L39.3937 423.247ZM36.9293 443.95L38.0026 443.847C37.6977 440.673 37.4555 435.848 37.7127 431.695C37.8417 429.612 38.0933 427.755 38.5005 426.375C38.7042 425.685 38.9331 425.163 39.1716 424.802C39.4102 424.44 39.6102 424.312 39.7383 424.268L39.3937 423.247L39.0491 422.225C38.3146 422.473 37.7713 423.009 37.3722 423.613C36.9729 424.217 36.6694 424.961 36.4322 425.765C35.9576 427.374 35.6932 429.417 35.5603 431.562C35.2938 435.866 35.5446 440.811 35.856 444.053L36.9293 443.95ZM45.5552 454.413L45.2456 455.446L54.4877 458.216L54.7972 457.183L55.1068 456.15L45.8647 453.38L45.5552 454.413ZM54.7972 457.183L54.4877 458.216L59.1087 459.601L59.4182 458.568L59.7278 457.535L55.1068 456.15L54.7972 457.183ZM59.4182 458.568L59.1087 459.601L63.0855 460.793L63.3951 459.76L63.7046 458.727L59.7278 457.535L59.4182 458.568ZM80.0587 445.689H81.137C81.137 444.81 81.438 443.952 81.9867 443.25L81.1371 442.586L80.2875 441.922C79.4503 442.993 78.9805 444.317 78.9805 445.689H80.0587ZM97.9267 393.238H99.0049C99.0049 390.04 96.4991 387.402 93.3049 387.239L93.2498 388.316L93.1946 389.392C95.2421 389.497 96.8484 391.188 96.8484 393.238H97.9267ZM92.9976 425.485V426.563C96.3153 426.563 99.0049 423.874 99.0049 420.556H97.9267H96.8484C96.8484 422.683 95.1244 424.407 92.9976 424.407V425.485ZM24.423 417.238L23.6272 417.965C24.2695 418.668 25.0753 419.193 25.9556 419.512L26.3238 418.499L26.6919 417.486C26.1242 417.279 25.6161 416.945 25.2188 416.51L24.423 417.238ZM147.539 444.704L148.603 444.879C148.883 443.177 148.626 441.078 148.125 439.133C147.62 437.175 146.834 435.239 145.947 433.845L145.037 434.424L144.127 435.002C144.864 436.159 145.573 437.872 146.037 439.671C146.503 441.481 146.686 443.248 146.475 444.53L147.539 444.704ZM213.824 353.074L214.73 352.488C213 349.814 209.484 348.953 206.715 350.528L207.248 351.465L207.781 352.402C209.556 351.393 211.81 351.945 212.919 353.659L213.824 353.074ZM229.299 380.714L230.167 381.353C231.399 379.681 230.982 377.627 230.047 376.18L229.141 376.766L228.236 377.351C228.891 378.364 228.937 379.388 228.431 380.074L229.299 380.714ZM75.1335 320.059L75.7831 319.198C73.9916 317.846 71.4615 316.981 69.1006 318.023L69.5359 319.009L69.9712 319.996C71.3357 319.394 73.0254 319.818 74.484 320.919L75.1335 320.059ZM146.014 457.116L146.226 458.173C147.179 457.983 148.112 457.562 148.872 456.865L148.143 456.07L147.414 455.276C146.987 455.668 146.43 455.933 145.803 456.058L146.014 457.116ZM46.4227 425.485V424.407C45.9743 424.407 45.5294 424.328 45.1079 424.175L44.7398 425.189L44.3716 426.202C45.0291 426.441 45.7232 426.563 46.4227 426.563V425.485ZM178.856 412.677L179.15 413.715C179.488 413.619 179.801 413.493 180.102 413.342L179.619 412.378L179.136 411.414C178.944 411.511 178.757 411.585 178.563 411.64L178.856 412.677ZM123.569 333.554L123.448 334.625C125.092 334.811 126.713 334.288 127.954 333.225L127.253 332.406L126.552 331.587C125.749 332.274 124.72 332.599 123.69 332.482L123.569 333.554ZM126.18 461.079L125.969 460.021C125.695 460.076 125.416 460.101 125.137 460.095L125.116 461.173L125.094 462.251C125.529 462.26 125.964 462.221 126.391 462.136L126.18 461.079ZM139.093 323.003L139.803 322.191C139.423 321.858 138.948 321.715 138.466 321.781C138.028 321.841 137.678 322.06 137.43 322.272L138.131 323.091L138.832 323.911C138.891 323.861 138.869 323.902 138.76 323.917C138.699 323.926 138.622 323.923 138.543 323.899C138.463 323.875 138.41 323.838 138.382 323.814L139.093 323.003ZM64.7116 459.966L64.7332 458.888C64.3846 458.881 64.0386 458.827 63.7046 458.727L63.3951 459.76L63.0855 460.793C63.6065 460.949 64.1463 461.033 64.6901 461.044L64.7116 459.966Z" fill="black"/>
<path d="M113.947 366.398C115.308 366.398 116.41 367.5 116.411 368.859C116.411 370.218 115.308 371.321 113.947 371.321C112.585 371.321 111.482 370.218 111.482 368.859C111.482 367.5 112.585 366.398 113.947 366.398Z" fill="#1E8C62" stroke="black" stroke-width="1.23227"/>
<path d="M131.198 363.936C132.56 363.936 133.662 365.038 133.662 366.397C133.662 367.756 132.56 368.859 131.198 368.859C129.837 368.859 128.734 367.756 128.734 366.397C128.734 365.038 129.837 363.936 131.198 363.936Z" fill="#1E8C62" stroke="black" stroke-width="1.23227"/>
<path d="M100.485 391.503C102.55 391.016 105.449 390.879 108.188 392.248C110.227 392.803 114.907 392.657 118.699 388.283C119.508 387.349 120.637 386.708 121.872 386.708H127.116C128.021 386.708 128.894 387.04 129.571 387.641L134.066 391.632H152.699C153.778 391.632 154.829 392.094 155.321 393.054C155.978 394.337 156.548 396.286 155.311 398.043C154.814 398.75 153.925 399.018 153.061 399.018H140.313C139.585 399.018 138.995 399.609 138.995 400.337C138.995 400.993 139.48 401.547 140.112 401.721C140.573 401.847 141.095 402.027 141.514 402.272C142.58 402.897 142.744 404.868 141.959 405.822C141.622 406.231 141.141 406.549 140.772 406.754C140.422 406.948 140.081 407.166 139.798 407.449C138.941 408.305 138.692 409.596 139.17 410.709L139.551 411.598C139.98 412.598 139.909 413.721 139.178 414.528C137.601 416.271 134.755 418.89 133.237 420.263C132.58 420.857 131.738 421.183 130.852 421.188C126.469 421.211 112.802 421.18 108.732 419.945C108.772 421.973 107.139 423.638 105.111 423.638H102.027C99.9851 423.638 98.33 421.983 98.33 419.941V416.252V405.173V396.556V394.534C98.33 393.133 99.1216 391.824 100.485 391.503Z" fill="white"/>
<path d="M108.188 392.248C105.449 390.879 102.55 391.016 100.485 391.503C99.1216 391.824 98.33 393.133 98.33 394.534V396.556M108.188 392.248L108.273 396.556M108.188 392.248C110.227 392.803 114.907 392.657 118.699 388.283C119.508 387.349 120.637 386.708 121.872 386.708H127.116C128.021 386.708 128.894 387.04 129.571 387.641L134.066 391.632M108.659 416.252H98.33M108.659 416.252L108.442 405.173M108.659 416.252L108.732 419.945M98.33 416.252V419.941C98.33 421.983 99.9851 423.638 102.027 423.638H105.111C107.139 423.638 108.772 421.973 108.732 419.945M98.33 416.252V405.173M108.442 405.173H98.33M108.442 405.173L108.273 396.556M98.33 405.173V396.556M108.273 396.556H98.33M134.066 391.632H122.975M134.066 391.632H152.699C153.778 391.632 154.829 392.094 155.321 393.054C155.978 394.337 156.548 396.286 155.311 398.043C154.814 398.75 153.925 399.018 153.061 399.018H140.313C139.585 399.018 138.995 399.609 138.995 400.337C138.995 400.993 139.48 401.547 140.112 401.721C140.573 401.847 141.095 402.027 141.514 402.272C142.58 402.897 142.744 404.868 141.959 405.822C141.622 406.231 141.141 406.549 140.772 406.754C140.422 406.948 140.081 407.166 139.798 407.449C138.941 408.305 138.692 409.596 139.17 410.709L139.551 411.598C139.98 412.598 139.909 413.721 139.178 414.528C137.601 416.271 134.755 418.89 133.237 420.263C132.58 420.857 131.738 421.183 130.852 421.188C126.469 421.211 112.802 421.18 108.732 419.945" stroke="black" stroke-width="2.15648" stroke-linecap="round"/>
<path d="M236.961 371.933C234.702 373.37 229.937 376.365 228.951 376.857C228.468 377.099 225.601 373.117 222.174 367.979C220.039 364.78 217.688 361.133 215.56 357.777C214.838 356.639 214.143 355.535 213.49 354.494C212.472 352.871 212.875 350.741 214.408 349.593L219.093 346.083C222.355 344.03 226.704 341.256 231.416 338.398L258.231 326.318C261.533 324.83 263.962 327.922 261.328 330.408C257.462 334.057 252.443 337.824 246.819 339.931C249.694 338.906 255.198 338.457 254.213 344.855V354.088L255.364 357.921C255.787 359.331 255.347 360.882 254.103 361.668C252.19 362.877 249.705 363.971 247.435 363.855L239.303 367.057C237.89 367.614 236.961 368.978 236.961 370.497V371.933Z" fill="white"/>
<path d="M236.961 371.933C234.702 373.37 229.937 376.365 228.951 376.857C228.468 377.099 225.601 373.117 222.174 367.979M236.961 371.933L230.579 362.701M236.961 371.933V370.497C236.961 368.978 237.89 367.614 239.303 367.057L247.435 363.855M219.093 346.083L214.408 349.593C212.875 350.741 212.472 352.871 213.49 354.494C214.143 355.535 214.838 356.639 215.56 357.777M219.093 346.083L223.773 352.853M219.093 346.083C222.355 344.03 226.704 341.256 231.416 338.398M215.56 357.777L223.773 352.853M215.56 357.777C217.688 361.133 220.039 364.78 222.174 367.979M223.773 352.853L230.579 362.701M222.174 367.979L230.579 362.701M231.416 338.398C236.55 337.473 245.464 340.878 244.971 351.218M231.416 338.398L258.231 326.318C261.533 324.83 263.962 327.922 261.328 330.408C257.462 334.057 252.443 337.824 246.819 339.931C249.694 338.906 255.198 338.457 254.213 344.855M254.213 344.855C252.254 347.007 247.417 351.21 243.125 351.594C242.726 351.63 242.336 351.483 242.025 351.229C240.572 350.041 234.521 352.1 233.69 353.783C233.435 354.299 233.264 354.617 233.264 354.617M254.213 344.855V354.088M242.506 351.626C241.479 353.059 239.918 356.789 241.89 357.777M241.89 357.777C243.862 358.765 250.927 355.729 254.213 354.088M241.89 357.777L243.507 361.55C243.66 361.907 243.862 362.245 244.146 362.509C245.107 363.398 246.241 363.794 247.435 363.855M254.213 354.088L255.364 357.921C255.787 359.331 255.347 360.882 254.103 361.668C252.19 362.877 249.705 363.971 247.435 363.855" stroke="black" stroke-width="2.15648"/>
<path d="M74.839 320.851L115.715 340.373H125.305C126.267 340.373 127.189 340.003 127.872 339.325C135.571 331.689 147.581 318.297 148.371 316.368C149.043 314.725 150.424 252.972 152.067 222.198C146.681 218.886 141.007 216.561 135.432 214.969C121.109 210.881 107.433 211.636 100.928 212.965C79.7328 215.919 67.4454 230.988 67.4454 230.988C48.35 250.553 47.7362 279.227 53.371 292.71C53.4476 292.894 53.5389 293.064 53.6456 293.231L68.79 316.983C69.1206 317.502 69.5754 317.929 70.1132 318.228L74.839 320.851Z" fill="white"/>
<path d="M115.715 340.373L74.839 320.851L70.1132 318.228C69.5754 317.929 69.1206 317.502 68.79 316.983L53.6456 293.231C53.5389 293.064 53.4476 292.894 53.371 292.71C47.7362 279.227 48.35 250.553 67.4454 230.988C67.4454 230.988 79.7328 215.919 100.928 212.965C107.433 211.636 121.109 210.881 135.432 214.969M115.715 340.373V333.602M115.715 340.373H125.305C126.267 340.373 127.189 340.003 127.872 339.325C135.571 331.689 147.581 318.297 148.371 316.368C149.043 314.725 150.424 252.972 152.067 222.198M152.067 222.198L127.818 226.924C127.156 227.053 126.545 227.356 126.049 227.812C114.939 238.023 98.2293 256.316 97.2311 260.358L94.8038 277.332C94.779 277.505 94.7666 277.68 94.7666 277.855V289.493C94.7666 290.163 94.949 290.821 95.2943 291.396L111.221 317.914C111.342 318.114 111.481 318.303 111.637 318.477L119.456 327.206C120.8 328.707 123.099 328.855 124.624 327.539L135.432 318.215M152.067 222.198C146.681 218.886 141.007 216.561 135.432 214.969M111.402 327.447C101.949 320.235 89.0102 301.155 86.7568 290.518M90.9362 252.531C88.8825 244.839 91.5627 239.715 135.432 214.969" stroke="black" stroke-width="2.15648" stroke-linecap="round"/>
<path d="M126.672 314.498L128.023 321.84C128.319 323.445 127.527 325.054 126.075 325.798L123.402 327.17C121.749 328.019 119.722 327.508 118.669 325.977L93.4009 289.262L94.0571 276.49L94.6332 265.258L100.076 247.328C100.144 247.104 100.228 246.894 100.341 246.689C106.818 234.978 134.469 216.646 152.55 222.173C159.388 223.971 164.452 228.065 167.407 231.342C168.573 232.635 167.585 234.483 165.844 234.483C164.082 234.483 163.003 236.424 163.922 237.927C165.85 241.078 168.602 245.669 170.049 248.509C170.299 248.999 170.418 249.541 170.418 250.091V251.148C170.418 253.397 168.426 255.126 166.199 254.808L161.792 254.179V256.025L162.408 288.229C161.997 298.627 154.275 318.437 126.672 314.498Z" fill="white"/>
<path d="M126.672 314.498L128.023 321.84C128.319 323.445 127.527 325.054 126.075 325.798L123.402 327.17C121.749 328.019 119.722 327.508 118.669 325.977L93.4009 289.262M126.672 314.498C123.386 313.677 116.568 311.543 115.582 309.574M126.672 314.498C154.275 318.437 161.997 298.627 162.408 288.229L161.792 256.025V254.179M161.792 254.179L166.199 254.808C168.426 255.126 170.418 253.397 170.418 251.148V250.091C170.418 249.541 170.299 248.999 170.049 248.509C168.602 245.669 165.85 241.078 163.922 237.927C163.003 236.424 164.082 234.483 165.844 234.483C167.585 234.483 168.573 232.635 167.407 231.342C164.452 228.065 159.388 223.971 152.55 222.173C134.469 216.646 106.818 234.978 100.341 246.689C100.228 246.894 100.144 247.104 100.076 247.328L94.6332 265.258M161.792 254.179L137.276 246.193C136.12 245.816 135.175 247.163 135.922 248.122L139.075 252.171C140.581 254.105 139.799 256.958 137.374 257.314C127.307 258.791 118.084 252.252 113.138 247.079C112.393 246.299 111.01 246.69 110.851 247.757L108.424 264.095L107.285 269.774C106.859 271.903 104.312 272.802 102.643 271.413M94.6332 265.258L102.643 271.413M94.6332 265.258L94.0571 276.49M102.643 271.413L102.027 262.18M94.0571 276.49L93.4009 289.262M94.0571 276.49C95.0743 275.019 97.1664 274.499 98.3577 275.833C98.71 276.228 98.9461 276.618 98.9461 276.952M93.4009 289.262C95.6601 289.467 100.178 289.385 100.178 287.416M129.753 291.724C130.78 293.776 134.682 297.633 142.076 296.648M148.237 285.569C150.022 285.569 153.299 284.537 152.637 280.478C152.588 280.18 152.482 279.893 152.346 279.623L148.237 271.413" stroke="black" stroke-width="2.15648" stroke-linecap="round"/>
<ellipse cx="131.602" cy="268.533" rx="3.69682" ry="7.38596" fill="black"/>
<ellipse cx="154.587" cy="268.911" rx="3.06348" ry="6.1206" fill="black"/>
<path d="M210.924 512.877C222.529 510.224 240.883 500.336 248.61 495.723L251.758 508.117L227.928 514.136C236.41 518.102 227.542 524.877 222.048 527.768L220.888 523.202C216.203 525.774 204.205 528.457 200.821 528.271C197.919 528.111 194.806 533.492 193.533 536.359L192.373 531.793C191.958 530.162 195.713 526.553 199.578 523.378C188.645 524.474 184.784 530.817 184.22 533.852L182.847 527.768L181.799 523.009L186.467 519.054C198.015 511.972 205.469 510.668 210.924 512.877Z" fill="white"/>
<path d="M186.467 519.054C198.015 511.972 205.469 510.668 210.924 512.877C222.529 510.224 240.883 500.336 248.61 495.723L251.758 508.117L227.928 514.136C236.41 518.102 227.542 524.877 222.048 527.768L220.888 523.202M186.467 519.054L187.793 524.272C188.676 521.62 193.199 516.659 204.228 518.039M186.467 519.054L181.799 523.009L182.847 527.768L184.22 533.852C184.784 530.817 188.645 524.474 199.578 523.378C195.713 526.553 191.958 530.162 192.373 531.793L193.533 536.359C194.806 533.492 197.919 528.111 200.821 528.271C204.205 528.457 216.203 525.774 220.888 523.202M220.888 523.202L219.645 518.31" stroke="black" stroke-width="1.54156" stroke-linecap="round"/>
<path d="M428.628 523.865C420.426 515.26 410.607 496.907 406.723 488.806L397.231 497.402L413.758 515.547C404.49 514.18 408.127 524.712 411.104 530.149L414.601 526.982C417.082 531.707 425.595 540.553 428.519 542.262C431.026 543.727 430.639 549.927 430.112 553.018L433.609 549.852C434.858 548.721 433.728 543.644 432.266 538.869C440.772 545.805 440.475 553.219 439.263 556.059L443.778 551.745L447.289 548.356L445.59 542.487C439.889 530.223 434.399 525.029 428.628 523.865Z" fill="white"/>
<path d="M445.59 542.487C439.889 530.223 434.399 525.029 428.628 523.865C420.426 515.26 410.607 496.907 406.723 488.806L397.231 497.402L413.758 515.547C404.49 514.18 408.127 524.712 411.104 530.149L414.601 526.982M445.59 542.487L441.593 546.107C442.327 543.409 441.306 536.783 431.349 531.857M445.59 542.487L447.289 548.356L443.778 551.745L439.263 556.059C440.475 553.219 440.772 545.805 432.266 538.869C433.728 543.644 434.858 548.721 433.609 549.852L430.112 553.018C430.639 549.927 431.026 543.727 428.519 542.262C425.595 540.553 417.082 531.707 414.601 526.982M414.601 526.982L418.348 523.589" stroke="black" stroke-width="1.54156" stroke-linecap="round"/>
<path d="M287.579 596.345C287.579 593.887 294.287 586.603 298.078 583.259L286.704 580.206L277.955 590.675C274.105 595.909 278.975 607.395 281.892 612.484H277.955C268.155 613.531 265.705 621.062 265.705 624.697C267.455 626.791 287.141 625.57 296.765 624.697C298.165 623.999 297.349 621.208 296.765 619.899C291.078 610.739 287.579 600.707 287.579 596.345Z" fill="white" stroke="black" stroke-width="1.74987" stroke-linecap="round"/>
<path d="M356.949 596.399C356.95 593.941 363.657 586.658 367.448 583.314L356.074 580.26L347.325 590.729C343.475 595.963 348.346 607.449 351.262 612.538H347.325C337.526 613.585 335.076 621.117 335.076 624.751C336.826 626.845 356.512 625.624 366.136 624.751C367.536 624.054 366.719 621.262 366.136 619.953C360.449 610.793 356.949 600.761 356.949 596.399Z" fill="white" stroke="black" stroke-width="1.74987" stroke-linecap="round"/>
<path d="M406.641 556.749C406.641 610.625 244.124 614.363 244.124 560.864V440C244.124 432.804 248.788 420.475 263.021 415.511C264.184 415.105 265.012 414.032 265.012 412.799V410.925C265.012 410.184 264.706 409.48 264.202 408.936C260.933 405.409 260.921 402.844 264.166 399.442C264.69 398.892 265.012 398.173 265.012 397.414V387.111C265.012 386.159 265.476 385.273 266.34 384.872C284.526 376.421 370.283 377.291 385.954 385.332C386.734 385.733 387.13 386.563 387.13 387.44V396.401C387.13 397.208 387.493 397.967 388.078 398.524C391.707 401.977 391.632 404.621 387.855 408.961C387.399 409.485 387.13 410.153 387.13 410.848V413.076C387.13 414.173 387.788 415.159 388.773 415.642C402.733 422.491 405.034 434.334 405.034 440L406.641 556.749Z" fill="white" stroke="black" stroke-width="1.6068" stroke-linecap="round"/>
<ellipse cx="325.382" cy="390.351" rx="51.8768" ry="7.78164" stroke="black" stroke-width="1.6068"/>
<path d="M387.302 396.302C383.981 397.741 379.113 399.049 372.976 400.151C366.839 401.252 359.553 402.126 351.535 402.723C343.516 403.319 334.922 403.626 326.243 403.626C317.564 403.626 308.97 403.319 300.952 402.723C292.934 402.126 285.648 401.252 279.511 400.151C273.374 399.049 268.506 397.741 265.185 396.302" stroke="black" stroke-width="1.6068"/>
<path d="M387.359 410.034C384.038 411.474 379.17 412.781 373.033 413.883C366.896 414.985 359.61 415.859 351.592 416.455C343.573 417.051 334.979 417.358 326.3 417.358C317.621 417.358 309.027 417.051 301.009 416.455C292.991 415.859 285.705 414.985 279.568 413.883C273.431 412.781 268.104 411.474 264.783 410.034" stroke="black" stroke-width="1.6068"/>
<path d="M336.775 421.703C328.059 422.478 316.309 422.455 304.111 421.64C291.913 420.825 280.265 419.285 271.73 417.358" stroke="black" stroke-width="1.6068" stroke-linecap="round"/>
<path d="M262.506 421.478C256.519 424.682 255.161 426.055 255.161 434.295V548.731" stroke="black" stroke-width="1.6068" stroke-linecap="round"/>
<path d="M279.717 426.513C280.03 426.672 280.362 426.828 280.678 426.979C283.535 428.348 286.21 429.292 288.746 429.976C291.274 430.783 293.667 430.747 295.673 432.798C295.887 433.047 296.085 433.324 296.262 433.647C296.402 433.306 296.503 432.951 296.55 432.567C296.881 428.715 292.92 426.112 290.006 425.375C286.886 424.537 283.691 424.871 280.7 426.073C280.371 426.208 280.03 426.354 279.717 426.513Z" fill="black"/>
<path d="M332.036 426.513C331.723 426.672 331.391 426.828 331.076 426.979C328.218 428.348 325.543 429.292 323.007 429.976C320.479 430.783 318.087 430.747 316.08 432.798C315.866 433.047 315.668 433.324 315.491 433.647C315.351 433.306 315.25 432.951 315.204 432.567C314.872 428.715 318.834 426.112 321.747 425.375C324.868 424.537 328.063 424.871 331.053 426.073C331.383 426.208 331.723 426.354 332.036 426.513Z" fill="black"/>
<path d="M284.189 436.295C291.79 436.295 297.628 443.892 297.628 452.818C297.628 461.744 291.79 469.341 284.189 469.341C276.589 469.341 270.751 461.744 270.751 452.818C270.751 443.892 276.589 436.295 284.189 436.295Z" stroke="black" stroke-width="1.83635"/>
<path d="M328.011 436.295C335.612 436.295 341.45 443.892 341.45 452.818C341.45 461.744 335.612 469.341 328.011 469.341C320.411 469.341 314.573 461.744 314.573 452.818C314.573 443.892 320.411 436.295 328.011 436.295Z" stroke="black" stroke-width="1.83635"/>
<path d="M285.531 466.64C284.063 466.64 282.609 466.294 281.253 465.622C279.896 464.95 278.664 463.964 277.626 462.722C276.588 461.48 275.764 460.006 275.203 458.383C274.641 456.76 274.352 455.021 274.352 453.264C274.352 451.508 274.641 449.768 275.203 448.146C275.764 446.523 276.588 445.048 277.626 443.806C278.664 442.564 279.896 441.579 281.253 440.907C282.609 440.235 284.063 439.889 285.531 439.889L285.531 450.431C285.22 450.431 284.912 450.504 284.624 450.646C284.337 450.789 284.076 450.998 283.856 451.261C283.636 451.524 283.462 451.836 283.343 452.18C283.224 452.524 283.162 452.892 283.162 453.264C283.162 453.636 283.224 454.005 283.343 454.349C283.462 454.692 283.636 455.005 283.856 455.268C284.076 455.531 284.337 455.74 284.624 455.882C284.912 456.025 285.22 456.098 285.531 456.098V466.64Z" fill="black"/>
<path d="M329.353 466.64C327.885 466.64 326.431 466.294 325.075 465.622C323.718 464.95 322.486 463.964 321.448 462.722C320.41 461.48 319.586 460.006 319.025 458.383C318.463 456.76 318.174 455.021 318.174 453.264C318.174 451.508 318.463 449.768 319.025 448.146C319.586 446.523 320.41 445.048 321.448 443.806C322.486 442.564 323.718 441.579 325.075 440.907C326.431 440.235 327.885 439.889 329.353 439.889L329.353 450.431C329.042 450.431 328.734 450.504 328.446 450.646C328.159 450.789 327.898 450.998 327.678 451.261C327.458 451.524 327.284 451.836 327.165 452.18C327.046 452.524 326.985 452.892 326.985 453.264C326.985 453.636 327.046 454.005 327.165 454.349C327.284 454.692 327.458 455.005 327.678 455.268C327.898 455.531 328.159 455.74 328.446 455.882C328.734 456.025 329.042 456.098 329.353 456.098V466.64Z" fill="black"/>
<path d="M279.014 431.09L300.031 441.345L304.95 435.103" stroke="black" stroke-width="1.92918" stroke-linecap="round"/>
<path d="M335.25 431.09L314.233 441.345L309.314 435.103" stroke="black" stroke-width="1.83635" stroke-linecap="round"/>
<path d="M389.196 428.344C395.183 429.934 396.541 430.616 396.541 434.706V491.512" stroke="black" stroke-width="1.6068" stroke-linecap="round"/>
<path d="M297.837 471.372L255.142 515.316V530.879L297.837 486.478L322.628 503.872L370.373 450.316L378.636 454.893L376.8 430.175L352.009 438.415L360.732 443.908L320.332 488.309L297.837 471.372Z" fill="#1E8C62" stroke="black" stroke-width="1.6068" stroke-linecap="round"/>
<path d="M265.242 436.583V457.64M265.242 465.421V480.069" stroke="black" stroke-width="1.6068" stroke-linecap="round"/>
<path d="M389.196 475.034H374.265V578.027L376.641 577.169L378.677 575.453L381.391 573.449L383.088 570.303L386.82 563.437L388.996 555.575C389.128 555.096 389.196 554.602 389.196 554.106V475.034Z" fill="#1E8C62"/>
<path d="M374.505 578.484V475.034H389.196V553.483" stroke="black" stroke-width="1.83635"/>
<path d="M389.195 553.308C389.195 563.607 381.391 577.569 375.423 577.569" stroke="black" stroke-width="1.83635"/>
<path d="M354.305 497.008V580.673L344.647 585.697L334.105 580.652V497.008H354.305Z" fill="#1E8C62" stroke="black" stroke-width="1.83635"/>
<path d="M291.869 505.245H314.823V586.364L311.171 585.688L308.041 584.336L303.868 582.758L301.051 580.595L297.837 578.071L295.521 574.872L292.531 569.338C292.096 568.533 291.869 567.634 291.869 566.719V505.245Z" fill="#1E8C62"/>
<path d="M314.455 586.723V505.245H291.869V567.033" stroke="black" stroke-width="1.83635"/>
<path d="M291.869 566.753C291.869 575.54 304.729 585.808 313.905 585.808" stroke="black" stroke-width="1.83635"/>
<path d="M262.487 531.794H285.442V578.278L281.79 577.891L278.66 577.116L274.486 576.212L271.669 574.972L268.456 573.526L266.139 571.693L263.988 569.411C263.024 568.389 262.487 567.037 262.487 565.632V531.794Z" fill="#1E8C62"/>
<path d="M285.073 578.484V531.794H262.487V567.201" stroke="black" stroke-width="1.83635"/>
<path d="M262.487 567.041C262.487 572.076 275.348 577.569 284.524 577.569" stroke="black" stroke-width="1.83635"/>
<path d="M255.142 571.162C284.561 595.884 365.843 598.001 396.541 570.245" stroke="black" stroke-width="1.6068" stroke-linecap="round"/>
<defs>
<filter id="filter0_f_2122_608" x="-287.907" y="0.000221252" width="1062.81" height="842.8" filterUnits="userSpaceOnUse" color-interpolation-filters="sRGB">
<feFlood flood-opacity="0" result="BackgroundImageFix"/>
<feBlend mode="normal" in="SourceGraphic" in2="BackgroundImageFix" result="shape"/>
<feGaussianBlur stdDeviation="37.9537" result="effect1_foregroundBlur_2122_608"/>
</filter>
<radialGradient id="paint0_radial_2122_608" cx="0" cy="0" r="1" gradientUnits="userSpaceOnUse" gradientTransform="translate(243.5 421.4) rotate(90) scale(345.492 455.5)">
<stop offset="0.05" stop-color="#1E8C62"/>
<stop offset="0.85" stop-color="#00FF9D" stop-opacity="0"/>
</radialGradient>
</defs>
</svg>
