<svg width="70" height="70" viewBox="0 0 70 70" fill="none" xmlns="http://www.w3.org/2000/svg">
<g filter="url(#filter0_i_2199_603)">
<path d="M34.9418 5.94141C50.9579 5.94145 63.9418 18.9252 63.9418 34.9414C63.9418 50.9576 50.9579 63.9414 34.9418 63.9414C18.9256 63.9414 5.94178 50.9577 5.94177 34.9414C5.94177 18.9252 18.9256 5.94141 34.9418 5.94141ZM34.2963 13.624C32.2722 13.6242 31.2158 15.4008 31.2152 16.8135V16.8145C31.2154 17.3161 31.3318 17.8143 31.5531 18.2637L31.5336 20.7451L30.9613 20.8467L30.9535 20.8477C29.5068 21.1081 28.8911 22.3846 28.8881 23.3242V24.2617C28.8895 24.6332 29.0062 25.0731 29.2299 25.4814C28.3686 25.79 27.5661 26.2012 26.8373 26.7275C24.8114 28.1909 23.6949 30.265 23.6947 32.7686L23.6996 33.0596C23.74 34.5101 24.0888 35.9189 24.9369 37.1064C25.3175 37.6393 25.7706 38.1041 26.2777 38.5088C25.9195 38.6748 25.5772 38.8809 25.2611 39.1367L25.2386 39.1543L25.2162 39.1729C24.1807 40.0532 23.5746 41.2662 23.5746 42.6729V42.6934L23.5756 42.7148C23.6194 45.2287 24.9765 47.1554 27.0814 48.4258L27.1019 48.4385L27.1234 48.4502C28.3433 49.1532 29.7264 49.609 31.2308 49.8643L31.9301 54.3369L36.6713 54.3418L37.3724 49.918C39.2034 49.643 40.859 49.0746 42.2601 48.1289L42.2611 48.1299C44.4589 46.6647 45.7171 44.5261 45.7172 41.877L45.7054 41.4102C45.5913 39.0972 44.6193 37.1048 42.7689 35.6533C42.7591 35.6455 42.7485 35.6386 42.7386 35.6309C42.8387 35.5764 42.9381 35.5201 43.0336 35.458L43.0345 35.457C44.3453 34.6046 44.921 33.2548 44.9213 31.8545C44.9213 29.2948 43.3975 27.4545 41.264 26.3164H41.2631C40.6623 25.9882 40.0285 25.7143 39.3646 25.4922C39.5925 25.0805 39.7127 24.6353 39.7133 24.2559V23.333C39.7133 22.3726 39.0819 21.1049 37.6449 20.8477L37.6322 20.8447L37.0863 20.75L37.0668 18.2061C37.2699 17.7721 37.3772 17.2953 37.3773 16.8145V16.8135C37.3767 15.3985 36.3185 13.6259 34.2982 13.624H34.2963ZM34.2963 16.0244C34.6716 16.0248 34.9767 16.3783 34.9769 16.8145C34.9768 17.0942 34.8494 17.3391 34.6605 17.4795L34.7025 22.7734L37.222 23.21C37.274 23.2193 37.3129 23.2718 37.3129 23.333V24.2529C37.3126 24.3303 37.2514 24.3893 37.1859 24.375L35.6117 24.0215V27.1807C37.374 27.3271 38.8815 27.7447 40.1342 28.4336C41.7251 29.2821 42.5209 30.4227 42.5209 31.8545C42.5207 32.57 42.2559 33.1007 41.726 33.4453C41.1956 33.7899 40.3194 33.9754 39.1 34.002C38.8348 32.9414 38.3316 32.1455 37.5892 31.6152C37.076 31.2487 36.4163 31.0126 35.6117 30.8994V35.1709C38.187 35.7852 40.0797 36.575 41.2885 37.542C42.6404 38.6026 43.3168 40.0476 43.3168 41.877C43.3167 43.6533 42.5209 45.0723 40.9301 46.1328C39.5233 47.0864 37.6444 47.61 35.2943 47.7061L34.3011 53.9658L33.3197 47.6875C31.3059 47.5678 29.6394 47.1305 28.3217 46.3711C26.7843 45.4432 26.0017 44.2103 25.975 42.6729C25.975 42.0101 26.2408 41.4527 26.7709 41.002C27.3277 40.5513 28.2029 40.3127 29.3959 40.2861C29.6345 41.4527 30.1918 42.3539 31.0668 42.9902C31.6362 43.3871 32.2845 43.6534 33.0111 43.792V38.7334C31.4763 38.3358 30.2445 37.9395 29.3168 37.542C28.2297 37.0647 27.4203 36.4543 26.89 35.7119C26.3599 34.9696 26.0951 33.988 26.0951 32.7686C26.0952 31.072 26.8112 29.7068 28.2426 28.6729C29.453 27.7986 31.0427 27.2943 33.0111 27.1592V24.0098L31.4154 24.374C31.3499 24.3888 31.2889 24.3304 31.2885 24.2529V23.332C31.2887 23.2712 31.3266 23.2194 31.3783 23.21L33.9193 22.7617L33.9603 17.498C33.7559 17.3618 33.6158 17.1079 33.6156 16.8145C33.6158 16.3782 33.9208 16.0246 34.2963 16.0244ZM35.6117 43.8359C36.3352 43.7561 36.9417 43.6075 37.4301 43.3887C38.1989 43.044 38.5833 42.5261 38.5834 41.8369C38.5833 41.2007 38.2654 40.6702 37.6293 40.2461C37.225 39.9649 36.5519 39.6855 35.6117 39.4043V43.8359ZM33.0111 30.9541C32.5829 31.0402 32.186 31.1678 31.8217 31.3369C31.1061 31.6816 30.7484 32.1328 30.7484 32.6895C30.7485 33.2725 31.0529 33.7239 31.6625 34.042C31.9854 34.2105 32.4355 34.3774 33.0111 34.5459V30.9541Z" fill="#1E8C62"/>
</g>
<g opacity="0.75" filter="url(#filter1_f_2199_603)">
<path d="M34.9418 5.94141C50.9579 5.94145 63.9418 18.9252 63.9418 34.9414C63.9418 50.9576 50.9579 63.9414 34.9418 63.9414C18.9256 63.9414 5.94178 50.9577 5.94177 34.9414C5.94177 18.9252 18.9256 5.94141 34.9418 5.94141ZM34.2963 13.624C32.2722 13.6242 31.2158 15.4008 31.2152 16.8135V16.8145C31.2154 17.3161 31.3318 17.8143 31.5531 18.2637L31.5336 20.7451L30.9613 20.8467L30.9535 20.8477C29.5068 21.1081 28.8911 22.3846 28.8881 23.3242V24.2617C28.8895 24.6332 29.0062 25.0731 29.2299 25.4814C28.3686 25.79 27.5661 26.2012 26.8373 26.7275C24.8114 28.1909 23.6949 30.265 23.6947 32.7686L23.6996 33.0596C23.74 34.5101 24.0888 35.9189 24.9369 37.1064C25.3175 37.6393 25.7706 38.1041 26.2777 38.5088C25.9195 38.6748 25.5772 38.8809 25.2611 39.1367L25.2386 39.1543L25.2162 39.1729C24.1807 40.0532 23.5746 41.2662 23.5746 42.6729V42.6934L23.5756 42.7148C23.6194 45.2287 24.9765 47.1554 27.0814 48.4258L27.1019 48.4385L27.1234 48.4502C28.3433 49.1532 29.7264 49.609 31.2308 49.8643L31.9301 54.3369L36.6713 54.3418L37.3724 49.918C39.2034 49.643 40.859 49.0746 42.2601 48.1289L42.2611 48.1299C44.4589 46.6647 45.7171 44.5261 45.7172 41.877L45.7054 41.4102C45.5913 39.0972 44.6193 37.1048 42.7689 35.6533C42.7591 35.6455 42.7485 35.6386 42.7386 35.6309C42.8387 35.5764 42.9381 35.5201 43.0336 35.458L43.0345 35.457C44.3453 34.6046 44.921 33.2548 44.9213 31.8545C44.9213 29.2948 43.3975 27.4545 41.264 26.3164H41.2631C40.6623 25.9882 40.0285 25.7143 39.3646 25.4922C39.5925 25.0805 39.7127 24.6353 39.7133 24.2559V23.333C39.7133 22.3726 39.0819 21.1049 37.6449 20.8477L37.6322 20.8447L37.0863 20.75L37.0668 18.2061C37.2699 17.7721 37.3772 17.2953 37.3773 16.8145V16.8135C37.3767 15.3985 36.3185 13.6259 34.2982 13.624H34.2963ZM34.2963 16.0244C34.6716 16.0248 34.9767 16.3783 34.9769 16.8145C34.9768 17.0942 34.8494 17.3391 34.6605 17.4795L34.7025 22.7734L37.222 23.21C37.274 23.2193 37.3129 23.2718 37.3129 23.333V24.2529C37.3126 24.3303 37.2514 24.3893 37.1859 24.375L35.6117 24.0215V27.1807C37.374 27.3271 38.8815 27.7447 40.1342 28.4336C41.7251 29.2821 42.5209 30.4227 42.5209 31.8545C42.5207 32.57 42.2559 33.1007 41.726 33.4453C41.1956 33.7899 40.3194 33.9754 39.1 34.002C38.8348 32.9414 38.3316 32.1455 37.5892 31.6152C37.076 31.2487 36.4163 31.0126 35.6117 30.8994V35.1709C38.187 35.7852 40.0797 36.575 41.2885 37.542C42.6404 38.6026 43.3168 40.0476 43.3168 41.877C43.3167 43.6533 42.5209 45.0723 40.9301 46.1328C39.5233 47.0864 37.6444 47.61 35.2943 47.7061L34.3011 53.9658L33.3197 47.6875C31.3059 47.5678 29.6394 47.1305 28.3217 46.3711C26.7843 45.4432 26.0017 44.2103 25.975 42.6729C25.975 42.0101 26.2408 41.4527 26.7709 41.002C27.3277 40.5513 28.2029 40.3127 29.3959 40.2861C29.6345 41.4527 30.1918 42.3539 31.0668 42.9902C31.6362 43.3871 32.2845 43.6534 33.0111 43.792V38.7334C31.4763 38.3358 30.2445 37.9395 29.3168 37.542C28.2297 37.0647 27.4203 36.4543 26.89 35.7119C26.3599 34.9696 26.0951 33.988 26.0951 32.7686C26.0952 31.072 26.8112 29.7068 28.2426 28.6729C29.453 27.7986 31.0427 27.2943 33.0111 27.1592V24.0098L31.4154 24.374C31.3499 24.3888 31.2889 24.3304 31.2885 24.2529V23.332C31.2887 23.2712 31.3266 23.2194 31.3783 23.21L33.9193 22.7617L33.9603 17.498C33.7559 17.3618 33.6158 17.1079 33.6156 16.8145C33.6158 16.3782 33.9208 16.0246 34.2963 16.0244ZM35.6117 43.8359C36.3352 43.7561 36.9417 43.6075 37.4301 43.3887C38.1989 43.044 38.5833 42.5261 38.5834 41.8369C38.5833 41.2007 38.2654 40.6702 37.6293 40.2461C37.225 39.9649 36.5519 39.6855 35.6117 39.4043V43.8359ZM33.0111 30.9541C32.5829 31.0402 32.186 31.1678 31.8217 31.3369C31.1061 31.6816 30.7484 32.1328 30.7484 32.6895C30.7485 33.2725 31.0529 33.7239 31.6625 34.042C31.9854 34.2105 32.4355 34.3774 33.0111 34.5459V30.9541Z" fill="#1E8C62"/>
</g>
<defs>
<filter id="filter0_i_2199_603" x="5.94177" y="5.94141" width="58" height="60.8902" filterUnits="userSpaceOnUse" color-interpolation-filters="sRGB">
<feFlood flood-opacity="0" result="BackgroundImageFix"/>
<feBlend mode="normal" in="SourceGraphic" in2="BackgroundImageFix" result="shape"/>
<feColorMatrix in="SourceAlpha" type="matrix" values="0 0 0 0 0 0 0 0 0 0 0 0 0 0 0 0 0 0 127 0" result="hardAlpha"/>
<feOffset dy="2.8902"/>
<feGaussianBlur stdDeviation="1.4451"/>
<feComposite in2="hardAlpha" operator="arithmetic" k2="-1" k3="1"/>
<feColorMatrix type="matrix" values="0 0 0 0 1 0 0 0 0 1 0 0 0 0 1 0 0 0 0.25 0"/>
<feBlend mode="normal" in2="shape" result="effect1_innerShadow_2199_603"/>
</filter>
<filter id="filter1_f_2199_603" x="-1.57356e-05" y="-0.000381947" width="69.8836" height="69.8836" filterUnits="userSpaceOnUse" color-interpolation-filters="sRGB">
<feFlood flood-opacity="0" result="BackgroundImageFix"/>
<feBlend mode="normal" in="SourceGraphic" in2="BackgroundImageFix" result="shape"/>
<feGaussianBlur stdDeviation="2.97089" result="effect1_foregroundBlur_2199_603"/>
</filter>
</defs>
</svg>
