<svg width="40" height="40" viewBox="0 0 40 40" fill="none" xmlns="http://www.w3.org/2000/svg">
<g opacity="0.75" filter="url(#filter0_f_447_2628)">
<path fill-rule="evenodd" clip-rule="evenodd" d="M33.3678 21.7778C31.3792 23.3887 28.8643 24.2702 26.2673 24.2667C20.1592 24.2667 15.2073 19.4908 15.2073 13.6C15.2073 9.43076 17.6877 5.82044 21.3028 4.06542C20.87 4.02182 20.4352 3.99998 20 4C13.5874 4 8.24177 8.73316 7.69393 14.8942L7.34001 18.8693C7.19727 20.4773 6.66515 22.0306 5.78645 23.4041L4.70258 25.0994C4.0294 26.1497 3.78681 27.3636 4.21004 28.4388C4.64949 29.5573 5.70535 30.2677 7.05835 30.4412C9.47532 30.7513 13.454 31.0222 20 31.0222C26.546 31.0222 30.5246 30.7513 32.9424 30.4412C34.2946 30.2677 35.3505 29.5573 35.7899 28.4388C36.2132 27.3636 35.9706 26.149 35.2981 25.0994L34.2135 23.4041C33.8827 22.8871 33.5992 22.3428 33.3678 21.7778ZM13.9863 32.7104C15.7124 32.7673 17.7032 32.8 20.0007 32.8C22.2982 32.8 24.289 32.7673 26.0144 32.7104C25.3926 33.7137 24.5116 34.5442 23.4574 35.1208C22.4032 35.6974 21.2119 36.0003 20 36C18.7881 36.0003 17.5968 35.6974 16.5426 35.1208C15.4884 34.5442 14.6081 33.7137 13.9863 32.7104ZM26.2673 22.1333C31.1536 22.1333 35.1153 18.3125 35.1153 13.6C35.1153 8.88747 31.1536 5.06667 26.2673 5.06667C21.381 5.06667 17.4193 8.88747 17.4193 13.6C17.4193 18.3125 21.381 22.1333 26.2673 22.1333ZM26.2673 7.91111C26.6584 7.91111 27.0335 8.06095 27.31 8.32767C27.5866 8.59439 27.742 8.95614 27.742 9.33333V12.1778H30.6913C31.0824 12.1778 31.4575 12.3276 31.734 12.5943C32.0106 12.8611 32.1659 13.2228 32.1659 13.6C32.1659 13.9772 32.0106 14.3389 31.734 14.6057C31.4575 14.8724 31.0824 15.0222 30.6913 15.0222H27.742V17.8667C27.742 18.2439 27.5866 18.6056 27.31 18.8723C27.0335 19.139 26.6584 19.2889 26.2673 19.2889C25.8762 19.2889 25.5011 19.139 25.2246 18.8723C24.948 18.6056 24.7926 18.2439 24.7926 17.8667V15.0222H21.8433C21.4522 15.0222 21.0771 14.8724 20.8006 14.6057C20.524 14.3389 20.3686 13.9772 20.3686 13.6C20.3686 13.2228 20.524 12.8611 20.8006 12.5943C21.0771 12.3276 21.4522 12.1778 21.8433 12.1778H24.7926V9.33333C24.7926 8.95614 24.948 8.59439 25.2246 8.32767C25.5011 8.06095 25.8762 7.91111 26.2673 7.91111Z" fill="#A7A7A7"/>
</g>
<path fill-rule="evenodd" clip-rule="evenodd" d="M33.3678 21.7778C31.3792 23.3887 28.8643 24.2702 26.2673 24.2667C20.1592 24.2667 15.2073 19.4908 15.2073 13.6C15.2073 9.43076 17.6877 5.82044 21.3028 4.06542C20.87 4.02182 20.4352 3.99998 20 4C13.5874 4 8.24177 8.73316 7.69393 14.8942L7.34001 18.8693C7.19727 20.4773 6.66515 22.0306 5.78645 23.4041L4.70258 25.0994C4.0294 26.1497 3.78681 27.3636 4.21004 28.4388C4.64949 29.5573 5.70535 30.2677 7.05835 30.4412C9.47532 30.7513 13.454 31.0222 20 31.0222C26.546 31.0222 30.5246 30.7513 32.9424 30.4412C34.2946 30.2677 35.3505 29.5573 35.7899 28.4388C36.2132 27.3636 35.9706 26.149 35.2981 25.0994L34.2135 23.4041C33.8827 22.8871 33.5992 22.3428 33.3678 21.7778ZM13.9863 32.7104C15.7124 32.7673 17.7032 32.8 20.0007 32.8C22.2982 32.8 24.289 32.7673 26.0144 32.7104C25.3926 33.7137 24.5116 34.5442 23.4574 35.1208C22.4032 35.6974 21.2119 36.0003 20 36C18.7881 36.0003 17.5968 35.6974 16.5426 35.1208C15.4884 34.5442 14.6081 33.7137 13.9863 32.7104ZM26.2673 22.1333C31.1536 22.1333 35.1153 18.3125 35.1153 13.6C35.1153 8.88747 31.1536 5.06667 26.2673 5.06667C21.381 5.06667 17.4193 8.88747 17.4193 13.6C17.4193 18.3125 21.381 22.1333 26.2673 22.1333ZM26.2673 7.91111C26.6584 7.91111 27.0335 8.06095 27.31 8.32767C27.5866 8.59439 27.742 8.95614 27.742 9.33333V12.1778H30.6913C31.0824 12.1778 31.4575 12.3276 31.734 12.5943C32.0106 12.8611 32.1659 13.2228 32.1659 13.6C32.1659 13.9772 32.0106 14.3389 31.734 14.6057C31.4575 14.8724 31.0824 15.0222 30.6913 15.0222H27.742V17.8667C27.742 18.2439 27.5866 18.6056 27.31 18.8723C27.0335 19.139 26.6584 19.2889 26.2673 19.2889C25.8762 19.2889 25.5011 19.139 25.2246 18.8723C24.948 18.6056 24.7926 18.2439 24.7926 17.8667V15.0222H21.8433C21.4522 15.0222 21.0771 14.8724 20.8006 14.6057C20.524 14.3389 20.3686 13.9772 20.3686 13.6C20.3686 13.2228 20.524 12.8611 20.8006 12.5943C21.0771 12.3276 21.4522 12.1778 21.8433 12.1778H24.7926V9.33333C24.7926 8.95614 24.948 8.59439 25.2246 8.32767C25.5011 8.06095 25.8762 7.91111 26.2673 7.91111Z" fill="#A7A7A7"/>
<defs>
<filter id="filter0_f_447_2628" x="0" y="0" width="40" height="40" filterUnits="userSpaceOnUse" color-interpolation-filters="sRGB">
<feFlood flood-opacity="0" result="BackgroundImageFix"/>
<feBlend mode="normal" in="SourceGraphic" in2="BackgroundImageFix" result="shape"/>
<feGaussianBlur stdDeviation="2" result="effect1_foregroundBlur_447_2628"/>
</filter>
</defs>
</svg>
