<svg width="100" height="37" viewBox="0 0 100 37" fill="none" xmlns="http://www.w3.org/2000/svg">
<path d="M2.5 15.9097C1.11929 15.9097 0 17.029 0 18.4097C0 19.7904 1.11929 20.9097 2.5 20.9097L2.5 18.4097L2.5 15.9097ZM84.2678 20.1774C85.2441 19.2011 85.2441 17.6182 84.2678 16.6419L68.3579 0.731998C67.3816 -0.244312 65.7986 -0.244312 64.8223 0.731998C63.846 1.70831 63.846 3.29122 64.8223 4.26753L78.9645 18.4097L64.8223 32.5518C63.846 33.5281 63.846 35.111 64.8223 36.0873C65.7986 37.0636 67.3816 37.0636 68.3579 36.0873L84.2678 20.1774ZM2.5 18.4097L2.5 20.9097L82.5 20.9097V18.4097V15.9097L2.5 15.9097L2.5 18.4097Z" fill="white"/>
<path opacity="0.65" d="M97.5 15.9097C96.1193 15.9097 95 17.029 95 18.4097C95 19.7904 96.1193 20.9097 97.5 20.9097V18.4097V15.9097ZM99.2679 20.1774C100.244 19.2011 100.244 17.6182 99.2679 16.6419L83.358 0.731998C82.3817 -0.244312 80.7987 -0.244312 79.8224 0.731998C78.8461 1.70831 78.8461 3.29122 79.8224 4.26753L93.9646 18.4097L79.8224 32.5518C78.8461 33.5281 78.8461 35.111 79.8224 36.0873C80.7987 37.0636 82.3817 37.0636 83.358 36.0873L99.2679 20.1774ZM97.5 18.4097V20.9097H97.5001V18.4097V15.9097H97.5V18.4097Z" fill="white"/>
</svg>
