<svg width="78" height="95" viewBox="0 0 78 95" fill="none" xmlns="http://www.w3.org/2000/svg">
<path d="M59.2387 53.8049C66.5159 49.881 69.7582 52.801 70.3046 55.6012C70.3922 56.0501 69.95 56.8578 69.595 57.1462C69.0268 57.608 68.281 58.2488 67.7973 58.6715C67.7731 58.6926 67.7505 58.7157 67.7303 58.7406C66.4809 60.2777 67.6845 61.7602 68.4494 62.313C68.2139 62.7232 68.2991 63.2234 68.4305 63.5366C68.4426 63.5655 68.4587 63.5939 68.476 63.62C70.3558 66.4459 72.3606 64.9085 72.5105 63.6072L72.4419 64.259C72.4108 64.5549 72.5925 64.843 72.8886 64.8725C74.3079 65.0141 75.0363 63.6826 75.2332 62.9231L75.2874 63.182C75.3872 63.6587 75.9664 63.8324 76.2347 63.426C77.9025 60.8997 75.8146 57.9473 74.2828 56.6912C74.1898 56.6149 74.1175 56.5166 74.0771 56.4033L71.8881 50.262C68.5714 42.9048 61.1455 46.503 58.5469 48.2263C58.3772 48.3388 58.28 48.5305 58.28 48.7341V53.2501C58.28 53.7347 58.8121 54.0349 59.2387 53.8049Z" fill="white"/>
<path d="M74.9518 61.5788L75.2332 62.9231M75.2332 62.9231L75.2874 63.182C75.3872 63.6587 75.9664 63.8324 76.2347 63.426C77.9025 60.8997 75.8146 57.9473 74.2828 56.6912C74.1898 56.6149 74.1175 56.5166 74.0771 56.4033L71.8881 50.262C68.5714 42.9048 61.1455 46.503 58.5469 48.2263C58.3772 48.3388 58.28 48.5305 58.28 48.7341C58.28 50.6112 58.28 51.5611 58.28 53.2501C58.28 53.7347 58.8121 54.0349 59.2387 53.8049C66.5159 49.881 69.7582 52.801 70.3046 55.6012C70.3922 56.0501 69.95 56.8578 69.595 57.1462C69.0268 57.608 68.281 58.2488 67.7973 58.6715C67.7731 58.6926 67.7505 58.7157 67.7303 58.7406C66.4809 60.2777 67.6845 61.7602 68.4494 62.313M75.2332 62.9231C75.0363 63.6826 74.3079 65.0141 72.8886 64.8725C72.5925 64.843 72.4108 64.5549 72.4419 64.259L72.5134 63.5796M72.6385 62.3916L72.5134 63.5796M72.5134 63.5796C72.389 64.8865 70.3691 66.4659 68.476 63.62C68.4587 63.5939 68.4426 63.5655 68.4305 63.5366C68.2991 63.2234 68.2139 62.7232 68.4494 62.313M69.722 61.6117L69.3872 61.7039C68.8898 61.8187 68.6021 62.0469 68.4494 62.313M69.722 61.6117L69.3872 60.2033M69.722 61.6117L70.0125 62.8293" stroke="black" stroke-width="1.10873" stroke-linecap="round"/>
<path d="M18.1654 53.8049C10.8882 49.881 7.64584 52.801 7.09949 55.6012C7.0119 56.0501 7.45409 56.8578 7.80903 57.1462C8.3772 57.608 9.12309 58.2488 9.60672 58.6715C9.63091 58.6926 9.65351 58.7157 9.67377 58.7406C10.9232 60.2777 9.71955 61.7602 8.9547 62.313C9.19018 62.7232 9.105 63.2234 8.97355 63.5366C8.96143 63.5655 8.94538 63.5939 8.92803 63.62C7.04826 66.4459 5.04349 64.9085 4.89353 63.6072L4.96214 64.259C4.99328 64.5549 4.81153 64.843 4.51548 64.8725C3.09614 65.0141 2.36774 63.6826 2.17085 62.9231L2.11666 63.182C2.01688 63.6587 1.43764 63.8324 1.16933 63.426C-0.498442 60.8997 1.58945 57.9473 3.12122 56.6912C3.21425 56.6149 3.28655 56.5166 3.32694 56.4033L5.51593 50.262C8.83265 42.9048 16.2585 46.503 18.8572 48.2263C19.0269 48.3388 19.124 48.5305 19.124 48.7341V53.2501C19.124 53.7347 18.5919 54.0349 18.1654 53.8049Z" fill="white"/>
<path d="M2.45223 61.5788L2.17085 62.9231M2.17085 62.9231L2.11666 63.182C2.01688 63.6587 1.43764 63.8324 1.16933 63.426C-0.498442 60.8997 1.58945 57.9473 3.12122 56.6912C3.21425 56.6149 3.28655 56.5166 3.32694 56.4033L5.51593 50.262C8.83265 42.9048 16.2585 46.503 18.8572 48.2263C19.0269 48.3388 19.124 48.5305 19.124 48.7341C19.124 50.6112 19.124 51.5611 19.124 53.2501C19.124 53.7347 18.5919 54.0349 18.1654 53.8049C10.8882 49.881 7.64584 52.801 7.09949 55.6012C7.0119 56.0501 7.45409 56.8578 7.80903 57.1462C8.3772 57.608 9.12309 58.2488 9.60672 58.6715C9.63091 58.6926 9.65351 58.7157 9.67377 58.7406C10.9232 60.2777 9.71955 61.7602 8.9547 62.313M2.17085 62.9231C2.36774 63.6826 3.09614 65.0141 4.51548 64.8725C4.81153 64.843 4.99328 64.5549 4.96214 64.259L4.89062 63.5796M4.76558 62.3916L4.89062 63.5796M4.89062 63.5796C5.01509 64.8865 7.03495 66.4659 8.92803 63.62C8.94538 63.5939 8.96143 63.5655 8.97355 63.5366C9.105 63.2234 9.19018 62.7232 8.9547 62.313M7.68208 61.6117L8.01684 61.7039C8.5143 61.8187 8.80196 62.0469 8.9547 62.313M7.68208 61.6117L8.01684 60.2033M7.68208 61.6117L7.39159 62.8293" stroke="black" stroke-width="1.10873" stroke-linecap="round"/>
<path d="M28.1622 89.1461C27.7821 87.5966 27.0479 84.118 26.8438 81.3786C26.779 80.5082 27.4905 79.8103 28.3633 79.8103C29.414 79.8103 30.1813 80.803 29.9165 81.8198L29.861 82.0326C29.7633 82.4079 29.5162 82.7504 29.4491 83.1323C29.2005 84.548 30.4876 88.0445 31.5343 90.6454C31.9569 91.6956 31.3486 92.8706 30.235 93.0743C28.1149 93.462 24.9563 93.9245 23.4212 93.5807C21.6869 93.1139 22.5987 91.0133 24.2645 90.0797C25.5349 89.3677 28.2761 89.3795 28.1622 89.1461Z" fill="white" stroke="black" stroke-width="1.08994" stroke-linecap="round"/>
<path d="M27.2386 83.377L28.8836 83.1893" stroke="black" stroke-width="1.08994" stroke-linecap="round"/>
<path d="M27.2386 84.1972L29.0664 83.4661" stroke="black" stroke-width="1.08994" stroke-linecap="round"/>
<path d="M27.4218 82.814H29.2495" stroke="black" stroke-width="1.08994" stroke-linecap="round"/>
<path d="M46.0739 89.1461C45.6937 87.5966 44.9595 84.118 44.7555 81.3786C44.6906 80.5082 45.4021 79.8103 46.2749 79.8103C47.3256 79.8103 48.0929 80.803 47.8281 81.8198L47.7727 82.0326C47.6749 82.4079 47.4278 82.7504 47.3607 83.1323C47.1121 84.548 48.3992 88.0445 49.4459 90.6454C49.8685 91.6956 49.2602 92.8706 48.1466 93.0743C46.0266 93.462 42.868 93.9245 41.3328 93.5807C39.5985 93.1139 40.5104 91.0133 42.1761 90.0797C43.4465 89.3677 46.1878 89.3795 46.0739 89.1461Z" fill="white" stroke="black" stroke-width="1.08994" stroke-linecap="round"/>
<path d="M45.1503 83.377L46.7952 83.1893" stroke="black" stroke-width="1.08994" stroke-linecap="round"/>
<path d="M45.1503 84.1972L46.978 83.4661" stroke="black" stroke-width="1.08994" stroke-linecap="round"/>
<path d="M45.3339 82.814H47.1616" stroke="black" stroke-width="1.08994" stroke-linecap="round"/>
<path d="M17.4992 81.6383H21.2346C19.2517 81.6383 23.2353 34.1677 25.2751 8.25144C25.352 7.27485 24.6437 6.42543 23.6712 6.30814L16.7905 5.47835C16.4693 5.4396 16.1222 5.47921 15.9159 5.72848C12.1692 10.2552 13.9598 55.928 15.6802 79.9607C15.7485 80.9149 16.5426 81.6383 17.4992 81.6383Z" fill="black" stroke="black" stroke-width="0.788298" stroke-linecap="round"/>
<path d="M14.4127 80.6014C13.5489 57.8178 11.8153 16.2438 10.8114 5.46114C10.6931 4.19049 11.7794 2.79829 13.0244 3.07831C14.5731 3.42662 16.8289 4.10458 19.9282 5.23846L25.3246 5.78679C26.1017 3.0087 27.0154 1.18685 28.0863 0.636904C28.3547 0.499063 28.6691 0.534109 28.9567 0.625407L61.7317 11.0302C62.5176 11.2797 63.0392 12.0245 63.0048 12.8483L61.7836 42.1589C61.7226 54.3438 63.2458 77.7999 63.063 78.8965C62.8526 80.1586 38.5712 84.5625 21.3904 82.0037C19.313 82.2115 17.5522 81.8209 16.6383 81.6382C16.0869 81.575 15.6432 81.5698 15.2979 81.5667C14.7468 81.5618 14.4336 81.1521 14.4127 80.6014Z" fill="white"/>
<path d="M19.9282 5.23846C16.8289 4.10458 14.5731 3.42662 13.0244 3.07831C11.7794 2.79829 10.6931 4.19049 10.8114 5.46114C11.8153 16.2438 13.5489 57.8178 14.4127 80.6014C14.4336 81.1521 14.7468 81.5618 15.2979 81.5667C15.6432 81.5698 16.0869 81.5749 16.6383 81.6382M19.9282 5.23846C17.0038 4.87291 14.2622 5.60401 14.0794 22.602C14.0794 22.602 15.4807 61.821 16.6383 81.6382M19.9282 5.23846L25.3246 5.78679M21.3904 82.0037C38.5712 84.5625 62.8526 80.1586 63.063 78.8965C63.2457 77.7999 61.7226 54.3438 61.7836 42.1589L63.0048 12.8483C63.0392 12.0245 62.5176 11.2797 61.7317 11.0302L28.9567 0.625407C28.6691 0.534109 28.3547 0.499063 28.0862 0.636904C27.0154 1.18685 26.1017 3.0087 25.3246 5.78679M21.3904 82.0037C19.313 82.2115 17.5522 81.8209 16.6383 81.6382M21.3904 82.0037C20.9405 60.1578 21.3028 20.165 25.3246 5.78679" stroke="black" stroke-width="1.08994" stroke-linecap="round"/>
<path d="M18.5193 81.7823H21.4316C19.4545 81.7823 23.0614 33.7156 25.0891 7.7074C25.1719 6.64502 24.3314 5.74817 23.2658 5.74817H18.2976C11.2937 5.74817 15.8523 69.0377 16.7052 80.1323C16.7781 81.0813 17.5676 81.7823 18.5193 81.7823Z" fill="#2F2F2F" stroke="black" stroke-width="1.08994" stroke-linecap="round"/>
<path d="M36.3775 53.9992C29.9956 51.9777 29.6341 44.7386 30.2073 42.8024C30.3195 42.4238 30.6995 42.4513 31.0157 42.6879L33.3876 44.4635C33.8843 44.8353 34.5357 44.9298 35.1175 44.7143L44.5356 41.227C45.1432 41.0021 45.8515 41.1039 46.195 41.6533C47.1812 43.2311 47.2864 45.8119 46.9785 47.0667C45.2239 54.2182 38.8898 54.795 36.3775 53.9992Z" fill="white" stroke="black" stroke-width="1.12752" stroke-linecap="round"/>
<path d="M28.3355 39.9651L34.7326 43.9862L50.4285 32.6542L54.2895 37.9448L34.9634 46.1544L27.97 42.3412L28.3355 39.9651Z" fill="black"/>
<circle cx="36.5604" cy="47.4595" r="3.10716" fill="black"/>
<path d="M24.0439 62.6879C24.0439 62.6879 24.5451 72.5224 24.0439 77.3457H28.9299V62.6879C26.8001 62.6253 25.256 62.6882 24.0439 62.6879Z" fill="#2F2F2F" stroke="black" stroke-width="0.810493" stroke-linecap="round"/>
</svg>
