<svg width="37" height="40" viewBox="0 0 37 40" fill="none" xmlns="http://www.w3.org/2000/svg">
<g opacity="0.75" filter="url(#filter0_f_2199_609)">
<path d="M8.79919 11.8529C8.79919 12.9342 9.6211 13.8241 10.6742 13.931L10.8881 13.9418H10.9965L11.2103 13.931C12.1931 13.8311 12.9749 13.0497 13.0746 12.0668L13.0853 11.8529V10.558H15.9418V11.8529C15.9418 12.9342 16.7638 13.824 17.8168 13.931L18.0306 13.9418H18.139L18.3529 13.931C19.3357 13.8311 20.1174 13.0496 20.2172 12.0668L20.2279 11.8529V10.558H23.0844V11.8529C23.0844 12.9341 23.9064 13.8239 24.9594 13.931L25.1732 13.9418H25.2816L25.4955 13.931C26.4783 13.8311 27.26 13.0496 27.3597 12.0668L27.3705 11.8529V10.558H30.3256V33.3256H6.55798V10.558H8.79919V11.8529ZM25.0599 26.266C24.6538 26.266 24.3246 26.5953 24.3246 27.0013V27.7172H23.5804C23.1797 27.7172 22.8541 28.042 22.8539 28.4427C22.8539 28.8436 23.1796 29.1693 23.5804 29.1693H24.3246V29.8851C24.3246 30.2912 24.6538 30.6205 25.0599 30.6205C25.4659 30.6203 25.7953 30.2911 25.7953 29.8851V29.1693H26.5404C26.9411 29.1691 27.266 28.8435 27.266 28.4427C27.2658 28.0422 26.941 27.7174 26.5404 27.7172H25.7953V27.0013C25.7953 26.5954 25.4659 26.2662 25.0599 26.266ZM9.38416 21.6761C9.06134 21.6761 8.79942 21.9374 8.79919 22.2601V22.6908C8.79919 23.0138 9.0612 23.2758 9.38416 23.2758H13.9291C14.2519 23.2756 14.5131 23.0136 14.5131 22.6908V22.2601C14.5128 21.9375 14.2517 21.6763 13.9291 21.6761H9.38416ZM9.38416 18.476C9.0612 18.476 8.79919 18.738 8.79919 19.0609V19.4906C8.79919 19.8136 9.0612 20.0756 9.38416 20.0756H19.6429C19.9659 20.0756 20.2279 19.8136 20.2279 19.4906V19.0609C20.2279 18.738 19.9659 18.476 19.6429 18.476H9.38416ZM9.38416 15.2758C9.0612 15.2758 8.79919 15.5378 8.79919 15.8607V16.2914C8.79937 16.6142 9.06131 16.8754 9.38416 16.8754H25.3568C25.6797 16.8754 25.9416 16.6142 25.9418 16.2914V15.8607C25.9418 15.5378 25.6798 15.2758 25.3568 15.2758H9.38416ZM10.9965 7.17419C11.4691 7.1742 11.8519 7.55796 11.8519 8.03064V11.8529C11.8519 12.3256 11.4691 12.7093 10.9965 12.7094H10.8881C10.4154 12.7093 10.0316 12.3255 10.0316 11.8529V8.03064C10.0316 7.558 10.4154 7.17426 10.8881 7.17419H10.9965ZM18.139 7.17419C18.6117 7.1742 18.9945 7.55796 18.9945 8.03064V11.8529C18.9945 12.3256 18.6117 12.7093 18.139 12.7094H18.0306C17.5581 12.7092 17.1742 12.3255 17.1742 11.8529V8.03064C17.1742 7.55805 17.5581 7.17435 18.0306 7.17419H18.139ZM25.2816 7.17419C25.7543 7.1742 26.1371 7.55796 26.1371 8.03064V11.8529C26.1371 12.3256 25.7543 12.7093 25.2816 12.7094H25.1732C24.7007 12.7091 24.3168 12.3254 24.3168 11.8529V8.03064C24.3168 7.55811 24.7007 7.17444 25.1732 7.17419H25.2816ZM10.6742 5.95251C9.6211 6.05948 8.79919 6.94932 8.79919 8.03064V9.32556H5.94177V5.94177H10.8881L10.6742 5.95251ZM17.8168 5.95251C16.7638 6.05956 15.9418 6.94938 15.9418 8.03064V9.32556H13.0853V8.03064C13.0853 6.94942 12.2633 6.05962 11.2103 5.95251L10.9965 5.94177H18.0306L17.8168 5.95251ZM24.9594 5.95251C23.9064 6.05963 23.0844 6.94943 23.0844 8.03064V9.32556H20.2279V8.03064C20.2279 6.94942 19.4059 6.05962 18.3529 5.95251L18.139 5.94177H25.1732L24.9594 5.95251ZM30.9418 9.32556H27.3705V8.03064C27.3705 6.94942 26.5484 6.05962 25.4955 5.95251L25.2816 5.94177H30.9418V9.32556Z" fill="#1E8C62"/>
</g>
<g filter="url(#filter1_i_2199_609)">
<path d="M8.79919 11.8529C8.79919 12.9342 9.6211 13.8241 10.6742 13.931L10.8881 13.9418H10.9965L11.2103 13.931C12.1931 13.8311 12.9749 13.0497 13.0746 12.0668L13.0853 11.8529V10.558H15.9418V11.8529C15.9418 12.9342 16.7638 13.824 17.8168 13.931L18.0306 13.9418H18.139L18.3529 13.931C19.3357 13.8311 20.1174 13.0496 20.2172 12.0668L20.2279 11.8529V10.558H23.0844V11.8529C23.0844 12.9341 23.9064 13.8239 24.9594 13.931L25.1732 13.9418H25.2816L25.4955 13.931C26.4783 13.8311 27.26 13.0496 27.3597 12.0668L27.3705 11.8529V10.558H30.3256V33.3256H6.55798V10.558H8.79919V11.8529ZM25.0599 26.266C24.6538 26.266 24.3246 26.5953 24.3246 27.0013V27.7172H23.5804C23.1797 27.7172 22.8541 28.042 22.8539 28.4427C22.8539 28.8436 23.1796 29.1693 23.5804 29.1693H24.3246V29.8851C24.3246 30.2912 24.6538 30.6205 25.0599 30.6205C25.4659 30.6203 25.7953 30.2911 25.7953 29.8851V29.1693H26.5404C26.9411 29.1691 27.266 28.8435 27.266 28.4427C27.2658 28.0422 26.941 27.7174 26.5404 27.7172H25.7953V27.0013C25.7953 26.5954 25.4659 26.2662 25.0599 26.266ZM9.38416 21.6761C9.06134 21.6761 8.79942 21.9374 8.79919 22.2601V22.6908C8.79919 23.0138 9.0612 23.2758 9.38416 23.2758H13.9291C14.2519 23.2756 14.5131 23.0136 14.5131 22.6908V22.2601C14.5128 21.9375 14.2517 21.6763 13.9291 21.6761H9.38416ZM9.38416 18.476C9.0612 18.476 8.79919 18.738 8.79919 19.0609V19.4906C8.79919 19.8136 9.0612 20.0756 9.38416 20.0756H19.6429C19.9659 20.0756 20.2279 19.8136 20.2279 19.4906V19.0609C20.2279 18.738 19.9659 18.476 19.6429 18.476H9.38416ZM9.38416 15.2758C9.0612 15.2758 8.79919 15.5378 8.79919 15.8607V16.2914C8.79937 16.6142 9.06131 16.8754 9.38416 16.8754H25.3568C25.6797 16.8754 25.9416 16.6142 25.9418 16.2914V15.8607C25.9418 15.5378 25.6798 15.2758 25.3568 15.2758H9.38416ZM10.9965 7.17419C11.4691 7.1742 11.8519 7.55796 11.8519 8.03064V11.8529C11.8519 12.3256 11.4691 12.7093 10.9965 12.7094H10.8881C10.4154 12.7093 10.0316 12.3255 10.0316 11.8529V8.03064C10.0316 7.558 10.4154 7.17426 10.8881 7.17419H10.9965ZM18.139 7.17419C18.6117 7.1742 18.9945 7.55796 18.9945 8.03064V11.8529C18.9945 12.3256 18.6117 12.7093 18.139 12.7094H18.0306C17.5581 12.7092 17.1742 12.3255 17.1742 11.8529V8.03064C17.1742 7.55805 17.5581 7.17435 18.0306 7.17419H18.139ZM25.2816 7.17419C25.7543 7.1742 26.1371 7.55796 26.1371 8.03064V11.8529C26.1371 12.3256 25.7543 12.7093 25.2816 12.7094H25.1732C24.7007 12.7091 24.3168 12.3254 24.3168 11.8529V8.03064C24.3168 7.55811 24.7007 7.17444 25.1732 7.17419H25.2816ZM10.6742 5.95251C9.6211 6.05948 8.79919 6.94932 8.79919 8.03064V9.32556H5.94177V5.94177H10.8881L10.6742 5.95251ZM17.8168 5.95251C16.7638 6.05956 15.9418 6.94938 15.9418 8.03064V9.32556H13.0853V8.03064C13.0853 6.94942 12.2633 6.05962 11.2103 5.95251L10.9965 5.94177H18.0306L17.8168 5.95251ZM24.9594 5.95251C23.9064 6.05963 23.0844 6.94943 23.0844 8.03064V9.32556H20.2279V8.03064C20.2279 6.94942 19.4059 6.05962 18.3529 5.95251L18.139 5.94177H25.1732L24.9594 5.95251ZM30.9418 9.32556H27.3705V8.03064C27.3705 6.94942 26.5484 6.05962 25.4955 5.95251L25.2816 5.94177H30.9418V9.32556Z" fill="#1E8C62"/>
</g>
<defs>
<filter id="filter0_f_2199_609" x="-1.57356e-05" y="-1.57356e-05" width="36.8836" height="39.2674" filterUnits="userSpaceOnUse" color-interpolation-filters="sRGB">
<feFlood flood-opacity="0" result="BackgroundImageFix"/>
<feBlend mode="normal" in="SourceGraphic" in2="BackgroundImageFix" result="shape"/>
<feGaussianBlur stdDeviation="2.97089" result="effect1_foregroundBlur_2199_609"/>
</filter>
<filter id="filter1_i_2199_609" x="5.94177" y="5.94177" width="25" height="33.3256" filterUnits="userSpaceOnUse" color-interpolation-filters="sRGB">
<feFlood flood-opacity="0" result="BackgroundImageFix"/>
<feBlend mode="normal" in="SourceGraphic" in2="BackgroundImageFix" result="shape"/>
<feColorMatrix in="SourceAlpha" type="matrix" values="0 0 0 0 0 0 0 0 0 0 0 0 0 0 0 0 0 0 127 0" result="hardAlpha"/>
<feOffset dy="5.94179"/>
<feGaussianBlur stdDeviation="2.97089"/>
<feComposite in2="hardAlpha" operator="arithmetic" k2="-1" k3="1"/>
<feColorMatrix type="matrix" values="0 0 0 0 1 0 0 0 0 1 0 0 0 0 1 0 0 0 0.25 0"/>
<feBlend mode="normal" in2="shape" result="effect1_innerShadow_2199_609"/>
</filter>
</defs>
</svg>
