<svg width="239" height="239" viewBox="0 0 239 239" fill="none" xmlns="http://www.w3.org/2000/svg">
<g filter="url(#filter0_ddiif_2178_444)">
<mask id="path-1-outside-1_2178_444" maskUnits="userSpaceOnUse" x="19.8044" y="18.8555" width="202" height="202" fill="black">
<rect fill="white" x="19.8044" y="18.8555" width="202" height="202"/>
<path d="M122.096 19.8633C176.729 20.5551 220.804 65.0584 220.804 119.855L220.796 121.147C220.104 175.78 175.601 219.855 120.804 219.855L119.511 219.847C65.309 219.16 21.4986 175.35 20.8123 121.147L20.8044 119.855C20.8044 64.6271 65.5761 19.8555 120.804 19.8555L122.096 19.8633ZM120.804 31.7207C72.1293 31.7207 32.6697 71.1803 32.6697 119.855C32.6698 168.531 72.1294 207.989 120.804 207.989C169.479 207.989 208.938 168.53 208.938 119.855C208.938 71.1804 169.48 31.7208 120.804 31.7207ZM120.586 44.6553C122.256 44.6557 123.611 46.011 123.611 47.6816C123.611 48.7533 123.051 49.692 122.211 50.2295L122.394 70.4902L133.6 72.1611C133.832 72.1959 134.004 72.3961 134.005 72.6309V76.1533C134.005 76.4513 133.733 76.6754 133.44 76.6191L126.435 75.2666V85.2725C132.764 85.8891 138.205 87.4502 142.76 89.9551C148.801 93.1774 151.823 97.5077 151.823 102.945C151.823 105.664 150.816 107.679 148.802 108.988C146.787 110.297 143.465 111.002 138.833 111.103C137.826 107.075 135.912 104.053 133.093 102.039C131.327 100.778 129.108 99.9119 126.435 99.4404V115.745C135.782 118.048 142.684 120.981 147.14 124.546C152.276 128.574 154.844 134.062 154.844 141.011C154.843 147.758 151.823 153.145 145.781 157.173C140.674 160.635 133.93 162.608 125.549 163.094L120.606 189.89L115.726 163.007C108.592 162.458 102.65 160.817 97.8982 158.079C92.0576 154.555 89.0868 149.872 88.9861 144.031C88.9862 141.514 89.9927 139.399 92.0066 137.688C94.1213 135.976 97.4448 135.069 101.976 134.969C102.883 139.399 104.997 142.823 108.32 145.24C110.262 146.594 112.446 147.551 114.87 148.113V128.856C109.427 127.419 105.027 125.983 101.674 124.546C97.5451 122.733 94.4737 120.417 92.4597 117.598C90.4458 114.778 89.4392 111.052 89.4392 106.42C89.4392 99.9751 92.1576 94.7886 97.5955 90.8613C102.02 87.6658 107.778 85.7702 114.87 85.1748V75.2217L107.77 76.6172C107.477 76.6744 107.205 76.4499 107.205 76.1514V72.6299C107.205 72.3956 107.376 72.1963 107.608 72.1611L118.91 70.4453L119.093 50.3105C118.178 49.7902 117.559 48.8091 117.559 47.6816C117.56 46.0107 118.915 44.6553 120.586 44.6553ZM126.435 148.347C128.811 148.026 130.828 147.495 132.488 146.751C135.408 145.442 136.869 143.478 136.869 140.859C136.869 138.443 135.661 136.429 133.244 134.817C131.833 133.836 129.564 132.856 126.435 131.875V148.347ZM114.87 99.7139C113.561 100.029 112.334 100.451 111.19 100.982C108.471 102.292 107.112 104.003 107.112 106.118C107.112 108.333 108.27 110.046 110.586 111.254C111.651 111.81 113.08 112.364 114.87 112.92V99.7139Z"/>
</mask>
<path d="M122.096 19.8633C176.729 20.5551 220.804 65.0584 220.804 119.855L220.796 121.147C220.104 175.78 175.601 219.855 120.804 219.855L119.511 219.847C65.309 219.16 21.4986 175.35 20.8123 121.147L20.8044 119.855C20.8044 64.6271 65.5761 19.8555 120.804 19.8555L122.096 19.8633ZM120.804 31.7207C72.1293 31.7207 32.6697 71.1803 32.6697 119.855C32.6698 168.531 72.1294 207.989 120.804 207.989C169.479 207.989 208.938 168.53 208.938 119.855C208.938 71.1804 169.48 31.7208 120.804 31.7207ZM120.586 44.6553C122.256 44.6557 123.611 46.011 123.611 47.6816C123.611 48.7533 123.051 49.692 122.211 50.2295L122.394 70.4902L133.6 72.1611C133.832 72.1959 134.004 72.3961 134.005 72.6309V76.1533C134.005 76.4513 133.733 76.6754 133.44 76.6191L126.435 75.2666V85.2725C132.764 85.8891 138.205 87.4502 142.76 89.9551C148.801 93.1774 151.823 97.5077 151.823 102.945C151.823 105.664 150.816 107.679 148.802 108.988C146.787 110.297 143.465 111.002 138.833 111.103C137.826 107.075 135.912 104.053 133.093 102.039C131.327 100.778 129.108 99.9119 126.435 99.4404V115.745C135.782 118.048 142.684 120.981 147.14 124.546C152.276 128.574 154.844 134.062 154.844 141.011C154.843 147.758 151.823 153.145 145.781 157.173C140.674 160.635 133.93 162.608 125.549 163.094L120.606 189.89L115.726 163.007C108.592 162.458 102.65 160.817 97.8982 158.079C92.0576 154.555 89.0868 149.872 88.9861 144.031C88.9862 141.514 89.9927 139.399 92.0066 137.688C94.1213 135.976 97.4448 135.069 101.976 134.969C102.883 139.399 104.997 142.823 108.32 145.24C110.262 146.594 112.446 147.551 114.87 148.113V128.856C109.427 127.419 105.027 125.983 101.674 124.546C97.5451 122.733 94.4737 120.417 92.4597 117.598C90.4458 114.778 89.4392 111.052 89.4392 106.42C89.4392 99.9751 92.1576 94.7886 97.5955 90.8613C102.02 87.6658 107.778 85.7702 114.87 85.1748V75.2217L107.77 76.6172C107.477 76.6744 107.205 76.4499 107.205 76.1514V72.6299C107.205 72.3956 107.376 72.1963 107.608 72.1611L118.91 70.4453L119.093 50.3105C118.178 49.7902 117.559 48.8091 117.559 47.6816C117.56 46.0107 118.915 44.6553 120.586 44.6553ZM126.435 148.347C128.811 148.026 130.828 147.495 132.488 146.751C135.408 145.442 136.869 143.478 136.869 140.859C136.869 138.443 135.661 136.429 133.244 134.817C131.833 133.836 129.564 132.856 126.435 131.875V148.347ZM114.87 99.7139C113.561 100.029 112.334 100.451 111.19 100.982C108.471 102.292 107.112 104.003 107.112 106.118C107.112 108.333 108.27 110.046 110.586 111.254C111.651 111.81 113.08 112.364 114.87 112.92V99.7139Z" fill="url(#paint0_linear_2178_444)" fill-opacity="0.75"/>
<g clip-path="url(#paint1_angular_2178_444_clip_path)" data-figma-skip-parse="true" mask="url(#path-1-outside-1_2178_444)"><g transform="matrix(0.1 0 0 0.1 20.8044 19.8555)"><foreignObject x="-2003.96" y="-2003.96" width="4007.91" height="4007.91"><div xmlns="http://www.w3.org/1999/xhtml" style="background:conic-gradient(from 90deg,rgba(255, 255, 255, 0.2799) 0deg,rgba(255, 255, 255, 0.352) 18.4349deg,rgba(255, 255, 255, 0) 108.435deg,rgba(255, 255, 255, 0.352) 198.435deg,rgba(255, 255, 255, 0) 288.435deg,rgba(255, 255, 255, 0.2799) 360deg);height:100%;width:100%;opacity:1"></div></foreignObject></g></g><path d="M122.096 19.8633L122.101 19.4678L122.099 19.4678L122.096 19.8633ZM220.804 119.855L221.2 119.858V119.855H220.804ZM220.796 121.147L221.191 121.152L221.191 121.15L220.796 121.147ZM120.804 219.855L120.802 220.251H120.804V219.855ZM119.511 219.847L119.506 220.242L119.509 220.242L119.511 219.847ZM20.8123 121.147L20.4167 121.15L20.4168 121.152L20.8123 121.147ZM20.8044 119.855H20.4089L20.4089 119.858L20.8044 119.855ZM120.804 19.8555L120.807 19.4599H120.804V19.8555ZM120.804 31.7207V31.3252V31.3252V31.7207ZM32.6697 119.855H32.2742V119.855H32.6697ZM120.804 207.989V208.385V208.385V207.989ZM208.938 119.855H209.334V119.855H208.938ZM120.586 44.6553L120.586 44.2598H120.586V44.6553ZM123.611 47.6816L124.007 47.6817V47.6816L123.611 47.6816ZM122.211 50.2295L121.998 49.8963L121.813 50.0142L121.815 50.2331L122.211 50.2295ZM122.394 70.4902L121.999 70.4938L122.002 70.8316L122.336 70.8814L122.394 70.4902ZM133.6 72.1611L133.659 71.77L133.659 71.7699L133.6 72.1611ZM134.005 72.6309H134.4V72.6306L134.005 72.6309ZM133.44 76.6191L133.365 77.0075L133.365 77.0075L133.44 76.6191ZM126.435 75.2666L126.51 74.8783L126.04 74.7874V75.2666H126.435ZM126.435 85.2725H126.04V85.6313L126.397 85.6661L126.435 85.2725ZM142.76 89.9551L142.569 90.3017L142.573 90.3041L142.76 89.9551ZM151.823 102.945H152.219V102.945L151.823 102.945ZM148.802 108.988L149.017 109.32L149.017 109.32L148.802 108.988ZM138.833 111.103L138.449 111.198L138.526 111.505L138.841 111.498L138.833 111.103ZM133.093 102.039L133.322 101.717H133.322L133.093 102.039ZM126.435 99.4404L126.504 99.0509L126.04 98.969V99.4404H126.435ZM126.435 115.745H126.04V116.055L126.341 116.129L126.435 115.745ZM147.14 124.546L146.893 124.855L146.896 124.857L147.14 124.546ZM154.844 141.011H155.239V141.011H154.844ZM145.781 157.173L145.562 156.844L145.559 156.845L145.781 157.173ZM125.549 163.094L125.526 162.699L125.216 162.717L125.16 163.022L125.549 163.094ZM120.606 189.89L120.217 189.96L120.995 189.961L120.606 189.89ZM115.726 163.007L116.115 162.936L116.061 162.636L115.757 162.612L115.726 163.007ZM97.8982 158.079L97.6938 158.418L97.7007 158.422L97.8982 158.079ZM88.9861 144.031L88.5905 144.031L88.5906 144.038L88.9861 144.031ZM92.0066 137.688L91.7577 137.38L91.7504 137.386L92.0066 137.688ZM101.976 134.969L102.364 134.889L102.298 134.566L101.968 134.573L101.976 134.969ZM108.32 145.24L108.087 145.56L108.094 145.565L108.32 145.24ZM114.87 148.113L114.78 148.499L115.265 148.611V148.113H114.87ZM114.87 128.856H115.265V128.552L114.971 128.474L114.87 128.856ZM101.674 124.546L101.515 124.908L101.518 124.909L101.674 124.546ZM92.4597 117.598L92.1379 117.828V117.828L92.4597 117.598ZM89.4392 106.42H89.0437V106.42H89.4392ZM97.5955 90.8613L97.3639 90.5407V90.5407L97.5955 90.8613ZM114.87 85.1748L114.903 85.5689L115.265 85.5385V85.1748H114.87ZM114.87 75.2217H115.265V74.7408L114.794 74.8336L114.87 75.2217ZM107.77 76.6172L107.846 77.0054L107.847 77.0053L107.77 76.6172ZM107.205 72.6299L106.809 72.6296V72.6299H107.205ZM107.608 72.1611L107.668 72.5522L107.668 72.5522L107.608 72.1611ZM118.91 70.4453L118.969 70.8364L119.302 70.7858L119.305 70.4489L118.91 70.4453ZM119.093 50.3105L119.488 50.3141L119.49 50.0817L119.288 49.9668L119.093 50.3105ZM117.559 47.6816L117.164 47.6816V47.6817L117.559 47.6816ZM126.435 148.347H126.04V148.799L126.488 148.739L126.435 148.347ZM132.488 146.751L132.65 147.112L132.65 147.112L132.488 146.751ZM136.869 140.859H137.264V140.859L136.869 140.859ZM133.244 134.817L133.018 135.142L133.024 135.146L133.244 134.817ZM126.435 131.875L126.554 131.498L126.04 131.336V131.875H126.435ZM114.87 99.7139H115.265V99.2117L114.777 99.3294L114.87 99.7139ZM111.19 100.982L111.024 100.624L111.019 100.626L111.19 100.982ZM107.112 106.118H106.717V106.118L107.112 106.118ZM110.586 111.254L110.403 111.605H110.403L110.586 111.254ZM114.87 112.92L114.753 113.298L115.265 113.457V112.92H114.87ZM122.096 19.8633L122.091 20.2588C176.508 20.9479 220.409 65.2752 220.409 119.855H220.804H221.2C221.2 64.8417 176.951 20.1624 122.101 19.4678L122.096 19.8633ZM220.804 119.855L220.409 119.853L220.4 121.145L220.796 121.147L221.191 121.15L221.2 119.858L220.804 119.855ZM220.796 121.147L220.4 121.142C219.711 175.559 175.385 219.46 120.804 219.46V219.855V220.251C175.818 220.251 220.497 176.001 221.191 121.152L220.796 121.147ZM120.804 219.855L120.807 219.46L119.514 219.451L119.511 219.847L119.509 220.242L120.802 220.251L120.804 219.855ZM119.511 219.847L119.516 219.451C65.5285 218.767 21.8914 175.131 21.2077 121.142L20.8123 121.147L20.4168 121.152C21.1059 175.57 65.0894 219.553 119.506 220.242L119.511 219.847ZM20.8123 121.147L21.2078 121.145L21.2 119.853L20.8044 119.855L20.4089 119.858L20.4167 121.15L20.8123 121.147ZM20.8044 119.855H21.2C21.2 64.8455 65.7945 20.251 120.804 20.251V19.8555V19.4599C65.3576 19.4599 20.4089 64.4086 20.4089 119.855H20.8044ZM120.804 19.8555L120.802 20.251L122.094 20.2588L122.096 19.8633L122.099 19.4678L120.807 19.46L120.804 19.8555ZM120.804 31.7207V31.3252C71.9109 31.3252 32.2742 70.9619 32.2742 119.855H32.6697H33.0652C33.0652 71.3988 72.3477 32.1162 120.804 32.1162V31.7207ZM32.6697 119.855H32.2742C32.2742 168.749 71.9109 208.385 120.804 208.385V207.989V207.594C72.3478 207.594 33.0653 168.312 33.0652 119.855H32.6697ZM120.804 207.989V208.385C169.698 208.385 209.334 168.749 209.334 119.855H208.938H208.543C208.543 168.312 169.261 207.594 120.804 207.594V207.989ZM208.938 119.855H209.334C209.334 70.9619 169.698 31.3253 120.804 31.3252V31.7207V32.1162C169.261 32.1163 208.543 71.3988 208.543 119.855H208.938ZM120.586 44.6553L120.586 45.0508C122.038 45.0511 123.215 46.2293 123.216 47.6817L123.611 47.6816L124.007 47.6816C124.006 45.7927 122.475 44.2602 120.586 44.2598L120.586 44.6553ZM123.611 47.6816L123.216 47.6816C123.215 48.6117 122.73 49.4278 121.998 49.8963L122.211 50.2295L122.424 50.5627C123.372 49.9562 124.006 48.8949 124.007 47.6817L123.611 47.6816ZM122.211 50.2295L121.815 50.2331L121.999 70.4938L122.394 70.4902L122.79 70.4867L122.606 50.2259L122.211 50.2295ZM122.394 70.4902L122.336 70.8814L133.542 72.5523L133.6 72.1611L133.659 71.7699L122.453 70.099L122.394 70.4902ZM133.6 72.1611L133.542 72.5523C133.58 72.558 133.609 72.5914 133.609 72.6311L134.005 72.6309L134.4 72.6306C134.4 72.2009 134.085 71.8338 133.659 71.77L133.6 72.1611ZM134.005 72.6309H133.609V76.1533H134.005H134.4V72.6309H134.005ZM134.005 76.1533H133.609C133.609 76.2024 133.564 76.2402 133.515 76.2307L133.44 76.6191L133.365 77.0075C133.901 77.1107 134.4 76.7001 134.4 76.1533H134.005ZM133.44 76.6191L133.515 76.2308L126.51 74.8783L126.435 75.2666L126.36 75.655L133.365 77.0075L133.44 76.6191ZM126.435 75.2666H126.04V85.2725H126.435H126.831V75.2666H126.435ZM126.435 85.2725L126.397 85.6661C132.683 86.2787 138.071 87.8277 142.569 90.3016L142.76 89.9551L142.95 89.6085C138.339 87.0727 132.844 85.4996 126.474 84.8788L126.435 85.2725ZM142.76 89.9551L142.573 90.3041C148.526 93.4787 151.427 97.6936 151.427 102.945L151.823 102.945L152.219 102.945C152.218 97.3218 149.077 92.8761 142.946 89.6061L142.76 89.9551ZM151.823 102.945H151.427C151.427 105.551 150.471 107.431 148.586 108.657L148.802 108.988L149.017 109.32C151.16 107.927 152.219 105.777 152.219 102.945H151.823ZM148.802 108.988L148.586 108.657C146.668 109.903 143.439 110.607 138.824 110.707L138.833 111.103L138.841 111.498C143.49 111.397 146.907 110.692 149.017 109.32L148.802 108.988ZM138.833 111.103L139.216 111.007C138.191 106.906 136.233 103.796 133.322 101.717L133.093 102.039L132.863 102.361C135.591 104.31 137.46 107.243 138.449 111.198L138.833 111.103ZM133.093 102.039L133.322 101.717C131.499 100.415 129.221 99.5301 126.504 99.0509L126.435 99.4404L126.367 99.8299C128.996 100.294 131.156 101.142 132.863 102.361L133.093 102.039ZM126.435 99.4404H126.04V115.745H126.435H126.831V99.4404H126.435ZM126.435 115.745L126.341 116.129C135.665 118.427 142.502 121.342 146.893 124.855L147.14 124.546L147.387 124.237C142.866 120.62 135.899 117.67 126.53 115.361L126.435 115.745ZM147.14 124.546L146.896 124.857C151.929 128.805 154.448 134.175 154.448 141.011H154.844H155.239C155.239 133.95 152.623 128.343 147.384 124.235L147.14 124.546ZM154.844 141.011H154.448C154.448 147.614 151.503 152.883 145.562 156.844L145.781 157.173L146 157.502C152.142 153.407 155.239 147.901 155.239 141.011H154.844ZM145.781 157.173L145.559 156.845C140.529 160.256 133.86 162.215 125.526 162.699L125.549 163.094L125.571 163.489C133.999 163 140.819 161.015 146.003 157.5L145.781 157.173ZM125.549 163.094L125.16 163.022L120.217 189.818L120.606 189.89L120.995 189.961L125.938 163.165L125.549 163.094ZM120.606 189.89L120.995 189.819L116.115 162.936L115.726 163.007L115.337 163.077L120.217 189.96L120.606 189.89ZM115.726 163.007L115.757 162.612C108.664 162.067 102.783 160.437 98.0957 157.736L97.8982 158.079L97.7007 158.422C102.516 161.197 108.52 162.85 115.696 163.401L115.726 163.007ZM97.8982 158.079L98.1025 157.74C92.3556 154.272 89.4795 149.704 89.3815 144.024L88.9861 144.031L88.5906 144.038C88.6941 150.04 91.7596 154.837 97.6938 158.418L97.8982 158.079ZM88.9861 144.031L89.3816 144.031C89.3817 141.636 90.3323 139.63 92.2628 137.989L92.0066 137.688L91.7504 137.386C89.6532 139.169 88.5907 141.391 88.5906 144.031L88.9861 144.031ZM92.0066 137.688L92.2555 137.995C94.2698 136.364 97.4878 135.464 101.985 135.364L101.976 134.969L101.968 134.573C97.4017 134.675 93.9728 135.587 91.7577 137.38L92.0066 137.688ZM101.976 134.969L101.589 135.048C102.513 139.565 104.676 143.079 108.087 145.56L108.32 145.24L108.553 144.92C105.318 142.568 103.253 139.234 102.364 134.889L101.976 134.969ZM108.32 145.24L108.094 145.565C110.08 146.949 112.31 147.925 114.78 148.499L114.87 148.113L114.959 147.728C112.582 147.176 110.445 146.239 108.546 144.916L108.32 145.24ZM114.87 148.113H115.265V128.856H114.87H114.474V148.113H114.87ZM114.87 128.856L114.971 128.474C109.537 127.039 105.158 125.609 101.829 124.182L101.674 124.546L101.518 124.909C104.896 126.357 109.316 127.799 114.769 129.239L114.87 128.856ZM101.674 124.546L101.833 124.184C97.7501 122.391 94.7434 120.114 92.7816 117.368L92.4597 117.598L92.1379 117.828C94.2039 120.72 97.3401 123.075 101.515 124.908L101.674 124.546ZM92.4597 117.598L92.7816 117.368C90.8293 114.635 89.8347 110.997 89.8347 106.42H89.4392H89.0437C89.0437 111.107 90.0622 114.922 92.1379 117.828L92.4597 117.598ZM89.4392 106.42H89.8347C89.8347 100.108 92.4872 95.0385 97.827 91.182L97.5955 90.8613L97.3639 90.5407C91.828 94.5388 89.0437 99.8421 89.0437 106.42H89.4392ZM97.5955 90.8613L97.827 91.182C102.178 88.0395 107.862 86.1601 114.903 85.5689L114.87 85.1748L114.837 84.7807C107.695 85.3803 101.862 87.2921 97.3639 90.5407L97.5955 90.8613ZM114.87 85.1748H115.265V75.2217H114.87H114.474V85.1748H114.87ZM114.87 75.2217L114.794 74.8336L107.694 76.2291L107.77 76.6172L107.847 77.0053L114.946 75.6098L114.87 75.2217ZM107.77 76.6172L107.694 76.229C107.646 76.2385 107.6 76.2012 107.6 76.1514H107.205H106.809C106.809 76.6986 107.309 77.1104 107.846 77.0054L107.77 76.6172ZM107.205 76.1514H107.6V72.6299H107.205H106.809V76.1514H107.205ZM107.205 72.6299L107.6 72.6302C107.6 72.5913 107.629 72.558 107.668 72.5522L107.608 72.1611L107.549 71.7701C107.124 71.8346 106.81 72.1998 106.809 72.6296L107.205 72.6299ZM107.608 72.1611L107.668 72.5522L118.969 70.8364L118.91 70.4453L118.851 70.0543L107.549 71.7701L107.608 72.1611ZM118.91 70.4453L119.305 70.4489L119.488 50.3141L119.093 50.3105L118.697 50.307L118.514 70.4417L118.91 70.4453ZM119.093 50.3105L119.288 49.9668C118.491 49.5135 117.955 48.6605 117.955 47.6816L117.559 47.6816L117.164 47.6817C117.164 48.9578 117.864 50.0669 118.897 50.6543L119.093 50.3105ZM117.559 47.6816L117.955 47.6817C117.955 46.2292 119.133 45.0508 120.586 45.0508V44.6553V44.2598C118.696 44.2598 117.164 45.7923 117.164 47.6816L117.559 47.6816ZM126.435 148.347L126.488 148.739C128.89 148.414 130.946 147.875 132.65 147.112L132.488 146.751L132.326 146.39C130.71 147.114 128.731 147.637 126.382 147.955L126.435 148.347ZM132.488 146.751L132.65 147.112C134.153 146.438 135.31 145.583 136.091 144.532C136.876 143.477 137.264 142.247 137.264 140.859H136.869H136.473C136.473 142.09 136.132 143.151 135.456 144.06C134.777 144.974 133.743 145.755 132.326 146.39L132.488 146.751ZM136.869 140.859L137.264 140.859C137.264 138.282 135.965 136.156 133.463 134.488L133.244 134.817L133.024 135.146C135.357 136.701 136.473 138.603 136.473 140.859L136.869 140.859ZM133.244 134.817L133.47 134.493C132.009 133.476 129.692 132.482 126.554 131.498L126.435 131.875L126.317 132.252C129.435 133.23 131.658 134.196 133.018 135.142L133.244 134.817ZM126.435 131.875H126.04V148.347H126.435H126.831V131.875H126.435ZM114.87 99.7139L114.777 99.3294C113.445 99.6506 112.193 100.081 111.024 100.624L111.19 100.982L111.357 101.341C112.475 100.822 113.677 100.408 114.963 100.098L114.87 99.7139ZM111.19 100.982L111.019 100.626C108.23 101.969 106.717 103.789 106.717 106.118H107.112H107.508C107.508 104.218 108.713 102.614 111.362 101.339L111.19 100.982ZM107.112 106.118L106.717 106.118C106.717 108.51 107.984 110.343 110.403 111.605L110.586 111.254L110.769 110.903C108.555 109.748 107.508 108.157 107.508 106.118L107.112 106.118ZM110.586 111.254L110.403 111.605C111.498 112.176 112.951 112.738 114.753 113.298L114.87 112.92L114.987 112.542C113.208 111.99 111.805 111.444 110.769 110.903L110.586 111.254ZM114.87 112.92H115.265V99.7139H114.87H114.474V112.92H114.87Z" data-figma-gradient-fill="{&#34;type&#34;:&#34;GRADIENT_ANGULAR&#34;,&#34;stops&#34;:[{&#34;color&#34;:{&#34;r&#34;:1.0,&#34;g&#34;:1.0,&#34;b&#34;:1.0,&#34;a&#34;:0.35199999809265137},&#34;position&#34;:0.051208190619945526},{&#34;color&#34;:{&#34;r&#34;:1.0,&#34;g&#34;:1.0,&#34;b&#34;:1.0,&#34;a&#34;:0.0},&#34;position&#34;:0.30120819807052612},{&#34;color&#34;:{&#34;r&#34;:1.0,&#34;g&#34;:1.0,&#34;b&#34;:1.0,&#34;a&#34;:0.35199999809265137},&#34;position&#34;:0.55120819807052612},{&#34;color&#34;:{&#34;r&#34;:1.0,&#34;g&#34;:1.0,&#34;b&#34;:1.0,&#34;a&#34;:0.0},&#34;position&#34;:0.80120819807052612}],&#34;stopsVar&#34;:[{&#34;color&#34;:{&#34;r&#34;:1.0,&#34;g&#34;:1.0,&#34;b&#34;:1.0,&#34;a&#34;:0.35199999809265137},&#34;position&#34;:0.051208190619945526},{&#34;color&#34;:{&#34;r&#34;:1.0,&#34;g&#34;:1.0,&#34;b&#34;:1.0,&#34;a&#34;:0.0},&#34;position&#34;:0.30120819807052612},{&#34;color&#34;:{&#34;r&#34;:1.0,&#34;g&#34;:1.0,&#34;b&#34;:1.0,&#34;a&#34;:0.35199999809265137},&#34;position&#34;:0.55120819807052612},{&#34;color&#34;:{&#34;r&#34;:1.0,&#34;g&#34;:1.0,&#34;b&#34;:1.0,&#34;a&#34;:0.0},&#34;position&#34;:0.80120819807052612}],&#34;transform&#34;:{&#34;m00&#34;:200.0,&#34;m01&#34;:0.0,&#34;m02&#34;:-79.1955566406250,&#34;m10&#34;:0.0,&#34;m11&#34;:200.0,&#34;m12&#34;:-80.144531250},&#34;opacity&#34;:1.0,&#34;blendMode&#34;:&#34;LINEAR_DODGE&#34;,&#34;visible&#34;:true}" style="mix-blend-mode:plus-lighter" mask="url(#path-1-outside-1_2178_444)"/>
</g>
<defs>
<filter id="filter0_ddiif_2178_444" x="-3.85046e-05" y="0.000241488" width="238.761" height="238.761" filterUnits="userSpaceOnUse" color-interpolation-filters="sRGB">
<feFlood flood-opacity="0" result="BackgroundImageFix"/>
<feColorMatrix in="SourceAlpha" type="matrix" values="0 0 0 0 0 0 0 0 0 0 0 0 0 0 0 0 0 0 127 0" result="hardAlpha"/>
<feOffset dx="-0.237314" dy="-0.0791046"/>
<feGaussianBlur stdDeviation="2.37314"/>
<feColorMatrix type="matrix" values="0 0 0 0 0 0 0 0 0 0 0 0 0 0 0 0 0 0 0.15 0"/>
<feBlend mode="plus-darker" in2="BackgroundImageFix" result="effect1_dropShadow_2178_444"/>
<feColorMatrix in="SourceAlpha" type="matrix" values="0 0 0 0 0 0 0 0 0 0 0 0 0 0 0 0 0 0 127 0" result="hardAlpha"/>
<feOffset dx="-1.42388" dy="-0.474627"/>
<feGaussianBlur stdDeviation="9.49255"/>
<feColorMatrix type="matrix" values="0 0 0 0 0 0 0 0 0 0 0 0 0 0 0 0 0 0 0.15 0"/>
<feBlend mode="plus-darker" in2="effect1_dropShadow_2178_444" result="effect2_dropShadow_2178_444"/>
<feBlend mode="normal" in="SourceGraphic" in2="effect2_dropShadow_2178_444" result="shape"/>
<feColorMatrix in="SourceAlpha" type="matrix" values="0 0 0 0 0 0 0 0 0 0 0 0 0 0 0 0 0 0 127 0" result="hardAlpha"/>
<feOffset dx="0.15544" dy="0.0518135"/>
<feGaussianBlur stdDeviation="0.913658"/>
<feComposite in2="hardAlpha" operator="arithmetic" k2="-1" k3="1"/>
<feColorMatrix type="matrix" values="0 0 0 0 1 0 0 0 0 1 0 0 0 0 1 0 0 0 0.126 0"/>
<feBlend mode="plus-lighter" in2="shape" result="effect3_innerShadow_2178_444"/>
<feColorMatrix in="SourceAlpha" type="matrix" values="0 0 0 0 0 0 0 0 0 0 0 0 0 0 0 0 0 0 127 0" result="hardAlpha"/>
<feOffset dx="0.274097" dy="0.0913658"/>
<feGaussianBlur stdDeviation="1.82732"/>
<feComposite in2="hardAlpha" operator="arithmetic" k2="-1" k3="1"/>
<feColorMatrix type="matrix" values="0 0 0 0 1 0 0 0 0 1 0 0 0 0 1 0 0 0 0.126 0"/>
<feBlend mode="plus-lighter" in2="effect3_innerShadow_2178_444" result="effect4_innerShadow_2178_444"/>
<feGaussianBlur stdDeviation="2.99806" result="effect5_foregroundBlur_2178_444"/>
</filter>
<clipPath id="paint1_angular_2178_444_clip_path"><path d="M122.096 19.8633L122.101 19.4678L122.099 19.4678L122.096 19.8633ZM220.804 119.855L221.2 119.858V119.855H220.804ZM220.796 121.147L221.191 121.152L221.191 121.15L220.796 121.147ZM120.804 219.855L120.802 220.251H120.804V219.855ZM119.511 219.847L119.506 220.242L119.509 220.242L119.511 219.847ZM20.8123 121.147L20.4167 121.15L20.4168 121.152L20.8123 121.147ZM20.8044 119.855H20.4089L20.4089 119.858L20.8044 119.855ZM120.804 19.8555L120.807 19.4599H120.804V19.8555ZM120.804 31.7207V31.3252V31.3252V31.7207ZM32.6697 119.855H32.2742V119.855H32.6697ZM120.804 207.989V208.385V208.385V207.989ZM208.938 119.855H209.334V119.855H208.938ZM120.586 44.6553L120.586 44.2598H120.586V44.6553ZM123.611 47.6816L124.007 47.6817V47.6816L123.611 47.6816ZM122.211 50.2295L121.998 49.8963L121.813 50.0142L121.815 50.2331L122.211 50.2295ZM122.394 70.4902L121.999 70.4938L122.002 70.8316L122.336 70.8814L122.394 70.4902ZM133.6 72.1611L133.659 71.77L133.659 71.7699L133.6 72.1611ZM134.005 72.6309H134.4V72.6306L134.005 72.6309ZM133.44 76.6191L133.365 77.0075L133.365 77.0075L133.44 76.6191ZM126.435 75.2666L126.51 74.8783L126.04 74.7874V75.2666H126.435ZM126.435 85.2725H126.04V85.6313L126.397 85.6661L126.435 85.2725ZM142.76 89.9551L142.569 90.3017L142.573 90.3041L142.76 89.9551ZM151.823 102.945H152.219V102.945L151.823 102.945ZM148.802 108.988L149.017 109.32L149.017 109.32L148.802 108.988ZM138.833 111.103L138.449 111.198L138.526 111.505L138.841 111.498L138.833 111.103ZM133.093 102.039L133.322 101.717H133.322L133.093 102.039ZM126.435 99.4404L126.504 99.0509L126.04 98.969V99.4404H126.435ZM126.435 115.745H126.04V116.055L126.341 116.129L126.435 115.745ZM147.14 124.546L146.893 124.855L146.896 124.857L147.14 124.546ZM154.844 141.011H155.239V141.011H154.844ZM145.781 157.173L145.562 156.844L145.559 156.845L145.781 157.173ZM125.549 163.094L125.526 162.699L125.216 162.717L125.16 163.022L125.549 163.094ZM120.606 189.89L120.217 189.96L120.995 189.961L120.606 189.89ZM115.726 163.007L116.115 162.936L116.061 162.636L115.757 162.612L115.726 163.007ZM97.8982 158.079L97.6938 158.418L97.7007 158.422L97.8982 158.079ZM88.9861 144.031L88.5905 144.031L88.5906 144.038L88.9861 144.031ZM92.0066 137.688L91.7577 137.38L91.7504 137.386L92.0066 137.688ZM101.976 134.969L102.364 134.889L102.298 134.566L101.968 134.573L101.976 134.969ZM108.32 145.24L108.087 145.56L108.094 145.565L108.32 145.24ZM114.87 148.113L114.78 148.499L115.265 148.611V148.113H114.87ZM114.87 128.856H115.265V128.552L114.971 128.474L114.87 128.856ZM101.674 124.546L101.515 124.908L101.518 124.909L101.674 124.546ZM92.4597 117.598L92.1379 117.828V117.828L92.4597 117.598ZM89.4392 106.42H89.0437V106.42H89.4392ZM97.5955 90.8613L97.3639 90.5407V90.5407L97.5955 90.8613ZM114.87 85.1748L114.903 85.5689L115.265 85.5385V85.1748H114.87ZM114.87 75.2217H115.265V74.7408L114.794 74.8336L114.87 75.2217ZM107.77 76.6172L107.846 77.0054L107.847 77.0053L107.77 76.6172ZM107.205 72.6299L106.809 72.6296V72.6299H107.205ZM107.608 72.1611L107.668 72.5522L107.668 72.5522L107.608 72.1611ZM118.91 70.4453L118.969 70.8364L119.302 70.7858L119.305 70.4489L118.91 70.4453ZM119.093 50.3105L119.488 50.3141L119.49 50.0817L119.288 49.9668L119.093 50.3105ZM117.559 47.6816L117.164 47.6816V47.6817L117.559 47.6816ZM126.435 148.347H126.04V148.799L126.488 148.739L126.435 148.347ZM132.488 146.751L132.65 147.112L132.65 147.112L132.488 146.751ZM136.869 140.859H137.264V140.859L136.869 140.859ZM133.244 134.817L133.018 135.142L133.024 135.146L133.244 134.817ZM126.435 131.875L126.554 131.498L126.04 131.336V131.875H126.435ZM114.87 99.7139H115.265V99.2117L114.777 99.3294L114.87 99.7139ZM111.19 100.982L111.024 100.624L111.019 100.626L111.19 100.982ZM107.112 106.118H106.717V106.118L107.112 106.118ZM110.586 111.254L110.403 111.605H110.403L110.586 111.254ZM114.87 112.92L114.753 113.298L115.265 113.457V112.92H114.87ZM122.096 19.8633L122.091 20.2588C176.508 20.9479 220.409 65.2752 220.409 119.855H220.804H221.2C221.2 64.8417 176.951 20.1624 122.101 19.4678L122.096 19.8633ZM220.804 119.855L220.409 119.853L220.4 121.145L220.796 121.147L221.191 121.15L221.2 119.858L220.804 119.855ZM220.796 121.147L220.4 121.142C219.711 175.559 175.385 219.46 120.804 219.46V219.855V220.251C175.818 220.251 220.497 176.001 221.191 121.152L220.796 121.147ZM120.804 219.855L120.807 219.46L119.514 219.451L119.511 219.847L119.509 220.242L120.802 220.251L120.804 219.855ZM119.511 219.847L119.516 219.451C65.5285 218.767 21.8914 175.131 21.2077 121.142L20.8123 121.147L20.4168 121.152C21.1059 175.57 65.0894 219.553 119.506 220.242L119.511 219.847ZM20.8123 121.147L21.2078 121.145L21.2 119.853L20.8044 119.855L20.4089 119.858L20.4167 121.15L20.8123 121.147ZM20.8044 119.855H21.2C21.2 64.8455 65.7945 20.251 120.804 20.251V19.8555V19.4599C65.3576 19.4599 20.4089 64.4086 20.4089 119.855H20.8044ZM120.804 19.8555L120.802 20.251L122.094 20.2588L122.096 19.8633L122.099 19.4678L120.807 19.46L120.804 19.8555ZM120.804 31.7207V31.3252C71.9109 31.3252 32.2742 70.9619 32.2742 119.855H32.6697H33.0652C33.0652 71.3988 72.3477 32.1162 120.804 32.1162V31.7207ZM32.6697 119.855H32.2742C32.2742 168.749 71.9109 208.385 120.804 208.385V207.989V207.594C72.3478 207.594 33.0653 168.312 33.0652 119.855H32.6697ZM120.804 207.989V208.385C169.698 208.385 209.334 168.749 209.334 119.855H208.938H208.543C208.543 168.312 169.261 207.594 120.804 207.594V207.989ZM208.938 119.855H209.334C209.334 70.9619 169.698 31.3253 120.804 31.3252V31.7207V32.1162C169.261 32.1163 208.543 71.3988 208.543 119.855H208.938ZM120.586 44.6553L120.586 45.0508C122.038 45.0511 123.215 46.2293 123.216 47.6817L123.611 47.6816L124.007 47.6816C124.006 45.7927 122.475 44.2602 120.586 44.2598L120.586 44.6553ZM123.611 47.6816L123.216 47.6816C123.215 48.6117 122.73 49.4278 121.998 49.8963L122.211 50.2295L122.424 50.5627C123.372 49.9562 124.006 48.8949 124.007 47.6817L123.611 47.6816ZM122.211 50.2295L121.815 50.2331L121.999 70.4938L122.394 70.4902L122.79 70.4867L122.606 50.2259L122.211 50.2295ZM122.394 70.4902L122.336 70.8814L133.542 72.5523L133.6 72.1611L133.659 71.7699L122.453 70.099L122.394 70.4902ZM133.6 72.1611L133.542 72.5523C133.58 72.558 133.609 72.5914 133.609 72.6311L134.005 72.6309L134.4 72.6306C134.4 72.2009 134.085 71.8338 133.659 71.77L133.6 72.1611ZM134.005 72.6309H133.609V76.1533H134.005H134.4V72.6309H134.005ZM134.005 76.1533H133.609C133.609 76.2024 133.564 76.2402 133.515 76.2307L133.44 76.6191L133.365 77.0075C133.901 77.1107 134.4 76.7001 134.4 76.1533H134.005ZM133.44 76.6191L133.515 76.2308L126.51 74.8783L126.435 75.2666L126.36 75.655L133.365 77.0075L133.44 76.6191ZM126.435 75.2666H126.04V85.2725H126.435H126.831V75.2666H126.435ZM126.435 85.2725L126.397 85.6661C132.683 86.2787 138.071 87.8277 142.569 90.3016L142.76 89.9551L142.95 89.6085C138.339 87.0727 132.844 85.4996 126.474 84.8788L126.435 85.2725ZM142.76 89.9551L142.573 90.3041C148.526 93.4787 151.427 97.6936 151.427 102.945L151.823 102.945L152.219 102.945C152.218 97.3218 149.077 92.8761 142.946 89.6061L142.76 89.9551ZM151.823 102.945H151.427C151.427 105.551 150.471 107.431 148.586 108.657L148.802 108.988L149.017 109.32C151.16 107.927 152.219 105.777 152.219 102.945H151.823ZM148.802 108.988L148.586 108.657C146.668 109.903 143.439 110.607 138.824 110.707L138.833 111.103L138.841 111.498C143.49 111.397 146.907 110.692 149.017 109.32L148.802 108.988ZM138.833 111.103L139.216 111.007C138.191 106.906 136.233 103.796 133.322 101.717L133.093 102.039L132.863 102.361C135.591 104.31 137.46 107.243 138.449 111.198L138.833 111.103ZM133.093 102.039L133.322 101.717C131.499 100.415 129.221 99.5301 126.504 99.0509L126.435 99.4404L126.367 99.8299C128.996 100.294 131.156 101.142 132.863 102.361L133.093 102.039ZM126.435 99.4404H126.04V115.745H126.435H126.831V99.4404H126.435ZM126.435 115.745L126.341 116.129C135.665 118.427 142.502 121.342 146.893 124.855L147.14 124.546L147.387 124.237C142.866 120.62 135.899 117.67 126.53 115.361L126.435 115.745ZM147.14 124.546L146.896 124.857C151.929 128.805 154.448 134.175 154.448 141.011H154.844H155.239C155.239 133.95 152.623 128.343 147.384 124.235L147.14 124.546ZM154.844 141.011H154.448C154.448 147.614 151.503 152.883 145.562 156.844L145.781 157.173L146 157.502C152.142 153.407 155.239 147.901 155.239 141.011H154.844ZM145.781 157.173L145.559 156.845C140.529 160.256 133.86 162.215 125.526 162.699L125.549 163.094L125.571 163.489C133.999 163 140.819 161.015 146.003 157.5L145.781 157.173ZM125.549 163.094L125.16 163.022L120.217 189.818L120.606 189.89L120.995 189.961L125.938 163.165L125.549 163.094ZM120.606 189.89L120.995 189.819L116.115 162.936L115.726 163.007L115.337 163.077L120.217 189.96L120.606 189.89ZM115.726 163.007L115.757 162.612C108.664 162.067 102.783 160.437 98.0957 157.736L97.8982 158.079L97.7007 158.422C102.516 161.197 108.52 162.85 115.696 163.401L115.726 163.007ZM97.8982 158.079L98.1025 157.74C92.3556 154.272 89.4795 149.704 89.3815 144.024L88.9861 144.031L88.5906 144.038C88.6941 150.04 91.7596 154.837 97.6938 158.418L97.8982 158.079ZM88.9861 144.031L89.3816 144.031C89.3817 141.636 90.3323 139.63 92.2628 137.989L92.0066 137.688L91.7504 137.386C89.6532 139.169 88.5907 141.391 88.5906 144.031L88.9861 144.031ZM92.0066 137.688L92.2555 137.995C94.2698 136.364 97.4878 135.464 101.985 135.364L101.976 134.969L101.968 134.573C97.4017 134.675 93.9728 135.587 91.7577 137.38L92.0066 137.688ZM101.976 134.969L101.589 135.048C102.513 139.565 104.676 143.079 108.087 145.56L108.32 145.24L108.553 144.92C105.318 142.568 103.253 139.234 102.364 134.889L101.976 134.969ZM108.32 145.24L108.094 145.565C110.08 146.949 112.31 147.925 114.78 148.499L114.87 148.113L114.959 147.728C112.582 147.176 110.445 146.239 108.546 144.916L108.32 145.24ZM114.87 148.113H115.265V128.856H114.87H114.474V148.113H114.87ZM114.87 128.856L114.971 128.474C109.537 127.039 105.158 125.609 101.829 124.182L101.674 124.546L101.518 124.909C104.896 126.357 109.316 127.799 114.769 129.239L114.87 128.856ZM101.674 124.546L101.833 124.184C97.7501 122.391 94.7434 120.114 92.7816 117.368L92.4597 117.598L92.1379 117.828C94.2039 120.72 97.3401 123.075 101.515 124.908L101.674 124.546ZM92.4597 117.598L92.7816 117.368C90.8293 114.635 89.8347 110.997 89.8347 106.42H89.4392H89.0437C89.0437 111.107 90.0622 114.922 92.1379 117.828L92.4597 117.598ZM89.4392 106.42H89.8347C89.8347 100.108 92.4872 95.0385 97.827 91.182L97.5955 90.8613L97.3639 90.5407C91.828 94.5388 89.0437 99.8421 89.0437 106.42H89.4392ZM97.5955 90.8613L97.827 91.182C102.178 88.0395 107.862 86.1601 114.903 85.5689L114.87 85.1748L114.837 84.7807C107.695 85.3803 101.862 87.2921 97.3639 90.5407L97.5955 90.8613ZM114.87 85.1748H115.265V75.2217H114.87H114.474V85.1748H114.87ZM114.87 75.2217L114.794 74.8336L107.694 76.2291L107.77 76.6172L107.847 77.0053L114.946 75.6098L114.87 75.2217ZM107.77 76.6172L107.694 76.229C107.646 76.2385 107.6 76.2012 107.6 76.1514H107.205H106.809C106.809 76.6986 107.309 77.1104 107.846 77.0054L107.77 76.6172ZM107.205 76.1514H107.6V72.6299H107.205H106.809V76.1514H107.205ZM107.205 72.6299L107.6 72.6302C107.6 72.5913 107.629 72.558 107.668 72.5522L107.608 72.1611L107.549 71.7701C107.124 71.8346 106.81 72.1998 106.809 72.6296L107.205 72.6299ZM107.608 72.1611L107.668 72.5522L118.969 70.8364L118.91 70.4453L118.851 70.0543L107.549 71.7701L107.608 72.1611ZM118.91 70.4453L119.305 70.4489L119.488 50.3141L119.093 50.3105L118.697 50.307L118.514 70.4417L118.91 70.4453ZM119.093 50.3105L119.288 49.9668C118.491 49.5135 117.955 48.6605 117.955 47.6816L117.559 47.6816L117.164 47.6817C117.164 48.9578 117.864 50.0669 118.897 50.6543L119.093 50.3105ZM117.559 47.6816L117.955 47.6817C117.955 46.2292 119.133 45.0508 120.586 45.0508V44.6553V44.2598C118.696 44.2598 117.164 45.7923 117.164 47.6816L117.559 47.6816ZM126.435 148.347L126.488 148.739C128.89 148.414 130.946 147.875 132.65 147.112L132.488 146.751L132.326 146.39C130.71 147.114 128.731 147.637 126.382 147.955L126.435 148.347ZM132.488 146.751L132.65 147.112C134.153 146.438 135.31 145.583 136.091 144.532C136.876 143.477 137.264 142.247 137.264 140.859H136.869H136.473C136.473 142.09 136.132 143.151 135.456 144.06C134.777 144.974 133.743 145.755 132.326 146.39L132.488 146.751ZM136.869 140.859L137.264 140.859C137.264 138.282 135.965 136.156 133.463 134.488L133.244 134.817L133.024 135.146C135.357 136.701 136.473 138.603 136.473 140.859L136.869 140.859ZM133.244 134.817L133.47 134.493C132.009 133.476 129.692 132.482 126.554 131.498L126.435 131.875L126.317 132.252C129.435 133.23 131.658 134.196 133.018 135.142L133.244 134.817ZM126.435 131.875H126.04V148.347H126.435H126.831V131.875H126.435ZM114.87 99.7139L114.777 99.3294C113.445 99.6506 112.193 100.081 111.024 100.624L111.19 100.982L111.357 101.341C112.475 100.822 113.677 100.408 114.963 100.098L114.87 99.7139ZM111.19 100.982L111.019 100.626C108.23 101.969 106.717 103.789 106.717 106.118H107.112H107.508C107.508 104.218 108.713 102.614 111.362 101.339L111.19 100.982ZM107.112 106.118L106.717 106.118C106.717 108.51 107.984 110.343 110.403 111.605L110.586 111.254L110.769 110.903C108.555 109.748 107.508 108.157 107.508 106.118L107.112 106.118ZM110.586 111.254L110.403 111.605C111.498 112.176 112.951 112.738 114.753 113.298L114.87 112.92L114.987 112.542C113.208 111.99 111.805 111.444 110.769 110.903L110.586 111.254ZM114.87 112.92H115.265V99.7139H114.87H114.474V112.92H114.87Z" mask="url(#path-1-outside-1_2178_444)"/></clipPath><linearGradient id="paint0_linear_2178_444" x1="120.804" y1="19.8555" x2="120.804" y2="219.855" gradientUnits="userSpaceOnUse">
<stop stop-color="#1C975E"/>
<stop offset="1" stop-color="#25A373"/>
</linearGradient>
</defs>
</svg>
