<svg width="51" height="40" viewBox="0 0 51 40" fill="none" xmlns="http://www.w3.org/2000/svg">
<g opacity="0.75" filter="url(#filter0_f_2199_607)">
<path d="M23.5325 13.9779C23.5325 17.53 20.67 20.4071 17.1359 20.4071C13.6017 20.4071 10.7393 17.53 10.7393 13.9779C10.7393 10.4258 13.6017 7.54871 17.1359 7.54871C20.67 7.54871 23.5325 10.4258 23.5325 13.9779ZM23.5325 24.779V33.2655H5.9418V30.0509C5.9418 26.4988 10.9471 23.6217 17.1359 23.6217C19.5346 23.6217 21.7254 24.0557 23.5325 24.779ZM44.3214 33.2655H26.7308V5.94141H44.3214V33.2655ZM31.5282 19.6035C31.5282 18.5377 31.9494 17.5157 32.6992 16.7621C33.4489 16.0086 34.4658 15.5852 35.5261 15.5852C36.5864 15.5852 37.6033 16.0086 38.353 16.7621C39.1028 17.5157 39.524 18.5377 39.524 19.6035C39.524 20.6692 39.1028 21.6912 38.353 22.4448C37.6033 23.1984 36.5864 23.6217 35.5261 23.6217C34.4658 23.6217 33.4489 23.1984 32.6992 22.4448C31.9494 21.6912 31.5282 20.6692 31.5282 19.6035ZM41.1231 12.3706C40.2749 12.3706 39.4614 12.0319 38.8616 11.4291C38.2618 10.8262 37.9248 10.0086 37.9248 9.15601H33.1274C33.1274 10.9401 31.7041 12.3706 29.9291 12.3706V26.8363C30.7773 26.8363 31.5908 27.175 32.1906 27.7778C32.7904 28.3807 33.1274 29.1983 33.1274 30.0509H37.9248C37.9248 28.2829 39.364 26.8363 41.1231 26.8363V12.3706Z" fill="#A7A7A7"/>
</g>
<g filter="url(#filter1_i_2199_607)">
<path d="M23.5325 12.9779C23.5325 16.53 20.67 19.4071 17.1359 19.4071C13.6017 19.4071 10.7393 16.53 10.7393 12.9779C10.7393 9.42577 13.6017 6.54871 17.1359 6.54871C20.67 6.54871 23.5325 9.42577 23.5325 12.9779ZM23.5325 23.779V32.2655H5.9418V29.0509C5.9418 25.4988 10.9471 22.6217 17.1359 22.6217C19.5346 22.6217 21.7254 23.0557 23.5325 23.779ZM44.3214 32.2655H26.7308V4.94141H44.3214V32.2655ZM31.5282 18.6035C31.5282 17.5377 31.9494 16.5157 32.6992 15.7621C33.4489 15.0086 34.4658 14.5852 35.5261 14.5852C36.5864 14.5852 37.6033 15.0086 38.353 15.7621C39.1028 16.5157 39.524 17.5377 39.524 18.6035C39.524 19.6692 39.1028 20.6912 38.353 21.4448C37.6033 22.1984 36.5864 22.6217 35.5261 22.6217C34.4658 22.6217 33.4489 22.1984 32.6992 21.4448C31.9494 20.6912 31.5282 19.6692 31.5282 18.6035ZM41.1231 11.3706C40.2749 11.3706 39.4614 11.0319 38.8616 10.4291C38.2618 9.82622 37.9248 9.00857 37.9248 8.15601H33.1274C33.1274 9.94011 31.7041 11.3706 29.9291 11.3706V25.8363C30.7773 25.8363 31.5908 26.175 32.1906 26.7778C32.7904 27.3807 33.1274 28.1983 33.1274 29.0509H37.9248C37.9248 27.2829 39.364 25.8363 41.1231 25.8363V11.3706Z" fill="#A7A7A7"/>
</g>
<defs>
<filter id="filter0_f_2199_607" x="1.4782e-05" y="-0.000381947" width="50.2632" height="39.2078" filterUnits="userSpaceOnUse" color-interpolation-filters="sRGB">
<feFlood flood-opacity="0" result="BackgroundImageFix"/>
<feBlend mode="normal" in="SourceGraphic" in2="BackgroundImageFix" result="shape"/>
<feGaussianBlur stdDeviation="2.97089" result="effect1_foregroundBlur_2199_607"/>
</filter>
<filter id="filter1_i_2199_607" x="5.9418" y="4.94141" width="38.3796" height="33.266" filterUnits="userSpaceOnUse" color-interpolation-filters="sRGB">
<feFlood flood-opacity="0" result="BackgroundImageFix"/>
<feBlend mode="normal" in="SourceGraphic" in2="BackgroundImageFix" result="shape"/>
<feColorMatrix in="SourceAlpha" type="matrix" values="0 0 0 0 0 0 0 0 0 0 0 0 0 0 0 0 0 0 127 0" result="hardAlpha"/>
<feOffset dy="5.94179"/>
<feGaussianBlur stdDeviation="2.97089"/>
<feComposite in2="hardAlpha" operator="arithmetic" k2="-1" k3="1"/>
<feColorMatrix type="matrix" values="0 0 0 0 1 0 0 0 0 1 0 0 0 0 1 0 0 0 0.25 0"/>
<feBlend mode="normal" in2="shape" result="effect1_innerShadow_2199_607"/>
</filter>
</defs>
</svg>
