<svg width="51" height="40" viewBox="0 0 51 40" fill="none" xmlns="http://www.w3.org/2000/svg">
<g opacity="0.75" filter="url(#filter0_f_2199_608)">
<path d="M23.5325 13.9783C23.5325 17.5304 20.67 20.4075 17.1359 20.4075C13.6017 20.4075 10.7393 17.5304 10.7393 13.9783C10.7393 10.4261 13.6017 7.54907 17.1359 7.54907C20.67 7.54907 23.5325 10.4261 23.5325 13.9783ZM23.5325 24.7793V33.2659H5.9418V30.0513C5.9418 26.4991 10.9471 23.6221 17.1359 23.6221C19.5346 23.6221 21.7254 24.056 23.5325 24.7793ZM44.3214 33.2659H26.7308V5.94177H44.3214V33.2659ZM31.5282 19.6038C31.5282 18.5381 31.9494 17.5161 32.6992 16.7625C33.4489 16.0089 34.4658 15.5856 35.5261 15.5856C36.5864 15.5856 37.6033 16.0089 38.353 16.7625C39.1028 17.5161 39.524 18.5381 39.524 19.6038C39.524 20.6695 39.1028 21.6916 38.353 22.4451C37.6033 23.1987 36.5864 23.6221 35.5261 23.6221C34.4658 23.6221 33.4489 23.1987 32.6992 22.4451C31.9494 21.6916 31.5282 20.6695 31.5282 19.6038ZM41.1231 12.371C40.2749 12.371 39.4614 12.0323 38.8616 11.4294C38.2618 10.8266 37.9248 10.0089 37.9248 9.15637H33.1274C33.1274 10.9405 31.7041 12.371 29.9291 12.371V26.8367C30.7773 26.8367 31.5908 27.1753 32.1906 27.7782C32.7904 28.3811 33.1274 29.1987 33.1274 30.0513H37.9248C37.9248 28.2832 39.364 26.8367 41.1231 26.8367V12.371Z" fill="#1E8C62"/>
</g>
<g filter="url(#filter1_i_2199_608)">
<path d="M23.5325 12.9783C23.5325 16.5304 20.67 19.4075 17.1359 19.4075C13.6017 19.4075 10.7393 16.5304 10.7393 12.9783C10.7393 9.42614 13.6017 6.54907 17.1359 6.54907C20.67 6.54907 23.5325 9.42614 23.5325 12.9783ZM23.5325 23.7793V32.2659H5.9418V29.0513C5.9418 25.4991 10.9471 22.6221 17.1359 22.6221C19.5346 22.6221 21.7254 23.056 23.5325 23.7793ZM44.3214 32.2659H26.7308V4.94177H44.3214V32.2659ZM31.5282 18.6038C31.5282 17.5381 31.9494 16.5161 32.6992 15.7625C33.4489 15.0089 34.4658 14.5856 35.5261 14.5856C36.5864 14.5856 37.6033 15.0089 38.353 15.7625C39.1028 16.5161 39.524 17.5381 39.524 18.6038C39.524 19.6695 39.1028 20.6916 38.353 21.4451C37.6033 22.1987 36.5864 22.6221 35.5261 22.6221C34.4658 22.6221 33.4489 22.1987 32.6992 21.4451C31.9494 20.6916 31.5282 19.6695 31.5282 18.6038ZM41.1231 11.371C40.2749 11.371 39.4614 11.0323 38.8616 10.4294C38.2618 9.82658 37.9248 9.00894 37.9248 8.15637H33.1274C33.1274 9.94047 31.7041 11.371 29.9291 11.371V25.8367C30.7773 25.8367 31.5908 26.1753 32.1906 26.7782C32.7904 27.3811 33.1274 28.1987 33.1274 29.0513H37.9248C37.9248 27.2832 39.364 25.8367 41.1231 25.8367V11.371Z" fill="#1E8C62"/>
</g>
<defs>
<filter id="filter0_f_2199_608" x="1.4782e-05" y="-1.57356e-05" width="50.2632" height="39.2077" filterUnits="userSpaceOnUse" color-interpolation-filters="sRGB">
<feFlood flood-opacity="0" result="BackgroundImageFix"/>
<feBlend mode="normal" in="SourceGraphic" in2="BackgroundImageFix" result="shape"/>
<feGaussianBlur stdDeviation="2.97089" result="effect1_foregroundBlur_2199_608"/>
</filter>
<filter id="filter1_i_2199_608" x="5.9418" y="4.94177" width="38.3796" height="33.2659" filterUnits="userSpaceOnUse" color-interpolation-filters="sRGB">
<feFlood flood-opacity="0" result="BackgroundImageFix"/>
<feBlend mode="normal" in="SourceGraphic" in2="BackgroundImageFix" result="shape"/>
<feColorMatrix in="SourceAlpha" type="matrix" values="0 0 0 0 0 0 0 0 0 0 0 0 0 0 0 0 0 0 127 0" result="hardAlpha"/>
<feOffset dy="5.94179"/>
<feGaussianBlur stdDeviation="2.97089"/>
<feComposite in2="hardAlpha" operator="arithmetic" k2="-1" k3="1"/>
<feColorMatrix type="matrix" values="0 0 0 0 1 0 0 0 0 1 0 0 0 0 1 0 0 0 0.25 0"/>
<feBlend mode="normal" in2="shape" result="effect1_innerShadow_2199_608"/>
</filter>
</defs>
</svg>
