<svg width="16" height="20" viewBox="0 0 16 20" fill="none" xmlns="http://www.w3.org/2000/svg">
<path d="M14.6392 17.2567C13.8207 18.4794 12.953 19.6726 11.6316 19.6923C10.3102 19.7219 9.88621 18.9133 8.38735 18.9133C6.87862 18.9133 6.41516 19.6726 5.16279 19.7219C3.871 19.7712 2.89477 18.4202 2.06645 17.2271C0.380228 14.7914 -0.911556 10.3047 0.823971 7.28724C1.68187 5.78838 3.22018 4.84173 4.88668 4.81214C6.14891 4.79242 7.35195 5.67004 8.13096 5.67004C8.90012 5.67004 10.3595 4.61492 11.888 4.7727C12.5289 4.80228 14.3236 5.02908 15.4774 6.72517C15.3886 6.78433 13.3375 7.98737 13.3573 10.4822C13.3868 13.4602 15.9704 14.4561 16 14.466C15.9704 14.535 15.5858 15.886 14.6392 17.2567ZM9.00859 1.47914C9.72844 0.660683 10.9216 0.0394438 11.9077 0C12.0359 1.15373 11.5724 2.31732 10.8822 3.14564C10.2018 3.98382 9.07761 4.63465 7.97319 4.5459C7.82527 3.41189 8.37749 2.22857 9.00859 1.47914Z" fill="white"/>
</svg>
