<svg width="33" height="40" viewBox="0 0 33 40" fill="none" xmlns="http://www.w3.org/2000/svg">
<g opacity="0.75" filter="url(#filter0_f_2199_611)">
<path d="M14.1919 8.21716V12.7738C14.1919 14.6528 15.7153 16.1759 17.5942 16.1761H24.7173V33.9906H5.94189V8.21716H14.1919ZM21.0562 18.3441C19.8705 18.3443 18.7697 18.962 18.1519 19.974L17.8296 20.5023C17.525 21.0009 16.8891 21.185 16.3657 20.9252L15.8345 20.6615C14.0785 19.7901 11.9512 20.5786 11.188 22.3842L10.9644 22.9135C10.7173 23.4975 10.0368 23.7628 9.45947 23.5004L8.271 22.9594C7.6992 22.6994 7.02434 22.9521 6.76416 23.5238C6.50412 24.0955 6.75702 24.7703 7.32861 25.0306L8.51709 25.5717C10.2602 26.3644 12.3144 25.5629 13.0601 23.7992L13.2837 23.2699C13.5365 22.6719 14.2411 22.4111 14.8228 22.6996L15.354 22.9633C16.9339 23.7475 18.8517 23.194 19.771 21.6888L20.0942 21.1595C20.2988 20.8244 20.6635 20.6197 21.0562 20.6195H22.2651C22.8934 20.6195 23.4028 20.1101 23.4028 19.4818C23.4028 18.8535 22.8934 18.3441 22.2651 18.3441H21.0562ZM24.6606 5.94177C25.9487 5.94196 26.9927 6.98664 26.9927 8.27478V15.0385L15.3296 5.94177H24.6606ZM21.8335 13.9008H17.5942C16.972 13.9005 16.4673 13.3961 16.4673 12.7738V9.71423L21.8335 13.9008Z" fill="#25A373"/>
</g>
<g filter="url(#filter1_i_2199_611)">
<path d="M14.1919 8.21716V12.7738C14.1919 14.6528 15.7153 16.1759 17.5942 16.1761H24.7173V33.9906H5.94189V8.21716H14.1919ZM21.0562 18.3441C19.8705 18.3443 18.7697 18.962 18.1519 19.974L17.8296 20.5023C17.525 21.0009 16.8891 21.185 16.3657 20.9252L15.8345 20.6615C14.0785 19.7901 11.9512 20.5786 11.188 22.3842L10.9644 22.9135C10.7173 23.4975 10.0368 23.7628 9.45947 23.5004L8.271 22.9594C7.6992 22.6994 7.02434 22.9521 6.76416 23.5238C6.50412 24.0955 6.75702 24.7703 7.32861 25.0306L8.51709 25.5717C10.2602 26.3644 12.3144 25.5629 13.0601 23.7992L13.2837 23.2699C13.5365 22.6719 14.2411 22.4111 14.8228 22.6996L15.354 22.9633C16.9339 23.7475 18.8517 23.194 19.771 21.6888L20.0942 21.1595C20.2988 20.8244 20.6635 20.6197 21.0562 20.6195H22.2651C22.8934 20.6195 23.4028 20.1101 23.4028 19.4818C23.4028 18.8535 22.8934 18.3441 22.2651 18.3441H21.0562ZM24.6606 5.94177C25.9487 5.94196 26.9927 6.98664 26.9927 8.27478V15.0385L15.3296 5.94177H24.6606ZM21.8335 13.9008H17.5942C16.972 13.9005 16.4673 13.3961 16.4673 12.7738V9.71423L21.8335 13.9008Z" fill="#25A373"/>
</g>
<defs>
<filter id="filter0_f_2199_611" x="0.000106335" y="-1.57356e-05" width="32.9344" height="39.9324" filterUnits="userSpaceOnUse" color-interpolation-filters="sRGB">
<feFlood flood-opacity="0" result="BackgroundImageFix"/>
<feBlend mode="normal" in="SourceGraphic" in2="BackgroundImageFix" result="shape"/>
<feGaussianBlur stdDeviation="2.97089" result="effect1_foregroundBlur_2199_611"/>
</filter>
<filter id="filter1_i_2199_611" x="5.94189" y="5.94177" width="21.0508" height="33.9906" filterUnits="userSpaceOnUse" color-interpolation-filters="sRGB">
<feFlood flood-opacity="0" result="BackgroundImageFix"/>
<feBlend mode="normal" in="SourceGraphic" in2="BackgroundImageFix" result="shape"/>
<feColorMatrix in="SourceAlpha" type="matrix" values="0 0 0 0 0 0 0 0 0 0 0 0 0 0 0 0 0 0 127 0" result="hardAlpha"/>
<feOffset dy="5.94179"/>
<feGaussianBlur stdDeviation="2.97089"/>
<feComposite in2="hardAlpha" operator="arithmetic" k2="-1" k3="1"/>
<feColorMatrix type="matrix" values="0 0 0 0 1 0 0 0 0 1 0 0 0 0 1 0 0 0 0.25 0"/>
<feBlend mode="normal" in2="shape" result="effect1_innerShadow_2199_611"/>
</filter>
</defs>
</svg>
