<svg width="426" height="143" viewBox="0 0 426 143" fill="none" xmlns="http://www.w3.org/2000/svg">
<g filter="url(#filter0_f_447_594)">
<circle cx="52.5" cy="52.5" r="32.5" fill="url(#paint0_radial_447_594)"/>
</g>
<circle cx="52" cy="53" r="26.0023" fill="#1E8C62" stroke="#1E8C62" stroke-width="2.00453"/>
<path d="M51.9999 28.667C65.4387 28.6671 76.3337 39.5613 76.3339 53L76.3261 53.6279C75.9932 66.7768 65.229 77.3339 51.9999 77.334L51.372 77.3262C38.2234 76.993 27.6669 66.2289 27.6669 53C27.6671 39.5613 38.5613 28.6672 51.9999 28.667ZM51.9999 31.5938C40.1776 31.5939 30.5939 41.1777 30.5937 53C30.5937 64.8225 40.1775 74.4071 51.9999 74.4072C63.8225 74.4072 73.4072 64.8226 73.4072 53C73.407 41.1776 63.8224 31.5938 51.9999 31.5938ZM51.9462 34.7012C52.3527 34.7012 52.6824 35.0311 52.6826 35.4375C52.6825 35.6981 52.5452 35.9249 52.3408 36.0557L52.3857 40.9873L55.1132 41.3945C55.1696 41.403 55.2117 41.4518 55.2119 41.5088V42.3652C55.2119 42.4378 55.1454 42.4923 55.0742 42.4785L53.3691 42.1494V44.8828C54.9384 45.0336 56.2869 45.4196 57.415 46.04C58.9051 46.8348 59.6502 47.9021 59.6503 49.2432C59.6503 49.9138 59.402 50.4105 58.9052 50.7334C58.4085 51.0562 57.5894 51.231 56.4472 51.2559C56.1989 50.2625 55.7264 49.5173 55.0312 49.0205C54.5914 48.7064 54.0372 48.4915 53.3691 48.376V52.3955C55.6846 52.9643 57.3937 53.6895 58.496 54.5713C59.7625 55.5647 60.3954 56.9183 60.3954 58.6318C60.3954 60.2959 59.6503 61.6247 58.1601 62.6182C56.8759 63.4888 55.1722 63.9773 53.0488 64.085L51.9511 70.041L50.8661 64.0664C49.0538 63.9405 47.5486 63.5322 46.3505 62.8418C44.91 61.9725 44.1771 60.8175 44.1523 59.377C44.1523 58.7561 44.4007 58.2347 44.8974 57.8125C45.419 57.3903 46.2387 57.1664 47.3564 57.1416C47.5799 58.2343 48.1014 59.0787 48.9208 59.6748C49.4049 60.0122 49.9503 60.2476 50.5556 60.3857V55.6387C49.2045 55.2826 48.1132 54.9274 47.2822 54.5713C46.2638 54.1242 45.5055 53.5529 45.0087 52.8574C44.5121 52.162 44.2636 51.2429 44.2636 50.1006C44.2636 48.511 44.9351 47.2313 46.2763 46.2627C47.3715 45.4719 48.798 45.0044 50.5556 44.8594V42.1387L48.8281 42.4785C48.7568 42.4925 48.6905 42.4378 48.6904 42.3652V41.5078C48.6907 41.4511 48.7319 41.4022 48.788 41.3936L51.538 40.9756L51.5829 36.0742C51.3611 35.9474 51.21 35.7113 51.2099 35.4375C51.2101 35.031 51.5397 34.7012 51.9462 34.7012ZM53.3691 60.4414C53.9634 60.3625 54.4679 60.2334 54.8818 60.0479C55.6021 59.725 55.9628 59.2405 55.9628 58.5947C55.9628 57.9987 55.6644 57.5019 55.0683 57.1045C54.7174 56.8604 54.151 56.6162 53.3691 56.3721V60.4414ZM50.5556 48.4434C50.2257 48.5217 49.9163 48.6253 49.6288 48.7588C48.9582 49.0817 48.623 49.5048 48.623 50.0264C48.6231 50.5725 48.9085 50.995 49.4794 51.293C49.7459 51.432 50.1053 51.569 50.5556 51.708V48.4434Z" fill="white"/>
<path d="M99.4616 72L87.1861 29.8182L98.4524 29.8182L104.817 57.4588L105.167 57.4588L112.437 29.8182L121.624 29.8182L128.894 57.5206L129.244 57.5206L135.629 29.8182L146.875 29.8182L134.62 72L124.795 72L117.195 46.419L116.866 46.419L109.266 72L99.4616 72ZM162.364 72.5973C159.054 72.5973 156.198 71.9451 153.795 70.6406C151.406 69.3224 149.566 67.4482 148.276 65.0178C146.999 62.5736 146.36 59.6695 146.36 56.3054C146.36 53.0374 147.005 50.1813 148.296 47.7372C149.587 45.2794 151.406 43.3707 153.754 42.0114C156.102 40.6383 158.869 39.9517 162.055 39.9517C164.307 39.9517 166.366 40.3018 168.234 41.0021C170.101 41.7024 171.714 42.7391 173.074 44.1122C174.433 45.4853 175.491 47.1811 176.246 49.1996C177.001 51.2043 177.379 53.5043 177.379 56.0994L177.379 58.6122L149.882 58.6122L149.882 52.7628L168.007 52.7628C167.993 51.6918 167.739 50.7375 167.245 49.8999C166.751 49.0623 166.071 48.41 165.206 47.9432C164.355 47.4626 163.373 47.2223 162.261 47.2223C161.135 47.2223 160.125 47.4763 159.233 47.9844C158.34 48.4787 157.633 49.1584 157.112 50.0234C156.59 50.8748 156.315 51.8428 156.288 52.9276L156.288 58.88C156.288 60.1707 156.542 61.3035 157.05 62.2784C157.558 63.2396 158.279 63.9879 159.212 64.5234C160.146 65.059 161.258 65.3267 162.549 65.3267C163.442 65.3267 164.252 65.2031 164.979 64.956C165.707 64.7088 166.332 64.3449 166.854 63.8643C167.375 63.3838 167.767 62.7933 168.028 62.093L177.276 62.3608C176.891 64.4342 176.047 66.2398 174.742 67.7777C173.451 69.3018 171.756 70.4896 169.655 71.3409C167.554 72.1785 165.124 72.5973 162.364 72.5973ZM192.594 29.8182L192.594 72L182.523 72L182.523 29.8182L192.594 29.8182ZM213.773 72.5973C210.436 72.5973 207.573 71.9108 205.184 70.5376C202.808 69.1645 200.982 67.2559 199.705 64.8118C198.428 62.3539 197.79 59.5116 197.79 56.2848C197.79 53.0443 198.428 50.2019 199.705 47.7578C200.996 45.3 202.829 43.3845 205.205 42.0114C207.594 40.6383 210.443 39.9517 213.752 39.9517C216.677 39.9517 219.224 40.4804 221.393 41.5376C223.577 42.5949 225.279 44.0916 226.501 46.0277C227.737 47.95 228.389 50.2088 228.458 52.804L219.045 52.804C218.853 51.1837 218.304 49.9136 217.398 48.9936C216.505 48.0736 215.338 47.6136 213.896 47.6136C212.729 47.6136 211.706 47.9432 210.827 48.6023C209.949 49.2476 209.262 50.2088 208.768 51.4858C208.287 52.7491 208.047 54.3144 208.047 56.1818C208.047 58.0492 208.287 59.6283 208.768 60.919C209.262 62.196 209.949 63.1641 210.827 63.8232C211.706 64.4685 212.729 64.7912 213.896 64.7912C214.83 64.7912 215.654 64.5921 216.368 64.1939C217.096 63.7957 217.693 63.2121 218.16 62.4432C218.627 61.6605 218.922 60.7131 219.045 59.6009L228.458 59.6009C228.362 62.2098 227.71 64.4891 226.501 66.4389C225.307 68.3887 223.625 69.906 221.455 70.9908C219.299 72.0618 216.739 72.5973 213.773 72.5973ZM248.38 72.5973C245.057 72.5973 242.201 71.9176 239.812 70.5582C237.436 69.1851 235.603 67.2765 234.313 64.8324C233.036 62.3745 232.397 59.5253 232.397 56.2848C232.397 53.0305 233.036 50.1813 234.313 47.7372C235.603 45.2794 237.436 43.3707 239.812 42.0114C242.201 40.6383 245.057 39.9517 248.38 39.9517C251.703 39.9517 254.552 40.6383 256.928 42.0114C259.317 43.3707 261.15 45.2794 262.427 47.7372C263.718 50.1813 264.363 53.0305 264.363 56.2848C264.363 59.5253 263.718 62.3745 262.427 64.8324C261.15 67.2765 259.317 69.1851 256.928 70.5582C254.552 71.9176 251.703 72.5973 248.38 72.5973ZM248.442 64.9972C249.65 64.9972 250.673 64.6264 251.511 63.8849C252.348 63.1435 252.987 62.1136 253.426 60.7955C253.879 59.4773 254.106 57.9531 254.106 56.223C254.106 54.4654 253.879 52.9276 253.426 51.6094C252.987 50.2912 252.348 49.2614 251.511 48.5199C250.673 47.7784 249.65 47.4077 248.442 47.4077C247.192 47.4077 246.135 47.7784 245.27 48.5199C244.419 49.2614 243.767 50.2912 243.313 51.6094C242.874 52.9276 242.654 54.4654 242.654 56.223C242.654 57.9531 242.874 59.4773 243.313 60.7955C243.767 62.1136 244.419 63.1435 245.27 63.8849C246.135 64.6264 247.192 64.9972 248.442 64.9972ZM269.523 72L269.523 40.3636L279.1 40.3636L279.1 46.1719L279.45 46.1719C280.109 44.2495 281.221 42.7322 282.787 41.62C284.352 40.5078 286.22 39.9517 288.389 39.9517C290.586 39.9517 292.467 40.5147 294.032 41.6406C295.598 42.7666 296.593 44.277 297.019 46.1719L297.349 46.1719C297.939 44.2907 299.092 42.7872 300.809 41.6612C302.525 40.5215 304.55 39.9517 306.885 39.9517C309.878 39.9517 312.309 40.9129 314.176 42.8352C316.043 44.7438 316.977 47.3665 316.977 50.7031L316.977 72L306.905 72L306.905 53.0099C306.905 51.4309 306.5 50.2294 305.69 49.4055C304.88 48.5679 303.83 48.1492 302.539 48.1492C301.152 48.1492 300.06 48.6023 299.264 49.5085C298.481 50.401 298.09 51.6025 298.09 53.1129L298.09 72L288.41 72L288.41 52.907C288.41 51.4377 288.011 50.2775 287.215 49.4261C286.419 48.5748 285.368 48.1492 284.064 48.1492C283.185 48.1492 282.409 48.362 281.736 48.7876C281.064 49.1996 280.535 49.79 280.15 50.559C279.78 51.3279 279.594 52.2341 279.594 53.2777L279.594 72L269.523 72ZM338.006 72.5973C334.697 72.5973 331.841 71.9451 329.438 70.6406C327.049 69.3224 325.209 67.4482 323.918 65.0178C322.641 62.5736 322.003 59.6695 322.003 56.3054C322.003 53.0374 322.648 50.1813 323.939 47.7372C325.229 45.2794 327.049 43.3707 329.397 42.0114C331.745 40.6383 334.512 39.9517 337.697 39.9517C339.949 39.9517 342.009 40.3018 343.876 41.0021C345.744 41.7024 347.357 42.7391 348.716 44.1122C350.076 45.4853 351.133 47.1811 351.888 49.1996C352.644 51.2043 353.021 53.5043 353.021 56.0994L353.021 58.6122L325.525 58.6122L325.525 52.7628L343.65 52.7628C343.636 51.6918 343.382 50.7375 342.888 49.8999C342.393 49.0623 341.714 48.41 340.849 47.9432C339.997 47.4626 339.015 47.2223 337.903 47.2223C336.777 47.2223 335.768 47.4763 334.876 47.9844C333.983 48.4787 333.276 49.1584 332.754 50.0234C332.232 50.8748 331.958 51.8428 331.93 52.9276L331.93 58.88C331.93 60.1707 332.184 61.3035 332.692 62.2784C333.2 63.2396 333.921 63.9879 334.855 64.5234C335.789 65.059 336.901 65.3267 338.192 65.3267C339.084 65.3267 339.894 65.2031 340.622 64.956C341.35 64.7088 341.974 64.3449 342.496 63.8643C343.018 63.3838 343.409 62.7933 343.67 62.093L352.918 62.3608C352.534 64.4342 351.689 66.2398 350.385 67.7777C349.094 69.3019 347.398 70.4896 345.297 71.3409C343.197 72.1785 340.766 72.5973 338.006 72.5973ZM388.483 40.3636L388.483 47.7784L368.525 47.7784L368.525 40.3636L388.483 40.3636ZM372.706 32.7841L382.778 32.7841L382.778 62.0519C382.778 62.6697 382.874 63.1709 383.066 63.5554C383.272 63.9261 383.568 64.1939 383.952 64.3587C384.337 64.5097 384.797 64.5852 385.332 64.5852C385.717 64.5852 386.122 64.5509 386.547 64.4822C386.987 64.3999 387.316 64.3312 387.536 64.2763L389.06 71.5469C388.579 71.6842 387.9 71.8558 387.021 72.0618C386.156 72.2678 385.119 72.3982 383.911 72.4531C381.549 72.563 379.524 72.2884 377.835 71.6293C376.16 70.9564 374.876 69.9129 373.983 68.4986C373.105 67.0843 372.679 65.3061 372.706 63.1641L372.706 32.7841ZM408.05 72.5973C404.727 72.5973 401.871 71.9176 399.482 70.5582C397.106 69.1851 395.273 67.2765 393.983 64.8324C392.706 62.3745 392.067 59.5253 392.067 56.2848C392.067 53.0305 392.706 50.1813 393.983 47.7372C395.273 45.2794 397.106 43.3707 399.482 42.0114C401.871 40.6383 404.727 39.9517 408.05 39.9517C411.373 39.9517 414.222 40.6383 416.598 42.0114C418.987 43.3707 420.82 45.2794 422.097 47.7372C423.388 50.1813 424.033 53.0305 424.033 56.2848C424.033 59.5253 423.388 62.3745 422.097 64.8324C420.82 67.2765 418.987 69.1851 416.598 70.5582C414.222 71.9176 411.373 72.5973 408.05 72.5973ZM408.112 64.9972C409.32 64.9972 410.343 64.6264 411.181 63.8849C412.018 63.1435 412.657 62.1136 413.096 60.7955C413.549 59.4773 413.776 57.9531 413.776 56.223C413.776 54.4654 413.549 52.9276 413.096 51.6094C412.657 50.2912 412.018 49.2614 411.181 48.5199C410.343 47.7784 409.32 47.4077 408.112 47.4077C406.862 47.4077 405.805 47.7784 404.94 48.5199C404.089 49.2614 403.436 50.2912 402.983 51.6094C402.544 52.9276 402.324 54.4654 402.324 56.223C402.324 57.9531 402.544 59.4773 402.983 60.7955C403.436 62.1136 404.089 63.1435 404.94 63.8849C405.805 64.6264 406.862 64.9972 408.112 64.9972ZM26.9308 130L26.9308 87.8182L55.7248 87.8182L55.7248 96.098L37.1261 96.098L37.1261 104.749L53.8917 104.749L53.8917 113.049L37.1261 113.049L37.1261 130L26.9308 130ZM79.2873 116.344L79.2873 98.3636L89.3384 98.3636L89.3384 130L79.7404 130L79.7404 124.109L79.4109 124.109C78.7106 126.045 77.516 127.583 75.8271 128.723C74.1519 129.849 72.1265 130.412 69.7511 130.412C67.5953 130.412 65.7004 129.918 64.0664 128.929C62.4324 127.94 61.1623 126.56 60.256 124.789C59.3498 123.004 58.8898 120.917 58.8761 118.528L58.8761 98.3636L68.9478 98.3636L68.9478 116.55C68.9615 118.267 69.4147 119.619 70.3072 120.608C71.1997 121.597 72.4149 122.091 73.9528 122.091C74.9551 122.091 75.8545 121.871 76.6509 121.432C77.4611 120.979 78.0995 120.326 78.5664 119.475C79.047 118.61 79.2873 117.567 79.2873 116.344ZM105.821 111.957L105.821 130L95.7491 130L95.7491 98.3636L105.327 98.3636L105.327 104.172L105.677 104.172C106.377 102.236 107.572 100.719 109.26 99.62C110.949 98.5078 112.961 97.9517 115.295 97.9517C117.52 97.9517 119.449 98.4529 121.083 99.4553C122.731 100.444 124.008 101.831 124.914 103.616C125.834 105.387 126.287 107.46 126.273 109.836L126.273 130L116.202 130L116.202 111.813C116.215 110.056 115.769 108.683 114.863 107.694C113.97 106.705 112.728 106.211 111.135 106.211C110.077 106.211 109.144 106.444 108.334 106.911C107.537 107.364 106.919 108.017 106.48 108.868C106.054 109.719 105.835 110.749 105.821 111.957ZM144.064 130.453C141.729 130.453 139.608 129.849 137.699 128.641C135.791 127.432 134.266 125.62 133.127 123.203C131.987 120.786 131.417 117.786 131.417 114.202C131.417 110.481 132.008 107.419 133.189 105.016C134.369 102.613 135.914 100.835 137.823 99.6818C139.745 98.5284 141.812 97.9517 144.022 97.9517C145.684 97.9517 147.105 98.2401 148.286 98.8168C149.467 99.3797 150.442 100.107 151.211 101C151.98 101.893 152.563 102.819 152.961 103.781L153.167 103.781L153.167 87.8182L163.239 87.8182L163.239 130L153.27 130L153.27 124.871L152.961 124.871C152.536 125.846 151.931 126.759 151.149 127.611C150.366 128.462 149.384 129.149 148.203 129.67C147.036 130.192 145.656 130.453 144.064 130.453ZM147.565 122.606C148.787 122.606 149.831 122.263 150.696 121.576C151.561 120.876 152.227 119.894 152.694 118.631C153.16 117.367 153.394 115.884 153.394 114.182C153.394 112.452 153.16 110.962 152.694 109.712C152.24 108.463 151.574 107.502 150.696 106.829C149.831 106.156 148.787 105.82 147.565 105.82C146.315 105.82 145.258 106.163 144.393 106.849C143.528 107.536 142.869 108.504 142.416 109.754C141.976 111.003 141.757 112.479 141.757 114.182C141.757 115.884 141.983 117.367 142.436 118.631C142.89 119.894 143.542 120.876 144.393 121.576C145.258 122.263 146.315 122.606 147.565 122.606ZM169.608 130L169.608 87.8182L198.403 87.8182L198.403 96.098L179.804 96.098L179.804 104.749L196.569 104.749L196.569 113.049L179.804 113.049L179.804 130L169.608 130ZM203.536 130L203.536 98.3636L213.608 98.3636L213.608 130L203.536 130ZM208.582 94.6768C207.168 94.6768 205.953 94.21 204.937 93.2763C203.921 92.3288 203.413 91.1892 203.413 89.8572C203.413 88.5391 203.921 87.4131 204.937 86.4794C205.953 85.532 207.168 85.0582 208.582 85.0582C210.01 85.0582 211.226 85.532 212.228 86.4794C213.244 87.4131 213.752 88.5391 213.752 89.8572C213.752 91.1892 213.244 92.3288 212.228 93.2763C211.226 94.21 210.01 94.6768 208.582 94.6768ZM234.766 142.523C231.759 142.523 229.184 142.104 227.042 141.266C224.9 140.429 223.218 139.282 221.996 137.827C220.774 136.371 220.039 134.723 219.792 132.884L229.328 132.348C229.507 132.993 229.836 133.556 230.317 134.037C230.811 134.518 231.45 134.888 232.232 135.149C233.029 135.41 233.963 135.54 235.034 135.54C236.722 135.54 238.116 135.129 239.215 134.305C240.327 133.495 240.883 132.073 240.883 130.041L240.883 124.48L240.533 124.48C240.135 125.455 239.53 126.327 238.72 127.096C237.91 127.865 236.901 128.469 235.693 128.908C234.498 129.348 233.125 129.567 231.573 129.567C229.267 129.567 227.152 129.032 225.23 127.961C223.321 126.876 221.79 125.201 220.637 122.935C219.497 120.656 218.927 117.724 218.927 114.141C218.927 110.447 219.517 107.406 220.698 105.016C221.879 102.613 223.424 100.835 225.333 99.6818C227.255 98.5284 229.321 97.9517 231.532 97.9517C233.194 97.9517 234.615 98.2401 235.796 98.8168C236.99 99.3797 237.972 100.107 238.741 101C239.51 101.893 240.093 102.819 240.492 103.781L240.78 103.781L240.78 98.3636L250.811 98.3636L250.811 130.124C250.811 132.801 250.138 135.06 248.792 136.9C247.446 138.74 245.565 140.134 243.149 141.081C240.732 142.042 237.938 142.523 234.766 142.523ZM235.075 122.235C236.297 122.235 237.34 121.912 238.205 121.267C239.07 120.622 239.736 119.695 240.203 118.487C240.67 117.278 240.904 115.83 240.904 114.141C240.904 112.424 240.67 110.948 240.203 109.712C239.75 108.463 239.084 107.502 238.205 106.829C237.34 106.156 236.297 105.82 235.075 105.82C233.825 105.82 232.768 106.163 231.903 106.849C231.038 107.536 230.379 108.504 229.926 109.754C229.486 110.989 229.267 112.452 229.267 114.141C229.267 115.83 229.493 117.278 229.946 118.487C230.399 119.695 231.052 120.622 231.903 121.267C232.768 121.912 233.825 122.235 235.075 122.235ZM267.303 111.957L267.303 130L257.232 130L257.232 87.8182L266.974 87.8182L266.974 104.172L267.324 104.172C268.038 102.222 269.205 100.698 270.825 99.5994C272.459 98.5009 274.457 97.9517 276.819 97.9517C279.043 97.9517 280.979 98.446 282.627 99.4347C284.275 100.41 285.552 101.79 286.458 103.575C287.378 105.36 287.831 107.447 287.817 109.836L287.817 130L277.746 130L277.746 111.813C277.759 110.056 277.32 108.683 276.428 107.694C275.535 106.705 274.279 106.211 272.658 106.211C271.601 106.211 270.667 106.444 269.857 106.911C269.061 107.364 268.436 108.017 267.983 108.868C267.544 109.719 267.317 110.749 267.303 111.957ZM311.962 98.3636L311.962 105.778L292.004 105.778L292.004 98.3636L311.962 98.3636ZM296.185 90.7841L306.257 90.7841L306.257 120.052C306.257 120.67 306.353 121.171 306.545 121.555C306.751 121.926 307.046 122.194 307.431 122.359C307.815 122.51 308.275 122.585 308.811 122.585C309.195 122.585 309.6 122.551 310.026 122.482C310.465 122.4 310.795 122.331 311.014 122.276L312.539 129.547C312.058 129.684 311.378 129.856 310.499 130.062C309.634 130.268 308.598 130.398 307.389 130.453C305.028 130.563 303.002 130.288 301.313 129.629C299.638 128.956 298.354 127.913 297.462 126.499C296.583 125.084 296.157 123.306 296.185 121.164L296.185 90.7841ZM331.549 130.597C328.24 130.597 325.384 129.945 322.981 128.641C320.592 127.322 318.752 125.448 317.461 123.018C316.184 120.574 315.546 117.67 315.546 114.305C315.546 111.037 316.191 108.181 317.482 105.737C318.772 103.279 320.592 101.371 322.94 100.011C325.288 98.6383 328.055 97.9517 331.24 97.9517C333.492 97.9517 335.552 98.3018 337.419 99.0021C339.287 99.7024 340.9 100.739 342.259 102.112C343.619 103.485 344.676 105.181 345.431 107.2C346.186 109.204 346.564 111.504 346.564 114.099L346.564 116.612L319.068 116.612L319.068 110.763L337.193 110.763C337.179 109.692 336.925 108.737 336.431 107.9C335.936 107.062 335.257 106.41 334.392 105.943C333.54 105.463 332.558 105.222 331.446 105.222C330.32 105.222 329.311 105.476 328.419 105.984C327.526 106.479 326.819 107.158 326.297 108.023C325.775 108.875 325.501 109.843 325.473 110.928L325.473 116.88C325.473 118.171 325.727 119.304 326.235 120.278C326.743 121.24 327.464 121.988 328.398 122.523C329.332 123.059 330.444 123.327 331.735 123.327C332.627 123.327 333.437 123.203 334.165 122.956C334.893 122.709 335.517 122.345 336.039 121.864C336.561 121.384 336.952 120.793 337.213 120.093L346.461 120.361C346.077 122.434 345.232 124.24 343.928 125.778C342.637 127.302 340.941 128.49 338.84 129.341C336.74 130.179 334.309 130.597 331.549 130.597ZM351.708 130L351.708 98.3636L361.491 98.3636L361.491 104.131L361.821 104.131C362.398 102.044 363.338 100.492 364.643 99.4759C365.947 98.446 367.464 97.9311 369.195 97.9311C369.661 97.9311 370.142 97.9654 370.636 98.0341C371.131 98.089 371.591 98.1783 372.016 98.3019L372.016 107.055C371.536 106.891 370.904 106.76 370.121 106.664C369.353 106.568 368.666 106.52 368.062 106.52C366.867 106.52 365.789 106.788 364.828 107.323C363.881 107.845 363.132 108.58 362.583 109.527C362.048 110.461 361.78 111.559 361.78 112.822L361.78 130L351.708 130ZM403.74 108.023L394.492 108.271C394.396 107.612 394.135 107.028 393.71 106.52C393.284 105.998 392.728 105.593 392.041 105.305C391.369 105.003 390.586 104.852 389.693 104.852C388.526 104.852 387.531 105.085 386.707 105.552C385.897 106.019 385.499 106.65 385.512 107.447C385.499 108.065 385.746 108.6 386.254 109.053C386.776 109.506 387.702 109.87 389.034 110.145L395.131 111.298C398.289 111.902 400.637 112.905 402.175 114.305C403.727 115.706 404.509 117.56 404.523 119.866C404.509 122.036 403.864 123.924 402.587 125.531C401.324 127.137 399.593 128.387 397.396 129.279C395.2 130.158 392.687 130.597 389.858 130.597C385.341 130.597 381.777 129.67 379.169 127.817C376.573 125.949 375.09 123.45 374.72 120.32L384.668 120.072C384.887 121.226 385.457 122.105 386.377 122.709C387.297 123.313 388.471 123.615 389.899 123.615C391.19 123.615 392.24 123.375 393.051 122.894C393.861 122.414 394.273 121.775 394.286 120.979C394.273 120.265 393.957 119.695 393.339 119.269C392.721 118.83 391.753 118.487 390.435 118.239L384.915 117.189C381.743 116.612 379.381 115.548 377.83 113.996C376.278 112.431 375.509 110.44 375.523 108.023C375.509 105.909 376.072 104.103 377.212 102.607C378.352 101.096 379.972 99.9427 382.073 99.1463C384.173 98.3499 386.652 97.9517 389.508 97.9517C393.792 97.9517 397.17 98.8511 399.642 100.65C402.113 102.435 403.479 104.893 403.74 108.023ZM421.325 87.8182L420.377 117.086L411.912 117.086L410.964 87.8182L421.325 87.8182ZM416.134 130.597C414.665 130.597 413.402 130.076 412.344 129.032C411.301 127.988 410.779 126.725 410.779 125.242C410.779 123.787 411.301 122.544 412.344 121.514C413.402 120.471 414.665 119.949 416.134 119.949C417.549 119.949 418.791 120.471 419.862 121.514C420.947 122.544 421.489 123.787 421.489 125.242C421.489 126.231 421.235 127.13 420.727 127.94C420.233 128.75 419.581 129.396 418.771 129.876C417.974 130.357 417.095 130.597 416.134 130.597Z" fill="black"/>
<defs>
<filter id="filter0_f_447_594" x="0" y="0" width="105" height="105" filterUnits="userSpaceOnUse" color-interpolation-filters="sRGB">
<feFlood flood-opacity="0" result="BackgroundImageFix"/>
<feBlend mode="normal" in="SourceGraphic" in2="BackgroundImageFix" result="shape"/>
<feGaussianBlur stdDeviation="10" result="effect1_foregroundBlur_447_594"/>
</filter>
<radialGradient id="paint0_radial_447_594" cx="0" cy="0" r="1" gradientUnits="userSpaceOnUse" gradientTransform="translate(52.5 52.5) rotate(90) scale(32.5)">
<stop offset="0.05" stop-color="#1E8C62"/>
<stop offset="0.85" stop-color="#25A373" stop-opacity="0"/>
</radialGradient>
</defs>
</svg>
