<svg width="61" height="41" viewBox="0 0 61 41" fill="none" xmlns="http://www.w3.org/2000/svg">
<g opacity="0.45" filter="url(#filter0_f_2199_605)">
<rect x="5.94177" y="5.94141" width="48.5176" height="28.7622" rx="1.4451" fill="#A7A7A7"/>
</g>
<g filter="url(#filter1_i_2199_605)">
<path d="M53.223 34.6777C53.1526 34.6883 53.0806 34.6953 53.0072 34.6953C53.0806 34.6953 53.1525 34.6883 53.223 34.6777ZM54.4232 33.542C54.4079 33.6167 54.3851 33.6887 54.3588 33.7588C54.3861 33.6861 54.4088 33.611 54.4242 33.5332L54.4232 33.542ZM5.974 33.582C5.97087 33.5687 5.96699 33.5555 5.96423 33.542L5.9613 33.5244C5.96502 33.5438 5.96952 33.5629 5.974 33.582ZM53.0072 33.251H7.38025V7.37891H53.0072V33.251ZM18.3793 14.7988C16.948 14.7988 15.5457 15.1974 14.349 15.9482C13.1521 16.6993 12.2119 17.7712 11.6547 19.0342C11.0973 20.2979 10.9499 21.6922 11.2347 23.0371C11.5196 24.3814 12.2217 25.6098 13.2435 26.5693C14.265 27.5284 15.5615 28.1781 16.9662 28.4404C18.3706 28.7027 19.8272 28.5682 21.1527 28.0527C22.4784 27.5371 23.6193 26.6606 24.4252 25.5283C25.2314 24.3952 25.6653 23.0568 25.6654 21.6846C25.6653 21.2857 25.3416 20.962 24.9427 20.9619H19.1019V15.5215C19.1019 15.33 19.0253 15.1462 18.89 15.0107C18.7546 14.8753 18.5708 14.7989 18.3793 14.7988ZM30.764 21.0986C29.5669 21.0986 28.5961 22.0694 28.5961 23.2666V26.4023C28.5961 27.5995 29.5669 28.5703 30.764 28.5703H31.3744C32.5712 28.5699 33.5414 27.5993 33.5414 26.4023V23.2666C33.5414 22.0697 32.5712 21.099 31.3744 21.0986H30.764ZM38.64 12.0596C37.4429 12.0596 36.472 13.0304 36.472 14.2275V26.4033C36.4722 27.6003 37.443 28.5703 38.64 28.5703H39.2504C40.4472 28.57 41.4172 27.6001 41.4174 26.4033V14.2275C41.4174 13.0305 40.4473 12.0598 39.2504 12.0596H38.64ZM46.4838 18.0635C45.2867 18.0635 44.316 19.0344 44.3158 20.2314V26.3809C44.316 27.5779 45.2867 28.5479 46.4838 28.5479H47.0941C48.2911 28.5477 49.2609 27.5778 49.2611 26.3809V20.2314C49.2609 19.0345 48.2911 18.0636 47.0941 18.0635H46.4838ZM39.2504 13.5049C39.6492 13.5052 39.973 13.8287 39.973 14.2275V26.4033C39.9728 26.802 39.6491 27.1257 39.2504 27.126H38.64C38.2411 27.126 37.9176 26.8022 37.9174 26.4033V14.2275C37.9174 13.8285 38.241 13.5049 38.64 13.5049H39.2504ZM31.3744 22.5439C31.7731 22.5443 32.097 22.8678 32.097 23.2666V26.4023C32.097 26.8012 31.7731 27.1246 31.3744 27.125H30.764C30.365 27.125 30.0414 26.8014 30.0414 26.4023V23.2666C30.0414 22.8675 30.365 22.5439 30.764 22.5439H31.3744ZM17.6566 21.6846C17.6567 21.876 17.7332 22.0599 17.8685 22.1953C18.004 22.3306 18.1878 22.4072 18.3793 22.4072H24.1674C24.0506 23.218 23.7397 24 23.2484 24.6904C22.6119 25.5848 21.7018 26.2889 20.6293 26.7061C19.5565 27.1233 18.3733 27.2326 17.2318 27.0195C16.0904 26.8063 15.047 26.281 14.2328 25.5166C13.4191 24.7525 12.8706 23.7837 12.6488 22.7373C12.4273 21.6913 12.541 20.6066 12.9769 19.6182C13.4133 18.6289 14.155 17.7752 15.1166 17.1719C15.8782 16.694 16.7489 16.3916 17.6566 16.2861V21.6846ZM47.0941 19.5088C47.493 19.5089 47.8166 19.8326 47.8168 20.2314V26.3809C47.8166 26.7797 47.493 27.1034 47.0941 27.1035H46.4838C46.0848 27.1035 45.7613 26.7798 45.7611 26.3809V20.2314C45.7613 19.8325 46.0848 19.5088 46.4838 19.5088H47.0941ZM5.94666 7.20215C5.94538 7.21259 5.94282 7.22289 5.94177 7.2334C5.94282 7.22289 5.94538 7.21259 5.94666 7.20215ZM7.23181 5.94141C7.15629 5.9491 7.08273 5.96355 7.01111 5.98242C7.08275 5.96354 7.15627 5.9491 7.23181 5.94141Z" fill="#A7A7A7"/>
</g>
<defs>
<filter id="filter0_f_2199_605" x="-1.57356e-05" y="-0.000381947" width="60.4012" height="40.6453" filterUnits="userSpaceOnUse" color-interpolation-filters="sRGB">
<feFlood flood-opacity="0" result="BackgroundImageFix"/>
<feBlend mode="normal" in="SourceGraphic" in2="BackgroundImageFix" result="shape"/>
<feGaussianBlur stdDeviation="2.97089" result="effect1_foregroundBlur_2199_605"/>
</filter>
<filter id="filter1_i_2199_605" x="5.94177" y="5.94141" width="48.4824" height="34.6957" filterUnits="userSpaceOnUse" color-interpolation-filters="sRGB">
<feFlood flood-opacity="0" result="BackgroundImageFix"/>
<feBlend mode="normal" in="SourceGraphic" in2="BackgroundImageFix" result="shape"/>
<feColorMatrix in="SourceAlpha" type="matrix" values="0 0 0 0 0 0 0 0 0 0 0 0 0 0 0 0 0 0 127 0" result="hardAlpha"/>
<feOffset dy="5.94179"/>
<feGaussianBlur stdDeviation="2.97089"/>
<feComposite in2="hardAlpha" operator="arithmetic" k2="-1" k3="1"/>
<feColorMatrix type="matrix" values="0 0 0 0 1 0 0 0 0 1 0 0 0 0 1 0 0 0 0.25 0"/>
<feBlend mode="normal" in2="shape" result="effect1_innerShadow_2199_605"/>
</filter>
</defs>
</svg>
