<svg width="110" height="75" viewBox="0 0 110 75" fill="none" xmlns="http://www.w3.org/2000/svg">
<path d="M48.4473 50.5097C46.3353 59.0742 42.2125 66.1884 36.8525 70.5177C31.4924 74.847 25.2633 76.0938 19.334 74.0242C13.4047 71.9546 8.1825 66.7108 4.64728 59.2767C1.11205 51.8426 -0.493306 42.729 0.132401 33.6457C0.758107 24.5624 3.57187 16.1338 8.0458 9.94099C12.5197 3.74822 18.3464 0.216938 24.4325 0.00966181C30.5187 -0.197614 36.4462 2.93336 41.1029 8.81517C45.7596 14.697 48.8255 22.9254 49.7254 31.9567L25 37.5L48.4473 50.5097Z" fill="black"/>
<path d="M108.447 50.5097C106.335 59.0742 102.213 66.1884 96.8525 70.5177C91.4924 74.847 85.2633 76.0938 79.334 74.0242C73.4047 71.9546 68.1825 66.7108 64.6473 59.2767C61.112 51.8426 59.5067 42.729 60.1324 33.6457C60.7581 24.5624 63.5719 16.1338 68.0458 9.94099C72.5197 3.74822 78.3464 0.216938 84.4325 0.00966181C90.5187 -0.197614 96.4462 2.93336 101.103 8.81517C105.76 14.697 108.825 22.9254 109.725 31.9567L85 37.5L108.447 50.5097Z" fill="black"/>
</svg>
