<svg width="194" height="58" viewBox="0 0 194 58" fill="none" xmlns="http://www.w3.org/2000/svg">
<rect width="194" height="57.9104" rx="19.3035" fill="#1E875F"/>
<path d="M42.2748 14.4775H33.0099C32.8326 14.4775 32.6576 14.5182 32.4984 14.5965C32.3393 14.6749 32.2003 14.7887 32.0921 14.9292L22.8273 26.975L21.4288 25.5794C21.2137 25.3641 20.9583 25.1932 20.6771 25.0767C20.3959 24.9601 20.0945 24.9001 19.7901 24.9001C19.4857 24.9001 19.1843 24.9601 18.9032 25.0767C18.622 25.1932 18.3665 25.3641 18.1514 25.5794L16.3144 27.4179C16.0992 27.633 15.9286 27.8884 15.8121 28.1694C15.6957 28.4505 15.6358 28.7517 15.6358 29.0559C15.6358 29.3601 15.6957 29.6614 15.8121 29.9424C15.9286 30.2235 16.0992 30.4788 16.3144 30.6939L19.2096 33.5892L15.1563 37.6426C14.9411 37.8577 14.7705 38.113 14.654 38.3941C14.5376 38.6751 14.4777 38.9764 14.4777 39.2806C14.4777 39.5848 14.5376 39.886 14.654 40.1671C14.7705 40.4481 14.9411 40.7035 15.1563 40.9186L16.9933 42.7542C17.4276 43.1882 18.0165 43.432 18.6306 43.432C19.2446 43.432 19.8335 43.1882 20.2678 42.7542L24.3212 38.7008L27.2165 41.5961C27.4316 41.8114 27.6871 41.9823 27.9682 42.0988C28.2494 42.2154 28.5508 42.2754 28.8552 42.2754C29.1596 42.2754 29.461 42.2154 29.7422 42.0988C30.0234 41.9823 30.2788 41.8114 30.4939 41.5961L32.331 39.7576C32.5461 39.5425 32.7168 39.2871 32.8332 39.0061C32.9496 38.725 33.0096 38.4238 33.0096 38.1196C33.0096 37.8154 32.9496 37.5141 32.8332 37.2331C32.7168 36.952 32.5461 36.6967 32.331 36.4816L30.9355 35.0861L42.9812 25.8212C43.1221 25.7127 43.2362 25.5732 43.3145 25.4136C43.3928 25.2539 43.4333 25.0783 43.4329 24.9005V15.6356C43.4329 15.3285 43.3109 15.0339 43.0937 14.8167C42.8765 14.5996 42.5819 14.4775 42.2748 14.4775ZM18.6335 41.114L16.7964 39.2784L20.8498 35.225L22.6854 37.0606L18.6335 41.114ZM28.8552 39.9559L17.9545 29.0567L19.793 27.2167L30.6937 38.1188L28.8552 39.9559ZM41.1167 24.3301L29.2837 33.4329L27.7 31.8491L34.9874 24.5618C35.2045 24.3444 35.3264 24.0498 35.3263 23.7426C35.3261 23.4354 35.204 23.1409 34.9867 22.9238C34.7694 22.7066 34.4747 22.5847 34.1675 22.5849C33.8603 22.585 33.5658 22.7072 33.3487 22.9245L26.0613 30.2104L24.479 28.6267L33.5803 16.7938H41.1167V24.3301Z" fill="white"/>
<path d="M58.8374 28.8774C58.7889 28.3442 58.5732 27.9298 58.1903 27.6341C57.8122 27.3336 57.2718 27.1833 56.5689 27.1833C56.1036 27.1833 55.7159 27.2439 55.4056 27.3651C55.0954 27.4863 54.8628 27.6535 54.7077 27.8668C54.5526 28.0752 54.4726 28.3151 54.4677 28.5865C54.458 28.8095 54.5017 29.0058 54.5986 29.1755C54.7004 29.3451 54.8458 29.4954 55.0348 29.6262C55.2287 29.7523 55.4614 29.8638 55.7328 29.9607C56.0043 30.0576 56.3096 30.1425 56.6489 30.2152L57.9286 30.506C58.6653 30.6659 59.3148 30.8792 59.8771 31.1458C60.4442 31.4124 60.9192 31.7299 61.3021 32.0983C61.6899 32.4666 61.9832 32.8908 62.1819 33.3706C62.3806 33.8505 62.4824 34.3885 62.4873 34.9847C62.4824 35.925 62.2449 36.7321 61.7747 37.4058C61.3046 38.0796 60.6284 38.5958 59.7462 38.9545C58.8689 39.3132 57.8098 39.4925 56.5689 39.4925C55.3232 39.4925 54.2375 39.3059 53.3117 38.9327C52.3859 38.5594 51.6661 37.9923 51.1523 37.2313C50.6385 36.4703 50.3744 35.5082 50.3598 34.3449H53.8061C53.8352 34.8248 53.9636 35.2246 54.1915 35.5445C54.4193 35.8645 54.7319 36.1068 55.1294 36.2716C55.5317 36.4364 55.997 36.5188 56.5253 36.5188C57.01 36.5188 57.422 36.4534 57.7613 36.3225C58.1055 36.1916 58.3696 36.0099 58.5538 35.7772C58.738 35.5445 58.8325 35.278 58.8374 34.9774C58.8325 34.6963 58.7453 34.4564 58.5756 34.2576C58.406 34.0541 58.1443 33.8796 57.7904 33.7342C57.4414 33.5839 56.9955 33.4458 56.4526 33.3197L54.8967 32.9562C53.6074 32.6605 52.5919 32.1831 51.8503 31.5239C51.1087 30.8598 50.7403 29.9631 50.7452 28.8337C50.7403 27.9128 50.9875 27.1058 51.4868 26.4126C51.986 25.7195 52.6767 25.179 53.5589 24.7913C54.4411 24.4035 55.4468 24.2096 56.5762 24.2096C57.7298 24.2096 58.7308 24.4059 59.579 24.7985C60.4321 25.1863 61.0937 25.7316 61.5639 26.4344C62.034 27.1373 62.274 27.9516 62.2837 28.8774H58.8374ZM67.4531 39.4925C66.7406 39.4925 66.108 39.3737 65.5555 39.1362C65.0077 38.8939 64.5739 38.5304 64.254 38.0456C63.939 37.5561 63.7814 36.9429 63.7814 36.2062C63.7814 35.5857 63.8905 35.0623 64.1086 34.6357C64.3267 34.2092 64.6272 33.8626 65.0102 33.596C65.3931 33.3294 65.8342 33.1283 66.3334 32.9926C66.8327 32.852 67.3658 32.7575 67.933 32.709C68.5679 32.6508 69.0793 32.5902 69.4671 32.5272C69.8548 32.4594 70.136 32.3649 70.3105 32.2437C70.4898 32.1177 70.5795 31.9407 70.5795 31.7129V31.6766C70.5795 31.3033 70.451 31.0149 70.1941 30.8114C69.9372 30.6078 69.5907 30.506 69.1544 30.506C68.6843 30.506 68.3062 30.6078 68.0202 30.8114C67.7342 31.0149 67.5525 31.2961 67.4749 31.6548L64.1958 31.5384C64.2928 30.8598 64.5424 30.2539 64.9447 29.7208C65.3519 29.1827 65.9093 28.761 66.617 28.4557C67.3295 28.1455 68.185 27.9904 69.1835 27.9904C69.896 27.9904 70.5528 28.0752 71.1539 28.2448C71.7549 28.4096 72.2784 28.652 72.7243 28.9719C73.1702 29.2869 73.5144 29.6747 73.7567 30.1352C74.0039 30.5957 74.1275 31.1216 74.1275 31.7129V39.3035H70.783V37.7476H70.6958C70.4971 38.1256 70.2426 38.4455 69.9324 38.7073C69.627 38.969 69.2659 39.1653 68.8491 39.2962C68.4371 39.4271 67.9717 39.4925 67.4531 39.4925ZM68.551 37.1659C68.9339 37.1659 69.278 37.0883 69.5834 36.9332C69.8936 36.7781 70.1408 36.5649 70.325 36.2934C70.5092 36.0171 70.6013 35.6972 70.6013 35.3337V34.2722C70.4995 34.3255 70.3759 34.374 70.2305 34.4176C70.0899 34.4612 69.9348 34.5024 69.7652 34.5412C69.5955 34.58 69.421 34.6139 69.2417 34.643C69.0623 34.6721 68.8903 34.6987 68.7255 34.723C68.391 34.7763 68.105 34.8587 67.8675 34.9702C67.6349 35.0816 67.4555 35.2271 67.3295 35.4064C67.2083 35.5809 67.1477 35.7893 67.1477 36.0317C67.1477 36.4001 67.2786 36.6812 67.5403 36.8751C67.8069 37.069 68.1438 37.1659 68.551 37.1659ZM86.7348 28.1358L82.9032 39.3035H78.8316L75.0073 28.1358H78.7517L80.8093 35.8281H80.9256L82.9905 28.1358H86.7348ZM92.9585 39.5143C91.7903 39.5143 90.7822 39.2841 89.9339 38.8236C89.0905 38.3583 88.441 37.6967 87.9854 36.8387C87.5346 35.9759 87.3092 34.9508 87.3092 33.7632C87.3092 32.6096 87.537 31.6014 87.9927 30.7387C88.4483 29.871 89.0905 29.1973 89.9194 28.7174C90.7482 28.2327 91.7249 27.9904 92.8494 27.9904C93.6444 27.9904 94.3714 28.114 95.0306 28.3612C95.6898 28.6084 96.2594 28.9743 96.7392 29.459C97.2191 29.9437 97.5923 30.5423 97.8589 31.2549C98.1255 31.9625 98.2588 32.7744 98.2588 33.6905V34.5776H88.5525V32.5127H94.9507C94.9458 32.1346 94.8561 31.7977 94.6816 31.5021C94.5071 31.2064 94.2672 30.9762 93.9618 30.8114C93.6613 30.6417 93.3148 30.5569 92.9221 30.5569C92.5247 30.5569 92.1684 30.6466 91.8534 30.8259C91.5383 31.0004 91.2887 31.2403 91.1045 31.5457C90.9203 31.8462 90.8234 32.1879 90.8137 32.5709V34.6721C90.8137 35.1277 90.9033 35.5276 91.0827 35.8717C91.262 36.211 91.5165 36.4752 91.8461 36.6642C92.1757 36.8533 92.5683 36.9478 93.0239 36.9478C93.339 36.9478 93.625 36.9042 93.8819 36.8169C94.1388 36.7297 94.3593 36.6012 94.5435 36.4316C94.7277 36.2619 94.8658 36.0535 94.9579 35.8063L98.2224 35.9008C98.0867 36.6327 97.7886 37.2701 97.3282 37.813C96.8725 38.351 96.2739 38.7703 95.5323 39.0708C94.7907 39.3665 93.9328 39.5143 92.9585 39.5143ZM104.473 24.4132H108.93L112.711 33.6324H112.886L116.666 24.4132H121.123V39.3035H117.619V30.157H117.495L113.918 39.2089H111.679L108.101 30.1061H107.978V39.3035H104.473V24.4132ZM128.581 39.5143C127.408 39.5143 126.4 39.2744 125.556 38.7945C124.718 38.3098 124.071 37.6361 123.615 36.7733C123.164 35.9057 122.939 34.8999 122.939 33.756C122.939 32.6072 123.164 31.6014 123.615 30.7387C124.071 29.871 124.718 29.1973 125.556 28.7174C126.4 28.2327 127.408 27.9904 128.581 27.9904C129.754 27.9904 130.76 28.2327 131.598 28.7174C132.442 29.1973 133.089 29.871 133.54 30.7387C133.995 31.6014 134.223 32.6072 134.223 33.756C134.223 34.8999 133.995 35.9057 133.54 36.7733C133.089 37.6361 132.442 38.3098 131.598 38.7945C130.76 39.2744 129.754 39.5143 128.581 39.5143ZM128.603 36.8314C129.029 36.8314 129.39 36.7006 129.686 36.4388C129.982 36.1771 130.207 35.8136 130.362 35.3482C130.522 34.8829 130.602 34.3449 130.602 33.7342C130.602 33.1137 130.522 32.5709 130.362 32.1055C130.207 31.6402 129.982 31.2767 129.686 31.0149C129.39 30.7532 129.029 30.6223 128.603 30.6223C128.162 30.6223 127.788 30.7532 127.483 31.0149C127.183 31.2767 126.952 31.6402 126.792 32.1055C126.637 32.5709 126.56 33.1137 126.56 33.7342C126.56 34.3449 126.637 34.8829 126.792 35.3482C126.952 35.8136 127.183 36.1771 127.483 36.4388C127.788 36.7006 128.162 36.8314 128.603 36.8314ZM139.6 32.9344V39.3035H136.044V28.1358H139.425V30.1861H139.549C139.796 29.5026 140.218 28.967 140.814 28.5793C141.41 28.1867 142.12 27.9904 142.944 27.9904C143.729 27.9904 144.41 28.1673 144.987 28.5211C145.569 28.8701 146.02 29.3597 146.34 29.9898C146.664 30.6151 146.824 31.347 146.819 32.1855V39.3035H143.264V32.8835C143.269 32.2631 143.111 31.7784 142.791 31.4294C142.476 31.0804 142.038 30.9059 141.475 30.9059C141.102 30.9059 140.773 30.9883 140.487 31.1531C140.206 31.313 139.987 31.5433 139.832 31.8438C139.682 32.1443 139.604 32.5078 139.6 32.9344ZM154.241 39.5143C153.073 39.5143 152.065 39.2841 151.216 38.8236C150.373 38.3583 149.723 37.6967 149.268 36.8387C148.817 35.9759 148.592 34.9508 148.592 33.7632C148.592 32.6096 148.819 31.6014 149.275 30.7387C149.731 29.871 150.373 29.1973 151.202 28.7174C152.031 28.2327 153.007 27.9904 154.132 27.9904C154.927 27.9904 155.654 28.114 156.313 28.3612C156.972 28.6084 157.542 28.9743 158.022 29.459C158.501 29.9437 158.875 30.5423 159.141 31.2549C159.408 31.9625 159.541 32.7744 159.541 33.6905V34.5776H149.835V32.5127H156.233C156.228 32.1346 156.139 31.7977 155.964 31.5021C155.79 31.2064 155.55 30.9762 155.244 30.8114C154.944 30.6417 154.597 30.5569 154.205 30.5569C153.807 30.5569 153.451 30.6466 153.136 30.8259C152.821 31.0004 152.571 31.2403 152.387 31.5457C152.203 31.8462 152.106 32.1879 152.096 32.5709V34.6721C152.096 35.1277 152.186 35.5276 152.365 35.8717C152.544 36.211 152.799 36.4752 153.128 36.6642C153.458 36.8533 153.851 36.9478 154.306 36.9478C154.621 36.9478 154.907 36.9042 155.164 36.8169C155.421 36.7297 155.642 36.6012 155.826 36.4316C156.01 36.2619 156.148 36.0535 156.24 35.8063L159.505 35.9008C159.369 36.6327 159.071 37.2701 158.611 37.813C158.155 38.351 157.556 38.7703 156.815 39.0708C156.073 39.3665 155.215 39.5143 154.241 39.5143ZM163.231 43.4914C162.804 43.4914 162.402 43.4574 162.024 43.3896C161.646 43.3266 161.321 43.2417 161.05 43.1351L161.835 40.554C162.184 40.6703 162.499 40.7382 162.78 40.7576C163.066 40.777 163.311 40.7309 163.515 40.6195C163.723 40.5128 163.883 40.3214 163.994 40.0451L164.133 39.7106L160.163 28.1358H163.885L165.943 36.1044H166.059L168.146 28.1358H171.89L167.681 40.3723C167.477 40.983 167.189 41.521 166.815 41.9863C166.447 42.4565 165.97 42.8249 165.383 43.0915C164.801 43.3581 164.084 43.4914 163.231 43.4914ZM177.434 24.4132L177.1 34.7448H174.112L173.777 24.4132H177.434ZM175.602 39.5143C175.083 39.5143 174.637 39.3301 174.264 38.9617C173.896 38.5934 173.712 38.1474 173.712 37.6239C173.712 37.1102 173.896 36.6715 174.264 36.308C174.637 35.9396 175.083 35.7554 175.602 35.7554C176.101 35.7554 176.54 35.9396 176.918 36.308C177.301 36.6715 177.492 37.1102 177.492 37.6239C177.492 37.9729 177.403 38.2904 177.223 38.5764C177.049 38.8624 176.819 39.0902 176.533 39.2598C176.252 39.4295 175.941 39.5143 175.602 39.5143Z" fill="white"/>
</svg>
