<svg width="116" height="116" viewBox="0 0 116 116" fill="none" xmlns="http://www.w3.org/2000/svg">
<path d="M0.735737 107.386C0.735733 111.946 4.43675 115.642 9.00219 115.642L83.4002 115.642C87.9657 115.642 91.6667 111.946 91.6667 107.386C91.6667 102.827 87.9657 99.1309 83.4002 99.1309L17.2686 99.1309L17.2686 33.088C17.2686 28.5287 13.5676 24.8327 9.00219 24.8327C4.43675 24.8327 0.735736 28.5287 0.735733 33.088L0.735737 107.386ZM108.266 8.25537L102.421 2.41795L3.15692 101.549L9.00219 107.386L14.8474 113.224L114.112 14.0928L108.266 8.25537Z" fill="white"/>
<path d="M107.531 8.25537L8.26641 107.386" stroke="white" stroke-width="16.5218" stroke-linecap="round" stroke-linejoin="round"/>
</svg>
