<svg width="70" height="70" viewBox="0 0 70 70" fill="none" xmlns="http://www.w3.org/2000/svg">
<g filter="url(#filter0_i_2289_729)">
<path d="M34.9418 5.94177C50.9579 5.94182 63.9418 18.9255 63.9418 34.9418C63.9418 50.958 50.9579 63.9417 34.9418 63.9418C18.9256 63.9418 5.94178 50.958 5.94177 34.9418C5.94177 18.9255 18.9256 5.94177 34.9418 5.94177ZM34.2963 13.6244C32.2722 13.6245 31.2158 15.4011 31.2152 16.8138V16.8148C31.2154 17.3164 31.3318 17.8146 31.5531 18.264L31.5336 20.7455L30.9613 20.847L30.9535 20.848C29.5068 21.1085 28.8911 22.385 28.8881 23.3246V24.2621C28.8895 24.6336 29.0062 25.0735 29.2299 25.4818C28.3686 25.7904 27.5661 26.2015 26.8373 26.7279C24.8114 28.1913 23.6949 30.2654 23.6947 32.7689L23.6996 33.0599C23.74 34.5104 24.0888 35.9192 24.9369 37.1068C25.3175 37.6396 25.7706 38.1045 26.2777 38.5092C25.9195 38.6752 25.5772 38.8813 25.2611 39.1371L25.2386 39.1547L25.2162 39.1732C24.1807 40.0535 23.5746 41.2666 23.5746 42.6732V42.6937L23.5756 42.7152C23.6194 45.2291 24.9765 47.1557 27.0814 48.4261L27.1019 48.4388L27.1234 48.4506C28.3433 49.1536 29.7264 49.6093 31.2308 49.8646L31.9301 54.3373L36.6713 54.3422L37.3724 49.9183C39.2034 49.6434 40.859 49.075 42.2601 48.1293L42.2611 48.1302C44.4589 46.665 45.7171 44.5264 45.7172 41.8773L45.7054 41.4105C45.5913 39.0976 44.6193 37.1052 42.7689 35.6537C42.7591 35.6459 42.7485 35.639 42.7386 35.6312C42.8387 35.5768 42.9381 35.5204 43.0336 35.4584L43.0345 35.4574C44.3453 34.6049 44.921 33.2551 44.9213 31.8549C44.9213 29.2952 43.3975 27.4548 41.264 26.3168H41.2631C40.6623 25.9886 40.0285 25.7147 39.3646 25.4926C39.5925 25.0809 39.7127 24.6356 39.7133 24.2562V23.3334C39.7133 22.373 39.0819 21.1052 37.6449 20.848L37.6322 20.8451L37.0863 20.7504L37.0668 18.2064C37.2699 17.7724 37.3772 17.2956 37.3773 16.8148V16.8138C37.3767 15.3989 36.3185 13.6263 34.2982 13.6244H34.2963ZM34.2963 16.0248C34.6716 16.0251 34.9767 16.3787 34.9769 16.8148C34.9768 17.0946 34.8494 17.3395 34.6605 17.4799L34.7025 22.7738L37.222 23.2103C37.274 23.2196 37.3129 23.2722 37.3129 23.3334V24.2533C37.3126 24.3307 37.2514 24.3897 37.1859 24.3754L35.6117 24.0219V27.181C37.374 27.3275 38.8815 27.7451 40.1342 28.434C41.7251 29.2825 42.5209 30.423 42.5209 31.8549C42.5207 32.5703 42.2559 33.1011 41.726 33.4457C41.1956 33.7902 40.3194 33.9758 39.1 34.0023C38.8348 32.9418 38.3316 32.1459 37.5892 31.6156C37.076 31.249 36.4163 31.0129 35.6117 30.8998V35.1713C38.187 35.7856 40.0797 36.5754 41.2885 37.5424C42.6404 38.6029 43.3168 40.048 43.3168 41.8773C43.3167 43.6537 42.5209 45.0726 40.9301 46.1332C39.5233 47.0868 37.6444 47.6104 35.2943 47.7064L34.3011 53.9662L33.3197 47.6879C31.3059 47.5681 29.6394 47.1308 28.3217 46.3715C26.7843 45.4436 26.0017 44.2107 25.975 42.6732C25.975 42.0105 26.2408 41.453 26.7709 41.0023C27.3277 40.5516 28.2028 40.313 29.3959 40.2865C29.6345 41.453 30.1918 42.3543 31.0668 42.9906C31.6362 43.3875 32.2845 43.6538 33.0111 43.7924V38.7338C31.4763 38.3362 30.2445 37.9399 29.3168 37.5424C28.2297 37.0651 27.4203 36.4546 26.89 35.7123C26.3599 34.9699 26.0951 33.9883 26.0951 32.7689C26.0952 31.0723 26.8112 29.7072 28.2426 28.6732C29.453 27.799 31.0427 27.2947 33.0111 27.1595V24.0101L31.4154 24.3744C31.3499 24.3891 31.2889 24.3308 31.2885 24.2533V23.3324C31.2887 23.2716 31.3266 23.2198 31.3783 23.2103L33.9193 22.7621L33.9603 17.4984C33.7559 17.3622 33.6158 17.1082 33.6156 16.8148C33.6158 16.3786 33.9208 16.0249 34.2963 16.0248ZM35.6117 43.8363C36.3352 43.7564 36.9417 43.6079 37.4301 43.389C38.1989 43.0444 38.5833 42.5265 38.5834 41.8373C38.5833 41.2011 38.2654 40.6706 37.6293 40.2465C37.225 39.9652 36.5519 39.6859 35.6117 39.4047V43.8363ZM33.0111 30.9545C32.5829 31.0406 32.186 31.1681 31.8217 31.3373C31.1061 31.6819 30.7484 32.1331 30.7484 32.6898C30.7485 33.2729 31.0529 33.7242 31.6625 34.0424C31.9854 34.2108 32.4355 34.3778 33.0111 34.5463V30.9545Z" fill="#A7A7A7"/>
</g>
<g opacity="0.75" filter="url(#filter1_f_2289_729)">
<path d="M34.9418 5.94177C50.9579 5.94182 63.9418 18.9255 63.9418 34.9418C63.9418 50.958 50.9579 63.9417 34.9418 63.9418C18.9256 63.9418 5.94178 50.958 5.94177 34.9418C5.94177 18.9255 18.9256 5.94177 34.9418 5.94177ZM34.2963 13.6244C32.2722 13.6245 31.2158 15.4011 31.2152 16.8138V16.8148C31.2154 17.3164 31.3318 17.8146 31.5531 18.264L31.5336 20.7455L30.9613 20.847L30.9535 20.848C29.5068 21.1085 28.8911 22.385 28.8881 23.3246V24.2621C28.8895 24.6336 29.0062 25.0735 29.2299 25.4818C28.3686 25.7904 27.5661 26.2015 26.8373 26.7279C24.8114 28.1913 23.6949 30.2654 23.6947 32.7689L23.6996 33.0599C23.74 34.5104 24.0888 35.9192 24.9369 37.1068C25.3175 37.6396 25.7706 38.1045 26.2777 38.5092C25.9195 38.6752 25.5772 38.8813 25.2611 39.1371L25.2386 39.1547L25.2162 39.1732C24.1807 40.0535 23.5746 41.2666 23.5746 42.6732V42.6937L23.5756 42.7152C23.6194 45.2291 24.9765 47.1557 27.0814 48.4261L27.1019 48.4388L27.1234 48.4506C28.3433 49.1536 29.7264 49.6093 31.2308 49.8646L31.9301 54.3373L36.6713 54.3422L37.3724 49.9183C39.2034 49.6434 40.859 49.075 42.2601 48.1293L42.2611 48.1302C44.4589 46.665 45.7171 44.5264 45.7172 41.8773L45.7054 41.4105C45.5913 39.0976 44.6193 37.1052 42.7689 35.6537C42.7591 35.6459 42.7485 35.639 42.7386 35.6312C42.8387 35.5768 42.9381 35.5204 43.0336 35.4584L43.0345 35.4574C44.3453 34.6049 44.921 33.2551 44.9213 31.8549C44.9213 29.2952 43.3975 27.4548 41.264 26.3168H41.2631C40.6623 25.9886 40.0285 25.7147 39.3646 25.4926C39.5925 25.0809 39.7127 24.6356 39.7133 24.2562V23.3334C39.7133 22.373 39.0819 21.1052 37.6449 20.848L37.6322 20.8451L37.0863 20.7504L37.0668 18.2064C37.2699 17.7724 37.3772 17.2956 37.3773 16.8148V16.8138C37.3767 15.3989 36.3185 13.6263 34.2982 13.6244H34.2963ZM34.2963 16.0248C34.6716 16.0251 34.9767 16.3787 34.9769 16.8148C34.9768 17.0946 34.8494 17.3395 34.6605 17.4799L34.7025 22.7738L37.222 23.2103C37.274 23.2196 37.3129 23.2722 37.3129 23.3334V24.2533C37.3126 24.3307 37.2514 24.3897 37.1859 24.3754L35.6117 24.0219V27.181C37.374 27.3275 38.8815 27.7451 40.1342 28.434C41.7251 29.2825 42.5209 30.423 42.5209 31.8549C42.5207 32.5703 42.2559 33.1011 41.726 33.4457C41.1956 33.7902 40.3194 33.9758 39.1 34.0023C38.8348 32.9418 38.3316 32.1459 37.5892 31.6156C37.076 31.249 36.4163 31.0129 35.6117 30.8998V35.1713C38.187 35.7856 40.0797 36.5754 41.2885 37.5424C42.6404 38.6029 43.3168 40.048 43.3168 41.8773C43.3167 43.6537 42.5209 45.0726 40.9301 46.1332C39.5233 47.0868 37.6444 47.6104 35.2943 47.7064L34.3011 53.9662L33.3197 47.6879C31.3059 47.5681 29.6394 47.1308 28.3217 46.3715C26.7843 45.4436 26.0017 44.2107 25.975 42.6732C25.975 42.0105 26.2408 41.453 26.7709 41.0023C27.3277 40.5516 28.2028 40.313 29.3959 40.2865C29.6345 41.453 30.1918 42.3543 31.0668 42.9906C31.6362 43.3875 32.2845 43.6538 33.0111 43.7924V38.7338C31.4763 38.3362 30.2445 37.9399 29.3168 37.5424C28.2297 37.0651 27.4203 36.4546 26.89 35.7123C26.3599 34.9699 26.0951 33.9883 26.0951 32.7689C26.0952 31.0723 26.8112 29.7072 28.2426 28.6732C29.453 27.799 31.0427 27.2947 33.0111 27.1595V24.0101L31.4154 24.3744C31.3499 24.3891 31.2889 24.3308 31.2885 24.2533V23.3324C31.2887 23.2716 31.3266 23.2198 31.3783 23.2103L33.9193 22.7621L33.9603 17.4984C33.7559 17.3622 33.6158 17.1082 33.6156 16.8148C33.6158 16.3786 33.9208 16.0249 34.2963 16.0248ZM35.6117 43.8363C36.3352 43.7564 36.9417 43.6079 37.4301 43.389C38.1989 43.0444 38.5833 42.5265 38.5834 41.8373C38.5833 41.2011 38.2654 40.6706 37.6293 40.2465C37.225 39.9652 36.5519 39.6859 35.6117 39.4047V43.8363ZM33.0111 30.9545C32.5829 31.0406 32.186 31.1681 31.8217 31.3373C31.1061 31.6819 30.7484 32.1331 30.7484 32.6898C30.7485 33.2729 31.0529 33.7242 31.6625 34.0424C31.9854 34.2108 32.4355 34.3778 33.0111 34.5463V30.9545Z" fill="#A7A7A7"/>
</g>
<defs>
<filter id="filter0_i_2289_729" x="5.94177" y="5.94177" width="58" height="60.8902" filterUnits="userSpaceOnUse" color-interpolation-filters="sRGB">
<feFlood flood-opacity="0" result="BackgroundImageFix"/>
<feBlend mode="normal" in="SourceGraphic" in2="BackgroundImageFix" result="shape"/>
<feColorMatrix in="SourceAlpha" type="matrix" values="0 0 0 0 0 0 0 0 0 0 0 0 0 0 0 0 0 0 127 0" result="hardAlpha"/>
<feOffset dy="2.8902"/>
<feGaussianBlur stdDeviation="1.4451"/>
<feComposite in2="hardAlpha" operator="arithmetic" k2="-1" k3="1"/>
<feColorMatrix type="matrix" values="0 0 0 0 1 0 0 0 0 1 0 0 0 0 1 0 0 0 0.25 0"/>
<feBlend mode="normal" in2="shape" result="effect1_innerShadow_2289_729"/>
</filter>
<filter id="filter1_f_2289_729" x="-1.57356e-05" y="-1.57356e-05" width="69.8836" height="69.8836" filterUnits="userSpaceOnUse" color-interpolation-filters="sRGB">
<feFlood flood-opacity="0" result="BackgroundImageFix"/>
<feBlend mode="normal" in="SourceGraphic" in2="BackgroundImageFix" result="shape"/>
<feGaussianBlur stdDeviation="2.97089" result="effect1_foregroundBlur_2289_729"/>
</filter>
</defs>
</svg>
