<svg width="216" height="57" viewBox="0 0 216 57" fill="none" xmlns="http://www.w3.org/2000/svg">
<rect x="0.850806" y="0.850806" width="213.552" height="54.4516" rx="17.8669" fill="white" stroke="#1E875F" stroke-width="1.70161"/>
<path d="M49.2157 26.1133V23.2792H61.4193V26.1133H57.0412V37.7177H53.6008V26.1133H49.2157ZM61.9991 37.7177V26.8888H65.3479V28.8628H65.4607C65.6581 28.1484 65.98 27.6173 66.4265 27.2695C66.873 26.917 67.3924 26.7408 67.9846 26.7408C68.1444 26.7408 68.3089 26.7525 68.4781 26.776C68.6473 26.7948 68.8047 26.8254 68.9504 26.8677V29.8639C68.7859 29.8075 68.5697 29.7629 68.3018 29.73C68.0386 29.6971 67.8036 29.6806 67.5968 29.6806C67.1879 29.6806 66.819 29.7723 66.49 29.9556C66.1657 30.1342 65.9095 30.3856 65.7215 30.7099C65.5382 31.0295 65.4466 31.4055 65.4466 31.8379V37.7177H61.9991ZM73.0007 37.901C72.3098 37.901 71.6964 37.7858 71.1606 37.5555C70.6295 37.3205 70.2089 36.968 69.8987 36.498C69.5932 36.0233 69.4404 35.4287 69.4404 34.7143C69.4404 34.1127 69.5462 33.6051 69.7577 33.1915C69.9692 32.7779 70.2606 32.4419 70.6319 32.1834C71.0032 31.9249 71.4309 31.7298 71.915 31.5982C72.3991 31.4619 72.9161 31.3703 73.466 31.3233C74.0817 31.2669 74.5775 31.2081 74.9535 31.147C75.3295 31.0812 75.6021 30.9896 75.7713 30.8721C75.9452 30.7499 76.0322 30.5783 76.0322 30.3574V30.3222C76.0322 29.9603 75.9076 29.6806 75.6585 29.4832C75.4094 29.2858 75.0734 29.1871 74.6504 29.1871C74.1945 29.1871 73.8279 29.2858 73.5506 29.4832C73.2733 29.6806 73.097 29.9532 73.0218 30.301L69.8423 30.1882C69.9363 29.5302 70.1783 28.9427 70.5684 28.4257C70.9632 27.904 71.5037 27.4951 72.1899 27.199C72.8808 26.8982 73.7104 26.7478 74.6786 26.7478C75.3695 26.7478 76.0063 26.8301 76.5891 26.9946C77.1719 27.1544 77.6795 27.3894 78.1119 27.6996C78.5443 28.0051 78.878 28.3811 79.113 28.8276C79.3527 29.2741 79.4726 29.784 79.4726 30.3574V37.7177H76.2296V36.2089H76.145C75.9523 36.5755 75.7055 36.8857 75.4047 37.1396C75.1086 37.3934 74.7585 37.5837 74.3543 37.7106C73.9548 37.8375 73.5036 37.901 73.0007 37.901ZM74.0652 35.6449C74.4365 35.6449 74.7702 35.5697 75.0663 35.4193C75.3671 35.2689 75.6068 35.0621 75.7854 34.7989C75.964 34.531 76.0533 34.2208 76.0533 33.8683V32.839C75.9546 32.8907 75.8348 32.9377 75.6938 32.98C75.5575 33.0223 75.4071 33.0623 75.2426 33.0999C75.0781 33.1375 74.9089 33.1704 74.735 33.1986C74.5611 33.2268 74.3942 33.2526 74.2344 33.2761C73.9101 33.3278 73.6328 33.4077 73.4025 33.5158C73.1769 33.6239 73.003 33.7649 72.8808 33.9388C72.7633 34.108 72.7046 34.3101 72.7046 34.5451C72.7046 34.9023 72.8315 35.1749 73.0853 35.3629C73.3438 35.5509 73.6704 35.6449 74.0652 35.6449ZM86.6354 37.9221C85.4933 37.9221 84.5134 37.6871 83.6956 37.2171C82.8824 36.7471 82.2573 36.0938 81.8202 35.2572C81.3831 34.4159 81.1646 33.443 81.1646 32.3385C81.1646 31.2293 81.3831 30.2564 81.8202 29.4198C82.262 28.5785 82.8895 27.9228 83.7026 27.4528C84.5204 26.9828 85.4957 26.7478 86.6284 26.7478C87.6295 26.7478 88.5013 26.9288 89.2439 27.2907C89.9912 27.6526 90.574 28.1649 90.9923 28.8276C91.4153 29.4856 91.6386 30.2587 91.6621 31.147H88.4402C88.3744 30.5924 88.1864 30.1577 87.8762 29.8428C87.5707 29.5279 87.1712 29.3704 86.6777 29.3704C86.2782 29.3704 85.9281 29.4832 85.6273 29.7088C85.3265 29.9297 85.0915 30.2587 84.9223 30.6958C84.7578 31.1282 84.6755 31.664 84.6755 32.3032C84.6755 32.9424 84.7578 33.4829 84.9223 33.9247C85.0915 34.3618 85.3265 34.6932 85.6273 34.9188C85.9281 35.1397 86.2782 35.2501 86.6777 35.2501C86.9973 35.2501 87.2793 35.182 87.5237 35.0457C87.7728 34.9094 87.9773 34.7096 88.1371 34.4464C88.2969 34.1785 88.3979 33.8542 88.4402 33.4735H91.6621C91.6292 34.3665 91.4059 35.1467 90.9923 35.8141C90.5834 36.4815 90.0077 37.0009 89.2651 37.3722C88.5272 37.7388 87.6506 37.9221 86.6354 37.9221ZM96.5354 34.8765L96.5495 30.7663H97.0289L100.074 26.8888H103.98L99.4541 32.4442H98.5446L96.5354 34.8765ZM93.4263 37.7177V23.2792H96.8738V37.7177H93.4263ZM100.152 37.7177L97.3179 33.2197L99.588 30.7734L104.135 37.7177H100.152ZM117.284 27.6079C117.237 27.0909 117.027 26.6891 116.656 26.4024C116.29 26.111 115.765 25.9653 115.084 25.9653C114.633 25.9653 114.257 26.024 113.956 26.1415C113.655 26.259 113.43 26.4212 113.279 26.628C113.129 26.8301 113.051 27.0627 113.047 27.3259C113.037 27.5421 113.079 27.7325 113.173 27.897C113.272 28.0615 113.413 28.2072 113.596 28.3341C113.784 28.4563 114.01 28.5644 114.273 28.6584C114.536 28.7524 114.833 28.8346 115.162 28.9051L116.402 29.1871C117.117 29.3422 117.747 29.549 118.292 29.8075C118.842 30.066 119.302 30.3739 119.674 30.7311C120.05 31.0883 120.334 31.4995 120.527 31.9648C120.719 32.4301 120.818 32.9518 120.823 33.5299C120.818 34.4417 120.588 35.2243 120.132 35.8776C119.676 36.5309 119.02 37.0314 118.165 37.3793C117.314 37.7271 116.287 37.901 115.084 37.901C113.876 37.901 112.823 37.72 111.926 37.3581C111.028 36.9962 110.33 36.4463 109.832 35.7084C109.334 34.9705 109.077 34.0375 109.063 32.9095H112.405C112.433 33.3748 112.558 33.7626 112.779 34.0728C113 34.383 113.303 34.618 113.688 34.7778C114.078 34.9376 114.529 35.0175 115.042 35.0175C115.512 35.0175 115.911 34.954 116.24 34.8271C116.574 34.7002 116.83 34.524 117.009 34.2984C117.187 34.0728 117.279 33.8143 117.284 33.5229C117.279 33.2503 117.194 33.0176 117.03 32.8249C116.865 32.6275 116.611 32.4583 116.268 32.3173C115.93 32.1716 115.498 32.0377 114.971 31.9155L113.462 31.563C112.212 31.2763 111.228 30.8133 110.509 30.1741C109.789 29.5302 109.432 28.6607 109.437 27.5656C109.432 26.6726 109.672 25.8901 110.156 25.218C110.64 24.5459 111.31 24.0218 112.165 23.6458C113.021 23.2698 113.996 23.0818 115.091 23.0818C116.21 23.0818 117.18 23.2722 118.003 23.6529C118.83 24.0289 119.471 24.5576 119.927 25.2391C120.383 25.9206 120.616 26.7102 120.625 27.6079H117.284ZM122.585 41.7785V26.8888H125.997V28.743H126.103C126.244 28.414 126.444 28.0967 126.702 27.7912C126.966 27.4857 127.299 27.2366 127.704 27.0439C128.112 26.8465 128.601 26.7478 129.17 26.7478C129.922 26.7478 130.625 26.9452 131.278 27.34C131.936 27.7348 132.467 28.3435 132.871 29.166C133.275 29.9885 133.477 31.0366 133.477 32.3103C133.477 33.537 133.282 34.5639 132.892 35.3911C132.507 36.2183 131.985 36.8387 131.327 37.2524C130.674 37.666 129.948 37.8728 129.149 37.8728C128.604 37.8728 128.131 37.7835 127.732 37.6049C127.332 37.4263 126.996 37.1913 126.724 36.8998C126.456 36.6084 126.249 36.2959 126.103 35.9622H126.033V41.7785H122.585ZM125.962 32.3032C125.962 32.886 126.04 33.3936 126.195 33.826C126.355 34.2584 126.583 34.5945 126.879 34.8342C127.179 35.0692 127.539 35.1867 127.957 35.1867C128.38 35.1867 128.74 35.0692 129.036 34.8342C129.332 34.5945 129.555 34.2584 129.706 33.826C129.861 33.3936 129.938 32.886 129.938 32.3032C129.938 31.7204 129.861 31.2152 129.706 30.7875C129.555 30.3598 129.332 30.0284 129.036 29.7934C128.745 29.5584 128.385 29.4409 127.957 29.4409C127.534 29.4409 127.175 29.5561 126.879 29.7864C126.583 30.0167 126.355 30.3457 126.195 30.7734C126.04 31.2011 125.962 31.711 125.962 32.3032ZM140.346 37.9221C139.213 37.9221 138.236 37.6989 137.413 37.2524C136.595 36.8011 135.966 36.1596 135.524 35.3277C135.087 34.4911 134.868 33.497 134.868 32.3455C134.868 31.2269 135.089 30.2493 135.531 29.4127C135.973 28.5714 136.595 27.9181 137.399 27.4528C138.203 26.9828 139.15 26.7478 140.24 26.7478C141.011 26.7478 141.716 26.8677 142.355 27.1074C142.994 27.3471 143.547 27.7019 144.012 28.1719C144.477 28.6419 144.839 29.2224 145.098 29.9133C145.356 30.5995 145.485 31.3867 145.485 32.275V33.1351H136.074V31.1329H142.278C142.273 30.7663 142.186 30.4397 142.017 30.153C141.848 29.8663 141.615 29.643 141.319 29.4832C141.027 29.3187 140.691 29.2365 140.311 29.2365C139.925 29.2365 139.58 29.3234 139.274 29.4973C138.969 29.6665 138.727 29.8992 138.548 30.1953C138.37 30.4867 138.276 30.818 138.266 31.1893V33.2268C138.266 33.6686 138.353 34.0563 138.527 34.39C138.701 34.719 138.948 34.9752 139.267 35.1585C139.587 35.3418 139.968 35.4334 140.409 35.4334C140.715 35.4334 140.992 35.3911 141.241 35.3065C141.49 35.2219 141.704 35.0974 141.883 34.9329C142.061 34.7684 142.195 34.5663 142.285 34.3266L145.45 34.4182C145.319 35.1279 145.03 35.746 144.583 36.2724C144.141 36.7941 143.561 37.2007 142.842 37.4921C142.123 37.7788 141.291 37.9221 140.346 37.9221ZM150.694 31.5418V37.7177H147.246V26.8888H150.524V28.8769H150.644C150.884 28.2142 151.293 27.6949 151.871 27.3189C152.449 26.9382 153.138 26.7478 153.937 26.7478C154.698 26.7478 155.358 26.9194 155.918 27.2625C156.482 27.6009 156.919 28.0756 157.229 28.6866C157.544 29.2929 157.699 30.0026 157.694 30.8157V37.7177H154.247V31.4925C154.252 30.8909 154.099 30.4209 153.789 30.0825C153.483 29.7441 153.058 29.5749 152.513 29.5749C152.151 29.5749 151.831 29.6548 151.554 29.8146C151.281 29.9697 151.07 30.1929 150.919 30.4843C150.774 30.7757 150.698 31.1282 150.694 31.5418ZM163.784 37.8728C162.985 37.8728 162.259 37.666 161.605 37.2524C160.952 36.8387 160.43 36.2183 160.04 35.3911C159.65 34.5639 159.455 33.537 159.455 32.3103C159.455 31.0366 159.657 29.9885 160.061 29.166C160.466 28.3435 160.994 27.7348 161.648 27.34C162.306 26.9452 163.013 26.7478 163.77 26.7478C164.338 26.7478 164.825 26.8465 165.229 27.0439C165.633 27.2366 165.967 27.4857 166.23 27.7912C166.493 28.0967 166.693 28.414 166.829 28.743H166.9V23.2792H170.347V37.7177H166.935V35.9622H166.829C166.684 36.2959 166.477 36.6084 166.209 36.8998C165.941 37.1913 165.605 37.4263 165.201 37.6049C164.801 37.7835 164.329 37.8728 163.784 37.8728ZM164.982 35.1867C165.401 35.1867 165.758 35.0692 166.054 34.8342C166.35 34.5945 166.578 34.2584 166.738 33.826C166.897 33.3936 166.977 32.886 166.977 32.3032C166.977 31.711 166.897 31.2011 166.738 30.7734C166.583 30.3457 166.355 30.0167 166.054 29.7864C165.758 29.5561 165.401 29.4409 164.982 29.4409C164.555 29.4409 164.193 29.5584 163.897 29.7934C163.6 30.0284 163.375 30.3598 163.22 30.7875C163.069 31.2152 162.994 31.7204 162.994 32.3032C162.994 32.886 163.072 33.3936 163.227 33.826C163.382 34.2584 163.605 34.5945 163.897 34.8342C164.193 35.0692 164.555 35.1867 164.982 35.1867ZM172.528 37.7177V26.8888H175.975V37.7177H172.528ZM174.255 25.6269C173.771 25.6269 173.355 25.4671 173.007 25.1475C172.659 24.8232 172.485 24.4331 172.485 23.9772C172.485 23.526 172.659 23.1406 173.007 22.821C173.355 22.4967 173.771 22.3345 174.255 22.3345C174.744 22.3345 175.16 22.4967 175.503 22.821C175.85 23.1406 176.024 23.526 176.024 23.9772C176.024 24.4331 175.85 24.8232 175.503 25.1475C175.16 25.4671 174.744 25.6269 174.255 25.6269ZM181.617 31.5418V37.7177H178.169V26.8888H181.448V28.8769H181.567C181.807 28.2142 182.216 27.6949 182.794 27.3189C183.372 26.9382 184.061 26.7478 184.86 26.7478C185.621 26.7478 186.282 26.9194 186.841 27.2625C187.405 27.6009 187.842 28.0756 188.152 28.6866C188.467 29.2929 188.622 30.0026 188.617 30.8157V37.7177H185.17V31.4925C185.175 30.8909 185.022 30.4209 184.712 30.0825C184.406 29.7441 183.981 29.5749 183.436 29.5749C183.074 29.5749 182.754 29.6548 182.477 29.8146C182.204 29.9697 181.993 30.1929 181.842 30.4843C181.697 30.7757 181.621 31.1282 181.617 31.5418ZM195.8 42.0041C194.77 42.0041 193.889 41.8607 193.156 41.574C192.423 41.2873 191.847 40.8949 191.429 40.3967C191.01 39.8985 190.759 39.3345 190.674 38.7047L193.938 38.5214C194 38.7423 194.112 38.935 194.277 39.0995C194.446 39.264 194.665 39.3909 194.932 39.4802C195.205 39.5695 195.525 39.6141 195.891 39.6141C196.469 39.6141 196.946 39.4731 197.322 39.1911C197.703 38.9138 197.893 38.4274 197.893 37.7318V35.8282H197.774C197.637 36.1619 197.431 36.4604 197.153 36.7236C196.876 36.9868 196.53 37.1936 196.117 37.344C195.708 37.4944 195.238 37.5696 194.707 37.5696C193.917 37.5696 193.193 37.3863 192.535 37.0197C191.882 36.6484 191.358 36.075 190.963 35.2995C190.573 34.5193 190.378 33.5158 190.378 32.2891C190.378 31.0248 190.58 29.9838 190.984 29.166C191.389 28.3435 191.917 27.7348 192.571 27.34C193.229 26.9452 193.936 26.7478 194.693 26.7478C195.261 26.7478 195.748 26.8465 196.152 27.0439C196.561 27.2366 196.897 27.4857 197.16 27.7912C197.423 28.0967 197.623 28.414 197.76 28.743H197.858V26.8888H201.292V37.76C201.292 38.6765 201.061 39.4496 200.601 40.0794C200.14 40.7092 199.496 41.1863 198.669 41.5106C197.842 41.8396 196.885 42.0041 195.8 42.0041ZM195.905 35.0598C196.324 35.0598 196.681 34.9493 196.977 34.7284C197.273 34.5075 197.501 34.1903 197.661 33.7767C197.821 33.3631 197.901 32.8672 197.901 32.2891C197.901 31.7016 197.821 31.1964 197.661 30.7734C197.506 30.3457 197.278 30.0167 196.977 29.7864C196.681 29.5561 196.324 29.4409 195.905 29.4409C195.478 29.4409 195.116 29.5584 194.82 29.7934C194.524 30.0284 194.298 30.3598 194.143 30.7875C193.992 31.2105 193.917 31.711 193.917 32.2891C193.917 32.8672 193.995 33.3631 194.15 33.7767C194.305 34.1903 194.528 34.5075 194.82 34.7284C195.116 34.9493 195.478 35.0598 195.905 35.0598Z" fill="#1E875F"/>
<path d="M22.6327 38.6502C18.0935 35.1519 12.7621 31.0443 12.7621 23.9234C12.7621 16.4872 20.7204 11.096 27.7378 16.935L25.3873 22.4151C25.2782 22.6693 25.2593 22.9531 25.3337 23.2195C25.4081 23.4859 25.5713 23.7189 25.7963 23.8797L30.376 27.1516L26.3896 31.8041C26.191 32.0359 26.0872 32.3342 26.0988 32.6392C26.1105 32.9443 26.2369 33.2337 26.4527 33.4497L29.2008 36.1978L27.7297 42.0821C26.5076 41.6731 25.279 40.7193 24.0149 39.7219C23.5655 39.3706 23.1042 39.0133 22.6311 38.6502" fill="#1E875F"/>
<path d="M30.2398 42.0418C31.4231 41.6135 32.6145 40.6888 33.8382 39.7237C34.2876 39.3702 34.7489 39.0124 35.222 38.6503C39.7613 35.1521 45.0926 31.0445 45.0926 23.9235C45.0926 16.6248 37.4286 11.2983 30.5114 16.62L28.0009 22.4751L32.8651 25.9491C33.0018 26.0469 33.1167 26.1722 33.2024 26.3168C33.2882 26.4614 33.3429 26.6223 33.3631 26.7893C33.3833 26.9562 33.3686 27.1255 33.3199 27.2864C33.2712 27.4474 33.1895 27.5964 33.0801 27.7241L28.9611 32.5301L31.4021 34.9694C31.55 35.1175 31.657 35.3013 31.7128 35.503C31.7687 35.7047 31.7713 35.9174 31.7205 36.1204L30.2398 42.0418Z" fill="#1E875F"/>
</svg>
