<svg width="45" height="57" viewBox="0 0 45 57" fill="none" xmlns="http://www.w3.org/2000/svg">
<path d="M22.3584 4C22.9321 4 23.3965 4.45705 23.3957 5.02083C23.3952 5.38266 23.2031 5.70025 22.914 5.88155L22.968 12.7164L26.8139 13.2802C26.8936 13.2919 26.9525 13.3592 26.9524 13.4385L26.9508 14.627C26.9507 14.7275 26.8574 14.8032 26.757 14.7841L24.3527 14.3279L24.315 42.3379L22.2998 53L20.3449 42.3379L20.3826 14.3128L17.9449 14.7833C17.8442 14.8027 17.7507 14.7271 17.7508 14.6263L17.7524 13.4381C17.7525 13.359 17.8115 13.2917 17.8911 13.2799L21.7717 12.701L21.8437 5.90878C21.5296 5.73327 21.3178 5.40151 21.3183 5.02083C21.3191 4.45706 21.7848 4.00002 22.3584 4Z" fill="black"/>
<path d="M33.1739 17.9355C30.5161 17.7029 27.801 19.356 25.9665 21.1477L25.5662 25.7239L21.614 26.9153L25.8628 31.1297L23.2379 34.7428L26.0927 37.2982L24.3651 39.4527L23.5325 45.5L26.2423 43.5058C34.7321 37.0704 40.338 32.8112 40.8412 27.0603C41.2535 22.3468 37.8786 18.3471 33.1739 17.9355Z" fill="#3C8469"/>
<path d="M18.6329 43.6234L21.0325 45.4998L20.5102 39.5703L21.8375 37.1486L18.5823 35.1277L20.5399 31.1137L15.6238 27.701L19.309 25.8415L18.9087 21.2653C17.0742 19.4736 14.3591 17.8205 11.7013 18.0531C6.9966 18.4647 3.62168 22.4644 4.03406 27.1779C4.5372 32.9288 10.1431 37.188 18.6329 43.6234Z" fill="#3C8469"/>
<g filter="url(#filter0_f_2222_437)">
<path d="M22.3584 4C22.9321 4 23.3965 4.45705 23.3957 5.02083C23.3952 5.38266 23.2031 5.70025 22.914 5.88155L22.968 12.7164L26.8139 13.2802C26.8936 13.2919 26.9525 13.3592 26.9524 13.4385L26.9508 14.627C26.9507 14.7275 26.8574 14.8032 26.757 14.7841L24.3527 14.3279L24.315 42.3379L22.2998 53L20.3449 42.3379L20.3826 14.3128L17.9449 14.7833C17.8442 14.8027 17.7507 14.7271 17.7508 14.6263L17.7524 13.4381C17.7525 13.359 17.8115 13.2917 17.8911 13.2799L21.7717 12.701L21.8437 5.90878C21.5296 5.73327 21.3178 5.40151 21.3183 5.02083C21.3191 4.45706 21.7848 4.00002 22.3584 4Z" fill="black"/>
</g>
<g filter="url(#filter1_f_2222_437)">
<path d="M33.1739 17.9355C30.5161 17.7029 27.801 19.356 25.9665 21.1477L25.5662 25.7239L21.614 26.9153L25.8628 31.1297L23.2379 34.7428L26.0927 37.2982L24.3651 39.4527L23.5325 45.5L26.2423 43.5058C34.7321 37.0704 40.338 32.8112 40.8412 27.0603C41.2535 22.3468 37.8786 18.3471 33.1739 17.9355Z" fill="#3C8469"/>
</g>
<g filter="url(#filter2_f_2222_437)">
<path d="M18.6329 43.6234L21.0325 45.4998L20.5102 39.5703L21.8375 37.1486L18.5823 35.1277L20.5399 31.1137L15.6238 27.701L19.309 25.8415L18.9087 21.2653C17.0742 19.4736 14.3591 17.8205 11.7013 18.0531C6.9966 18.4647 3.62168 22.4644 4.03406 27.1779C4.5372 32.9288 10.1431 37.188 18.6329 43.6234Z" fill="#3C8469"/>
</g>
<defs>
<filter id="filter0_f_2222_437" x="13.7509" y="0" width="17.2015" height="57" filterUnits="userSpaceOnUse" color-interpolation-filters="sRGB">
<feFlood flood-opacity="0" result="BackgroundImageFix"/>
<feBlend mode="normal" in="SourceGraphic" in2="BackgroundImageFix" result="shape"/>
<feGaussianBlur stdDeviation="2" result="effect1_foregroundBlur_2222_437"/>
</filter>
<filter id="filter1_f_2222_437" x="17.614" y="13.9141" width="27.2613" height="35.5859" filterUnits="userSpaceOnUse" color-interpolation-filters="sRGB">
<feFlood flood-opacity="0" result="BackgroundImageFix"/>
<feBlend mode="normal" in="SourceGraphic" in2="BackgroundImageFix" result="shape"/>
<feGaussianBlur stdDeviation="2" result="effect1_foregroundBlur_2222_437"/>
</filter>
<filter id="filter2_f_2222_437" x="0" y="14.0312" width="25.8375" height="35.4688" filterUnits="userSpaceOnUse" color-interpolation-filters="sRGB">
<feFlood flood-opacity="0" result="BackgroundImageFix"/>
<feBlend mode="normal" in="SourceGraphic" in2="BackgroundImageFix" result="shape"/>
<feGaussianBlur stdDeviation="2" result="effect1_foregroundBlur_2222_437"/>
</filter>
</defs>
</svg>
